<svg width="16px" height="16px" viewBox="0 0 16 16" version="1.1" xmlns="http://www.w3.org/2000/svg" xmlns:xlink="http://www.w3.org/1999/xlink">
    <g id="Community" stroke="none" stroke-width="1" fill="none" fill-rule="evenodd" opacity="0.580566406">
        <g transform="translate(-1071.000000, -1146.000000)" fill="#FFFFFF" fill-rule="nonzero" id="footer">
            <g transform="translate(0.000000, 988.000000)">
                <g id="find-us" transform="translate(997.000000, 109.000000)">
                    <g id="Group-17" transform="translate(0.000000, 49.000000)">
                        <g id="medium" transform="translate(74.000000, 0.000000)">
                            <path d="M0,0 L0,16 L16,16 L16,0 L0,0 Z M13.2923077,3.79076923 L12.4340513,4.61128205 C12.3594017,4.66696198 12.3225664,4.76000292 12.3388718,4.85169231 L12.3388718,10.8972308 C12.3225664,10.9889202 12.3594017,11.0819611 12.4340513,11.137641 L13.2726154,11.9581538 L13.2726154,12.1435897 L9.05682051,12.1435897 L9.05682051,11.9630769 L9.92820513,11.1204103 C10.0102564,11.038359 10.0102564,11.009641 10.0102564,10.8791795 L10.0102564,5.98974359 L7.59712821,12.1238974 L7.26892308,12.1238974 L4.46030769,5.98974359 L4.46030769,10.0988718 C4.43731202,10.2714623 4.49477531,10.445062 4.61620513,10.5698462 L5.74358974,11.9425641 L5.74358974,12.1238974 L2.54358974,12.1238974 L2.54358974,11.9425641 L3.67261538,10.5731282 C3.79332654,10.4482587 3.84727114,10.2733197 3.81784615,10.1021538 L3.81784615,5.35138462 C3.83155223,5.21939975 3.78121743,5.08883433 3.68246154,5.00020513 L2.67897436,3.79076923 L2.67897436,3.61025641 L5.79692308,3.61025641 L8.20512821,8.89271795 L10.3212308,3.61025641 L13.2923077,3.61025641 L13.2923077,3.79076923 Z" id="Shape"></path>
                        </g>
                    </g>
                </g>
            </g>
        </g>
    </g>
</svg>