<svg width="16px" height="13px" viewBox="0 0 16 13" version="1.1" xmlns="http://www.w3.org/2000/svg" xmlns:xlink="http://www.w3.org/1999/xlink">
    <g id="Community" stroke="none" stroke-width="1" fill="none" fill-rule="evenodd" opacity="0.580566406">
        <g transform="translate(-997.000000, -1148.000000)" fill="#FFFFFF" id="footer">
            <g transform="translate(0.000000, 988.000000)">
                <g id="find-us" transform="translate(997.000000, 109.000000)">
                    <g id="Group-17" transform="translate(0.000000, 49.000000)">
                        <g id="soc_tw" transform="translate(0.000000, 1.000000)">
                            <path d="M16,2.539 C15.4008594,2.80407605 14.7655394,2.9783256 14.115,3.056 C14.8004498,2.64584862 15.3133289,2.00039569 15.558,1.24 C14.9130093,1.62227591 14.2075717,1.89180311 13.472,2.037 C12.4563258,0.949486454 10.8362124,0.681102368 9.52410838,1.3830018 C8.21200437,2.08490122 7.53607335,3.58153573 7.877,5.03 C5.23677028,4.89779392 2.77675716,3.65106741 1.109,1.6 C0.817020224,2.10077884 0.663762153,2.67031897 0.665,3.25 C0.665,4.389 1.423,5.393 2.305,5.982 C1.766,5.965 0.996,5.817 0.996,5.57 L0.996,5.61 C0.996,7.2 1.95,8.527 3.452,8.83 C3.13940345,8.90623345 2.81875749,8.94450951 2.497,8.944 C2.285,8.944 2.035,8.924 1.833,8.885 C2.25341613,10.2197926 3.47883728,11.1373493 4.878,11.165 C3.49635178,12.2466654 1.7420676,12.7361243 5.51725332e-16,12.526 C1.50042933,13.4899505 3.2466083,14.0016538 5.03,14 C11.07,14 14.37,8.998 14.37,4.66 C14.37,4.518 14.368,4.377 14.36,4.236 C15.0028482,3.77136275 15.5575555,3.19565919 15.998,2.536 L16,2.54 L16,2.539 Z" id="Path"></path>
                        </g>
                    </g>
                </g>
            </g>
        </g>
    </g>
</svg>