<svg width="100" height="38" viewBox="0 0 100 38" fill="none" xmlns="http://www.w3.org/2000/svg">
<path d="M59.9171 12.3027H68.5837V37.4177H59.9171V12.3027Z" fill="#3AAC59"/>
<path d="M48.0179 10.4133C44.6858 10.4133 41.2785 11.2041 40.4302 12.6761C40.4187 12.6947 40.4075 12.7119 40.3966 12.7311V2.19385H31.498V18.9105V18.9391C32.3832 19.3411 33.2911 19.8002 34.2095 20.3194C34.5201 20.4961 34.783 20.6502 34.9768 20.7658C35.0986 20.8383 35.2201 20.9111 35.3416 20.9861C35.3542 20.9938 30.2553 28.8652 23.3115 30.518C19.2089 31.4952 14.3626 30.3122 13.3807 26.2322C13.3397 26.063 13.317 25.8933 13.2905 25.7238C13.9447 25.3377 14.6137 24.9833 15.2863 24.6547C16.9858 23.9205 18.2827 23.3702 18.7735 23.1836C18.8165 23.1677 18.8601 23.1513 18.9028 23.1358C18.9036 23.1358 18.9047 23.1355 18.9053 23.1355C18.9059 23.1355 18.9059 23.135 18.9067 23.1344C22.9584 21.6777 26.3592 21.175 26.3592 21.175C23.2707 20.9102 20.6187 21.1236 18.3994 21.5594C18.3986 21.5583 18.3964 21.5577 18.3964 21.5577C18.3964 21.5577 18.3796 21.5616 18.3497 21.5694C16.3402 21.9683 14.6872 22.5486 13.4036 23.1275C14.1187 20.1869 16.6997 17.6322 19.7542 16.9044C20.0226 16.8405 20.2947 16.7911 20.5676 16.7488C20.6461 16.7369 20.7243 16.7263 20.8031 16.7161C21.0151 16.6875 21.2282 16.6652 21.4427 16.648C21.5112 16.6427 21.5802 16.6355 21.6489 16.6319C21.9232 16.6147 22.1983 16.6061 22.4746 16.6072C22.5288 16.6075 22.583 16.6105 22.6371 16.6108C22.8662 16.6141 23.0952 16.623 23.3246 16.6375C23.4056 16.6425 23.4863 16.6477 23.5668 16.6541C23.6472 16.6605 23.7277 16.668 23.8078 16.6755C25.1229 16.8102 26.7385 17.1602 28.5296 17.7636V11.9847C27.6654 11.7197 26.7483 11.463 25.7964 11.2308C23.2869 10.568 18.9777 9.86246 14.2648 11.0005C6.68464 12.8319 4.53492 18.3916 4.53492 25.1855C4.53492 26.0511 4.60419 26.8611 4.73073 27.623C3.0852 28.7036 1.46899 29.9444 0 31.3605C0 31.3605 2.18631 30.3938 5.07402 29.1219C7.00168 35.6469 13.7257 37.8419 18.7891 37.8419C24.0696 37.8419 27.4595 36.3475 31.498 33.8494V37.0136H40.3966V21.3177C40.4075 21.2972 40.4187 21.2769 40.4302 21.2558V20.9891C41.2768 18.7458 42.7168 18.1669 44.317 18.1669C46.4321 18.1669 47.7536 19.6561 47.7536 22.0225V37.0136H56.6522V19.4816C56.6522 13.9619 53.1718 10.4133 48.0179 10.4133Z" fill="#3AAC59"/>
<path d="M64.1089 0C61.422 0 59.5273 1.88361 59.5273 4.55583C59.5273 7.22806 61.422 9.11139 64.1089 9.11139C66.7958 9.11139 68.6907 7.22806 68.6907 4.55583C68.6907 1.88361 66.7958 0 64.1089 0Z" fill="#3AAC59"/>
<path d="M98.1771 22.7899H98.188L98.1785 11.6024H89.2693L89.2207 13.1927C80.6271 7.70383 75.1411 13.3486 75.1411 13.3486C72.5173 15.7308 70.9947 19.4919 70.9947 24.2144C70.9947 32.5869 76.0559 37.5674 82.6352 37.5674C85.1011 37.5674 87.3729 37.0136 89.3346 34.3172C89.562 34.9458 90.0682 36.4849 90.4307 37.0136H99.7017C98.1126 34.4194 98.1254 25.4241 98.1771 22.7899ZM84.7126 30.3141C81.8271 30.3141 79.7925 27.8241 79.7925 24.2913C79.7925 20.7586 81.8271 18.268 84.7126 18.268C86.736 18.268 88.34 19.4938 89.1182 21.4441V27.138C88.3402 29.0883 86.736 30.3141 84.7126 30.3141Z" fill="#3AAC59"/>
</svg>
