<svg width="100" height="38" viewBox="0 0 100 38" fill="none" xmlns="http://www.w3.org/2000/svg">
<path d="M59.9171 12.3027H68.5837V37.4177H59.9171V12.3027Z" fill="white"/>
<path d="M48.0179 10.413C44.6858 10.413 41.2785 11.2039 40.4302 12.6758C40.4187 12.6944 40.4075 12.7117 40.3966 12.7308V2.1936H31.498V18.9103V18.9389C32.3832 19.3408 33.2911 19.8 34.2095 20.3192C34.5201 20.4958 34.783 20.65 34.9768 20.7655C35.0986 20.838 35.2201 20.9108 35.3416 20.9858C35.3542 20.9936 30.2553 28.865 23.3115 30.5178C19.2089 31.495 14.3626 30.3119 13.3807 26.2319C13.3397 26.0628 13.317 25.893 13.2905 25.7236C13.9447 25.3375 14.6137 24.983 15.2863 24.6544C16.9858 23.9203 18.2827 23.37 18.7735 23.1833C18.8165 23.1675 18.8601 23.1511 18.9028 23.1355C18.9036 23.1355 18.9047 23.1353 18.9053 23.1353C18.9059 23.1353 18.9059 23.1347 18.9067 23.1342C22.9584 21.6775 26.3592 21.1747 26.3592 21.1747C23.2707 20.91 20.6187 21.1233 18.3994 21.5592C18.3986 21.558 18.3964 21.5575 18.3964 21.5575C18.3964 21.5575 18.3796 21.5614 18.3497 21.5692C16.3402 21.968 14.6872 22.5483 13.4036 23.1272C14.1187 20.1867 16.6997 17.6319 19.7542 16.9042C20.0226 16.8403 20.2947 16.7908 20.5676 16.7486C20.6461 16.7367 20.7243 16.7261 20.8031 16.7158C21.0151 16.6872 21.2282 16.665 21.4427 16.6478C21.5112 16.6425 21.5802 16.6353 21.6489 16.6317C21.9232 16.6144 22.1983 16.6058 22.4746 16.6069C22.5288 16.6072 22.583 16.6103 22.6371 16.6105C22.8662 16.6139 23.0952 16.6228 23.3246 16.6372C23.4056 16.6422 23.4863 16.6475 23.5668 16.6539C23.6472 16.6603 23.7277 16.6678 23.8078 16.6753C25.1229 16.81 26.7385 17.16 28.5296 17.7633V11.9844C27.6654 11.7194 26.7483 11.4628 25.7964 11.2305C23.2869 10.5678 18.9777 9.86221 14.2648 11.0003C6.68464 12.8317 4.53492 18.3914 4.53492 25.1853C4.53492 26.0508 4.60419 26.8608 4.73073 27.6228C3.0852 28.7033 1.46899 29.9442 0 31.3603C0 31.3603 2.18631 30.3936 5.07402 29.1217C7.00168 35.6467 13.7257 37.8417 18.7891 37.8417C24.0696 37.8417 27.4595 36.3472 31.498 33.8492V37.0133H40.3966V21.3175C40.4075 21.2969 40.4187 21.2767 40.4302 21.2555V20.9889C41.2768 18.7455 42.7168 18.1667 44.317 18.1667C46.4321 18.1667 47.7536 19.6558 47.7536 22.0222V37.0133H56.6522V19.4814C56.6522 13.9617 53.1718 10.413 48.0179 10.413Z" fill="white"/>
<path d="M64.1089 0C61.4221 0 59.5274 1.88361 59.5274 4.55583C59.5274 7.22806 61.4221 9.11139 64.1089 9.11139C66.7958 9.11139 68.6908 7.22806 68.6908 4.55583C68.6908 1.88361 66.7958 0 64.1089 0Z" fill="white"/>
<path d="M98.1771 22.7897H98.188L98.1785 11.6022H89.2693L89.2207 13.1925C80.6271 7.70359 75.1411 13.3483 75.1411 13.3483C72.5173 15.7305 70.9947 19.4916 70.9947 24.2141C70.9947 32.5866 76.0559 37.5672 82.6352 37.5672C85.1011 37.5672 87.3729 37.0133 89.3346 34.3169C89.562 34.9455 90.0682 36.4847 90.4307 37.0133H99.7017C98.1126 34.4191 98.1254 25.4239 98.1771 22.7897ZM84.7126 30.3139C81.8271 30.3139 79.7925 27.8239 79.7925 24.2911C79.7925 20.7583 81.8271 18.2678 84.7126 18.2678C86.736 18.2678 88.34 19.4936 89.1182 21.4439V27.1378C88.3402 29.088 86.736 30.3139 84.7126 30.3139Z" fill="white"/>
</svg>
