<svg width="328" height="361" viewBox="0 0 328 361" fill="none" xmlns="http://www.w3.org/2000/svg">
<g opacity="0.15">
<path opacity="0.3" d="M170.378 360.755C257.43 360.755 328 289.672 328 201.986C328 114.3 257.43 43.2163 170.378 43.2163C83.3264 43.2163 12.7568 114.3 12.7568 201.986C12.7568 289.672 83.3264 360.755 170.378 360.755Z" fill="#3AAC59"/>
<path d="M105.648 0L0.699219 128.264L156.023 312.909L259.572 190.283L105.648 0Z" fill="#3AAC59"/>
<path opacity="0.1" d="M105.648 0L0.699219 128.264L156.023 312.909L259.572 190.283L105.648 0Z" fill="black"/>
<path d="M4.89746 129.674C7.21887 125.465 10.0975 121.593 13.4543 118.165L109.846 19.7326C109.846 19.7326 143.429 14.0946 150.426 31.0086L27.2864 132.493L4.89746 129.674Z" fill="#F2F2F2"/>
<path d="M0 127.56L142.73 347.442C142.73 347.442 156.723 357.309 170.716 351.671L316.944 252.301L161.62 15.5044L21.6893 125.446L0 127.56Z" fill="#3AAC59"/>
<path d="M144.171 49.8192L54.6074 114.646L55.9308 116.501L145.494 51.6743L144.171 49.8192Z" fill="#3F3D56"/>
<path d="M53.4199 138.91L51.5283 140.17L169.071 319.178L170.962 317.917L53.4199 138.91Z" fill="#3F3D56"/>
<path d="M278.479 252.776L183.348 323.279L184.692 325.12L279.823 254.616L278.479 252.776Z" fill="#3F3D56"/>
<path d="M161.152 52.9088L159.291 54.2134L281.031 230.401L282.892 229.096L161.152 52.9088Z" fill="#3F3D56"/>
<path d="M123.547 18.3357L12.8203 120.698L13.7659 121.736L124.493 19.3736L123.547 18.3357Z" fill="#3F3D56"/>
<path d="M132.772 19.2132L17.0479 122.12L17.9743 123.177L133.699 20.2703L132.772 19.2132Z" fill="#3F3D56"/>
<path d="M140.01 21.2638L19.8779 122.129L20.7744 123.212L140.907 22.3471L140.01 21.2638Z" fill="#3F3D56"/>
</g>
</svg>
