<svg width="16" height="16" viewBox="0 0 16 16" fill="none" xmlns="http://www.w3.org/2000/svg">
<path fill-rule="evenodd" clip-rule="evenodd" d="M8 0C3.6 0 0 3.69048 0 8.20107C0 11.8403 2.3 14.9157 5.45 15.9921C5.85 16.0433 6 15.8383 6 15.582C6 15.377 6 14.8644 6 14.1981C3.75 14.7107 3.3 13.1217 3.3 13.1217C2.95 12.1991 2.4 11.9428 2.4 11.9428C1.65 11.4302 2.45 11.4302 2.45 11.4302C3.25 11.4815 3.7 12.2504 3.7 12.2504C4.4 13.4805 5.55 13.1217 6.05 12.9167C6.1 12.4041 6.35 12.0453 6.55 11.8403C4.75 11.6353 2.9 10.9177 2.9 7.79102C2.9 6.91966 3.2 6.1508 3.7 5.58698C3.6 5.38195 3.35 4.56185 3.8 3.4342C3.8 3.4342 4.45 3.22917 6 4.25431C6.65 4.04928 7.3 3.99802 8 3.99802C8.7 3.99802 9.35 4.10054 10 4.25431C11.55 3.17792 12.2 3.38294 12.2 3.38294C12.65 4.51059 12.35 5.3307 12.3 5.53572C12.8 6.09955 13.1 6.81714 13.1 7.73976C13.1 10.8664 11.25 11.584 9.45 11.789C9.75 12.0453 10 12.5579 10 13.3267C10 14.4031 10 15.3258 10 15.582C10 15.7871 10.15 16.0433 10.55 15.9921C13.7 14.9157 16 11.8403 16 8.20107C16 3.69048 12.4 0 8 0Z" fill="#FAFAFA"/>
</svg>
