<?xml version="1.0" encoding="UTF-8" standalone="no"?>
<!-- Created with Inkscape (http://www.inkscape.org/) -->

<svg
   xmlns:dc="http://purl.org/dc/elements/1.1/"
   xmlns:cc="http://creativecommons.org/ns#"
   xmlns:rdf="http://www.w3.org/1999/02/22-rdf-syntax-ns#"
   xmlns:svg="http://www.w3.org/2000/svg"
   xmlns="http://www.w3.org/2000/svg"
   xmlns:sodipodi="http://sodipodi.sourceforge.net/DTD/sodipodi-0.dtd"
   xmlns:inkscape="http://www.inkscape.org/namespaces/inkscape"
   width="144mm"
   height="35mm"
   viewBox="0 0 144 35"
   version="1.1"
   id="svg8"
   inkscape:version="0.92.4 (5da689c313, 2019-01-14)"
   sodipodi:docname="github.svg">
  <defs
     id="defs2">
    <clipPath
       id="clipPath3020"
       clipPathUnits="userSpaceOnUse">
      <path
         id="path3022"
         d="M 0,0 H 4802 V 1298.75 H 0 Z"
         inkscape:connector-curvature="0" />
    </clipPath>
  </defs>
  <sodipodi:namedview
     id="base"
     pagecolor="#ffffff"
     bordercolor="#666666"
     borderopacity="1.0"
     inkscape:pageopacity="0.0"
     inkscape:pageshadow="2"
     inkscape:zoom="3.959798"
     inkscape:cx="160.27693"
     inkscape:cy="116.234"
     inkscape:document-units="mm"
     inkscape:current-layer="layer1"
     showgrid="false"
     inkscape:pagecheckerboard="true"
     inkscape:window-width="3840"
     inkscape:window-height="2112"
     inkscape:window-x="0"
     inkscape:window-y="48"
     inkscape:window-maximized="1" />
  <metadata
     id="metadata5">
    <rdf:RDF>
      <cc:Work
         rdf:about="">
        <dc:format>image/svg+xml</dc:format>
        <dc:type
           rdf:resource="http://purl.org/dc/dcmitype/StillImage" />
        <dc:title></dc:title>
      </cc:Work>
    </rdf:RDF>
  </metadata>
  <g
     inkscape:label="Layer 1"
     inkscape:groupmode="layer"
     id="layer1"
     transform="translate(0,-262)">
    <g
       transform="matrix(0.20519738,0,0,-0.20519738,39.203831,292.63366)"
       inkscape:label="ink_ext_XXXXXX"
       id="g3012">
      <g
         transform="scale(0.1)"
         id="g3014"
         style="fill:#0f7148;fill-opacity:1">
        <g
           id="g3016"
           style="fill:#0f7148;fill-opacity:1">
          <g
             clip-path="url(#clipPath3020)"
             id="g3018"
             style="fill:#0f7148;fill-opacity:1">
            <path
               id="path3024"
               style="fill:#0f7148;fill-opacity:1;fill-rule:nonzero;stroke:none"
               d="M 924.973,742.875 H 521.406 c -10.41,0 -18.855,-8.449 -18.855,-18.867 V 526.703 c 0,-10.41 8.445,-18.887 18.855,-18.887 H 678.84 V 262.68 c 0,0 -35.356,-12.051 -133.078,-12.051 -115.301,0 -276.367,42.133 -276.367,396.312 0,354.259 167.714,400.869 325.175,400.869 136.297,0 195.02,-24 232.383,-35.56 11.738,-3.6 22.598,8.09 22.598,18.51 l 45.019,190.64 c 0,4.87 -1.648,10.74 -7.207,14.73 -15.175,10.82 -107.746,62.62 -341.601,62.62 C 276.348,1298.75 0,1184.13 0,633.129 0,82.1094 316.395,0 583.02,0 c 220.757,0 354.683,94.3398 354.683,94.3398 5.52,3.0508 6.113,10.7622 6.113,14.3012 v 615.367 c 0,10.418 -8.433,18.867 -18.843,18.867"
               inkscape:connector-curvature="0" />
            <path
               id="path3026"
               style="fill:#0f7148;fill-opacity:1;fill-rule:nonzero;stroke:none"
               d="m 3004.75,1232.73 c 0,10.5 -8.32,18.97 -18.73,18.97 h -227.23 c -10.38,0 -18.82,-8.47 -18.82,-18.97 0,-0.05 0.06,-439.125 0.06,-439.125 h -354.19 v 439.125 c 0,10.5 -8.36,18.97 -18.75,18.97 h -227.22 c -10.34,0 -18.77,-8.47 -18.77,-18.97 V 43.6992 c 0,-10.4883 8.43,-19.0273 18.77,-19.0273 h 227.22 c 10.39,0 18.75,8.539 18.75,19.0273 V 552.289 h 354.19 c 0,0 -0.62,-508.5507 -0.62,-508.5898 0,-10.4883 8.43,-19.0273 18.82,-19.0273 H 2986 c 10.41,0 18.73,8.539 18.75,19.0273 V 1232.73"
               inkscape:connector-curvature="0" />
            <path
               id="path3028"
               style="fill:#0f7148;fill-opacity:1;fill-rule:nonzero;stroke:none"
               d="m 1353.76,1076.7 c 0,81.82 -65.6,147.94 -146.53,147.94 -80.85,0 -146.5,-66.12 -146.5,-147.94 0,-81.735 65.65,-148.032 146.5,-148.032 80.93,0 146.53,66.297 146.53,148.032"
               inkscape:connector-curvature="0" />
            <path
               id="path3030"
               style="fill:#0f7148;fill-opacity:1;fill-rule:nonzero;stroke:none"
               d="m 1337.51,294.52 c 0,30.464 0,548.859 0,548.859 0,10.422 -8.41,18.941 -18.8,18.941 H 1092.2 c -10.39,0 -19.69,-10.718 -19.69,-21.136 0,0 0,-660.454 0,-786.352 0,-23.1132 14.4,-29.9804 33.04,-29.9804 0,0 96.68,0 204.08,0 22.39,0 27.88,10.9882 27.88,30.3476 0,42.1524 0,207.2698 0,239.3208"
               inkscape:connector-curvature="0" />
            <path
               id="path3032"
               style="fill:#0f7148;fill-opacity:1;fill-rule:nonzero;stroke:none"
               d="m 3868.32,860.531 h -225.49 c -10.34,0 -18.76,-8.523 -18.76,-19.011 V 258.5 c 0,0 -57.28,-41.91 -138.59,-41.91 -81.3,0 -102.88,36.89 -102.88,116.5 0,79.707 0,508.43 0,508.43 0,10.488 -8.4,19.011 -18.75,19.011 H 3135 c -10.33,0 -18.79,-8.523 -18.79,-19.011 0,0 0,-310.481 0,-546.93 0,-236.4611 131.79,-294.30875 313.09,-294.30875 148.73,0 268.65,82.16795 268.65,82.16795 0,0 5.71,-43.3008 8.29,-48.4375 2.59,-5.1211 9.32,-10.2929 16.59,-10.2929 l 145.59,0.6406 c 10.33,0 18.79,8.539 18.79,18.9804 l -0.07,798.1802 c 0,10.488 -8.43,19.011 -18.82,19.011"
               inkscape:connector-curvature="0" />
            <path
               id="path3034"
               style="fill:#0f7148;fill-opacity:1;fill-rule:nonzero;stroke:none"
               d="m 4395.67,217.309 c -78.21,2.382 -131.26,37.871 -131.26,37.871 v 376.543 c 0,0 52.34,32.078 116.55,37.812 81.2,7.274 159.44,-17.254 159.44,-210.957 0,-204.258 -35.31,-244.566 -144.73,-241.269 z m 88.94,669.933 c -128.07,0 -215.18,-57.14 -215.18,-57.14 v 402.628 c 0,10.5 -8.39,18.97 -18.75,18.97 h -227.87 c -10.36,0 -18.78,-8.47 -18.78,-18.97 V 43.6992 c 0,-10.4883 8.42,-19.0273 18.81,-19.0273 0.02,0 158.05,0 158.1,0 7.12,0 12.51,3.6679 16.49,10.0976 3.93,6.3907 9.6,54.8203 9.6,54.8203 0,0 93.18,-88.30074 269.57,-88.30074 207.08,0 325.84,105.04294 325.84,471.54694 0,366.512 -189.67,414.406 -317.83,414.406"
               inkscape:connector-curvature="0" />
            <path
               id="path3036"
               style="fill:#0f7148;fill-opacity:1;fill-rule:nonzero;stroke:none"
               d="m 1990.58,862.426 h -170.45 c 0,0 -0.26,225.134 -0.26,225.184 0,8.52 -4.39,12.78 -14.24,12.78 h -232.28 c -9.03,0 -13.88,-3.97 -13.88,-12.65 V 855.043 c 0,0 -116.4,-28.102 -124.27,-30.371 -7.84,-2.274 -13.61,-9.5 -13.61,-18.125 V 660.32 c 0,-10.515 8.4,-18.996 18.79,-18.996 h 119.09 c 0,0 0,-152.941 0,-351.785 0,-261.289 183.28,-286.96088 306.96,-286.96088 56.51,0 124.11,18.15238 135.27,22.27348 6.75,2.4804 10.67,9.4687 10.67,17.0468 l 0.19,160.8636 c 0,10.488 -8.86,18.976 -18.84,18.976 -9.93,0 -35.34,-4.039 -61.5,-4.039 -83.72,0 -112.09,38.93 -112.09,89.317 0,50.351 -0.01,334.308 -0.01,334.308 h 170.46 c 10.39,0 18.8,8.481 18.8,18.996 v 183.16 c 0,10.497 -8.41,18.946 -18.8,18.946"
               inkscape:connector-curvature="0" />
          </g>
        </g>
      </g>
    </g>
    <path
       inkscape:connector-curvature="0"
       style="clip-rule:evenodd;fill:#0f7148;fill-rule:evenodd;stroke-width:1.78271806;fill-opacity:1"
       d="m 18.536693,265.24156 c -7.879615,0 -14.2617463,6.38213 -14.2617463,14.26175 0,6.31081 4.0824254,11.64114 9.7514683,13.53083 0.713088,0.12479 0.980496,-0.30306 0.980496,-0.67743 0,-0.33872 -0.01783,-1.46184 -0.01783,-2.65626 -3.583263,0.65961 -4.510276,-0.87353 -4.795511,-1.67575 -0.160445,-0.41002 -0.8557049,-1.67576 -1.4618289,-2.01447 -0.499161,-0.26741 -1.212248,-0.92702 -0.01783,-0.94485 1.123112,-0.0178 1.9253349,1.03398 2.1927429,1.46183 1.283557,2.15709 3.333683,1.55097 4.153734,1.1766 0.12479,-0.92702 0.49916,-1.55097 0.909186,-1.90751 -3.173239,-0.35655 -6.4890949,-1.58662 -6.4890949,-7.04173 0,-1.55097 0.5526429,-2.83453 1.4618289,-3.83285 -0.142617,-0.35655 -0.641778,-1.81837 0.142617,-3.77937 0,0 1.194422,-0.37437 3.921981,1.46184 1.140939,-0.32089 2.353188,-0.48134 3.565436,-0.48134 1.212249,0 2.424497,0.16045 3.565437,0.48134 2.727559,-1.85403 3.92198,-1.46184 3.92198,-1.46184 0.784396,1.961 0.285235,3.42282 0.142617,3.77937 0.909187,0.99832 1.461829,2.26405 1.461829,3.83285 0,5.47294 -3.333683,6.68518 -6.506921,7.04173 0.516987,0.44568 0.962668,1.30138 0.962668,2.63842 0,1.90751 -0.01783,3.44065 -0.01783,3.92199 0,0.37437 0.267408,0.82004 0.980496,0.67743 5.633389,-1.88969 9.715814,-7.23784 9.715814,-13.53083 0,-7.87962 -6.382131,-14.26175 -14.261746,-14.26175 z"
       id="path2" />
  </g>
</svg>
