<?xml version="1.0" encoding="utf-8"?>
<!-- Generator: Adobe Illustrator 19.0.0, SVG Export Plug-In . SVG Version: 6.00 Build 0)  -->
<svg version="1.1" id="layer" xmlns="http://www.w3.org/2000/svg" xmlns:xlink="http://www.w3.org/1999/xlink" x="0px" y="0px"
	 viewBox="-153 -46 652 652" style="enable-background:new -153 -46 652 652;" xml:space="preserve">
<style type="text/css">
	.st0{fill:#312F30;}
	.st1{fill:#FFFFFF;}
	.st2{fill:#00ACD8;}
</style>
<rect x="-132" y="141.7" class="st0" width="600" height="266.7"/>
<path class="st1" d="M-34.6,324.3l-2.1-10.8c-2.9,5.7-12.3,12.4-24.6,12.6c-11.3,0.1-21.4-2.7-29.1-10.9
	c-10.2-10.6-12.7-23.7-12.7-39.8s2.1-28.7,12.7-39.3c7.5-7.5,18.6-11.5,29.1-11.5c12,0,22.4,4.4,29,11.2c4.8,5,8.4,11.2,9,19.7
	h-18.2c-0.3-3.9-2.2-6.5-4.3-9c-3.4-4-8.8-5.9-15.6-5.9c-5.7,0-12.2,2.5-16,6.6c-6.8,7-7.6,19.2-7.6,28.2c0,9,1,21.5,7.7,28.6
	c3.9,4.1,10.2,6.2,15.9,6.2c6.3,0,11.3-2.2,14.6-5.7c5.2-5.5,6.3-11.6,6.3-19.1h-23.3v-14.8h40.6v53.6H-34.6z M28.7,267.9
	c-12.1,0-18.5,8.7-18.5,20.3v36.2H-7.2v-71.8H7.4l1.5,10.8c3.3-8.3,11.9-11.7,20.3-11.7c1.8,0,3.6,0.1,5.4,0.4v16.6
	C32.7,268.1,30.6,267.9,28.7,267.9 M81.4,268.7c-2.3-2.5-5.9-4.1-10.9-4.1c-5.3,0-9.5,2.2-12,5.5c-2.5,3.2-3.6,6.5-3.7,11.2h31.1
	C85.7,275.9,84.2,271.7,81.4,268.7 M102.9,293.8H54.9c-0.1,5.5,1.8,10.8,5.3,14.1c2.5,2.3,5.9,4.4,10.6,4.4c5,0,8-1,10.5-3.4
	c1.5-1.5,2.8-3.5,3.5-6.1h16.6c-0.4,4.3-3.3,9.9-6.1,13.3c-6.1,7.2-15.1,10.1-24.2,10.1c-9.8,0-17-3.4-22.6-8.8
	c-7.2-6.9-11-17-11-28.7c0-11.5,3.4-21.7,10.3-28.7c5.4-5.5,13.1-9.1,22.9-9.1c10.6,0,20.3,4.3,26.2,13.3c5.2,7.9,6.5,16,6.2,25
	C103.1,289,102.9,292.3,102.9,293.8 M154.7,268.7c-2.3-2.5-5.9-4.1-10.9-4.1c-5.2,0-9.5,2.2-12,5.5c-2.5,3.2-3.6,6.5-3.7,11.2h31.1
	C159,275.9,157.4,271.7,154.7,268.7 M176.2,293.8h-48c-0.1,5.5,1.8,10.8,5.2,14.1c2.5,2.3,5.9,4.4,10.6,4.4c5,0,8-1,10.5-3.4
	c1.5-1.5,2.7-3.5,3.4-6.1h16.6c-0.4,4.3-3.3,9.9-6.1,13.3c-6.1,7.2-15,10.1-24.1,10.1c-9.8,0-17-3.4-22.6-8.8
	c-7.2-6.9-11-17-11-28.7c0-11.5,3.4-21.7,10.3-28.7c5.4-5.5,13.1-9.1,22.9-9.1c10.6,0,20.3,4.3,26.2,13.3c5.3,7.9,6.5,16,6.2,25
	C176.4,289,176.2,292.3,176.2,293.8 M232.8,324.3v-44.1c0-8.4-2.8-13.5-11.9-13.5c-6.1,0-10.1,3.9-12.4,9.1
	c-2.5,5.7-2.3,13.1-2.3,19.2v29.3h-17.3v-71.8h14.5l1.2,9.3c4.3-7.6,12.8-11,21.1-11c15.3,0,24.3,10.8,24.3,25.7v47.9H232.8z"/>
<path class="st2" d="M307.8,281.3h-22.5v27.2h22c8.3,0,17.3-3,17.3-13C324.5,285,317.2,281.3,307.8,281.3 M307.2,241.8h-22v24.6
	h22.4c8,0,14.8-2.9,14.8-12.1C322.4,244.8,315.2,241.8,307.2,241.8 M332.6,317.8c-7.6,5.8-16.7,6.6-26.1,6.6h-38.9v-98h38.9
	c7.9,0,16,1.1,22.6,5.4c7.2,4.7,11.3,12.8,11.3,21.3c0,8-3.7,17-12,20.7c9.2,4.3,14.1,13,14.1,22.1
	C342.6,304.6,339.7,312.5,332.6,317.8 M355.3,252.5h17.5v71.8h-17.5V252.5z M354.7,224.8h18.5v17.8h-18.5V224.8z M386.2,324.3v-15.2
	l38-42.4h-37.7v-14.2h58v15.6l-37.5,42h37.8v14.2H386.2z"/>
</svg>
