<?xml version="1.0" encoding="UTF-8"?>
<svg width="420px" height="453px" viewBox="0 0 420 453" version="1.1" xmlns="http://www.w3.org/2000/svg" xmlns:xlink="http://www.w3.org/1999/xlink">
    <!-- Generator: Sketch 55.2 (78181) - https://sketchapp.com -->
    <title>eco-img</title>
    <desc>Created with Sketch.</desc>
    <g id="Landing-Page" stroke="none" stroke-width="1" fill="none" fill-rule="evenodd">
        <g id="WhitePage_Landing" transform="translate(-749.000000, -1516.000000)">
            <g id="eco" transform="translate(159.000000, 1505.000000)">
                <g id="eco-img" transform="translate(590.000000, 11.000000)">
                    <path d="M110.821589,170.621517 C110.419268,170.223746 109.878649,170.002486 109.307856,170.002486 L90.9368699,170 C89.7525372,170 88.7995392,170.944706 88.7995392,172.113159 C88.7995392,173.279126 89.7525372,174.223832 90.9368699,174.223832 L108.425265,174.226318 L136.527392,202.01063 L136.527392,228 L140.799539,228 L140.799539,201.133048 C140.799539,200.573682 140.578263,200.036691 140.175941,199.641406 L110.821589,170.621517 Z" id="Fill-1" fill="#D9D8D7"></path>
                    <path d="M124.072642,151.965141 L124.067617,134.127413 C124.067617,132.951079 123.115527,132 121.932322,132 C120.756654,132 119.799539,132.951079 119.799539,134.127413 L119.804563,152.848643 C119.804563,153.411781 120.025629,153.952394 120.427567,154.350346 L157.528949,191.317267 L157.528949,229 L161.799539,229 L161.799539,190.433765 C161.799539,189.870626 161.573449,189.330013 161.171511,188.932062 L124.072642,151.965141 Z" id="Fill-3" fill="#D9D8D7"></path>
                    <path d="M159.391136,163.738993 L159.391136,86.0613923 C159.391136,85.4904563 159.167059,84.9473093 158.759647,84.5431069 L114.491716,40.62904 C113.646335,39.79032 112.273864,39.79032 111.433575,40.62904 C110.588194,41.4652338 110.588194,42.8268907 111.433575,43.6630844 L155.064923,86.9506376 L155.064923,164.628238 C155.064923,165.196648 155.294093,165.742321 155.696413,166.143997 L178.473326,188.743965 L178.473326,229 L182.799539,229 L182.799539,187.857246 C182.799539,187.28631 182.575462,186.740637 182.16805,186.338961 L159.391136,163.738993 Z" id="Fill-5" fill="#D9D8D7"></path>
                    <path d="M185.591569,70.6239689 C184.723325,69.7928499 183.318966,69.7903313 182.450722,70.6264875 C181.582478,71.4626436 181.582478,72.8176195 182.450722,73.6537756 L198.356326,88.969033 L198.356326,229 L202.799539,229 L202.799539,88.082506 C202.799539,87.5133154 202.569402,86.9693102 202.150971,86.5663434 L185.591569,70.6239689 Z" id="Fill-7" fill="#D9D8D7"></path>
                    <path d="M329.662415,170 L311.285662,170.002486 C310.722467,170.002486 310.176872,170.223746 309.779618,170.621517 L280.428105,199.641406 C280.025823,200.036691 279.799539,200.573682 279.799539,201.133048 L279.799539,228 L284.071273,228 L284.071273,202.01063 L312.175712,174.226318 L329.662415,174.223832 C330.841605,174.223832 331.799539,173.279126 331.799539,172.113159 C331.799539,170.944706 330.841605,170 329.662415,170" id="Fill-9" fill="#D9D8D7"></path>
                    <path d="M301.799539,152.84614 L301.799539,134.127413 C301.799539,132.951079 300.847335,132 299.663989,132 C298.488179,132 297.53095,132.951079 297.53095,134.127413 L297.53095,151.962638 L260.422617,188.929559 C260.020631,189.327511 259.799539,189.868124 259.799539,190.433765 L259.799539,229 L264.068128,229 L264.068128,191.314764 L301.176461,154.350346 C301.578447,153.949892 301.799539,153.411781 301.799539,152.84614" id="Fill-11" fill="#D9D8D7"></path>
                    <path d="M266.540416,164.628238 L266.540416,86.9531638 L310.165593,43.6630844 C311.010855,42.8268907 311.010855,41.4652338 310.165593,40.62904 C309.325423,39.79032 307.948054,39.79032 307.107884,40.62904 L262.846215,84.5456332 C262.43886,84.9473093 262.214815,85.4929826 262.214815,86.0613923 L262.214815,163.736466 L239.430939,186.338961 C239.021038,186.743163 238.799539,187.288836 238.799539,187.857246 L238.799539,229 L243.12514,229 L243.12514,188.749018 L265.903924,166.14905 C266.311279,165.742321 266.540416,165.199174 266.540416,164.628238" id="Fill-13" fill="#D9D8D7"></path>
                    <path d="M236.006565,70.6271146 L219.448269,86.569426 C219.029733,86.9698726 218.799539,87.5138757 218.799539,88.0830641 L218.799539,229 L223.243859,229 L223.243859,88.9695875 L239.148194,73.6518723 C240.016654,72.818238 240.016654,71.4607489 239.148194,70.6271146 C238.284965,69.7909618 236.869793,69.7909618 236.006565,70.6271146" id="Fill-15" fill="#D9D8D7"></path>
                    <path d="M70.7995392,21.5 C70.8020557,27.0026916 72.8983277,32.5028672 77.0959048,36.6997074 C81.2934819,40.8990638 86.7971397,43 92.3007974,43 L113.799539,43 L70.8020557,0 L70.7995392,21.5 Z" id="Fill-17" fill="#81C481"></path>
                    <path d="M92.2982812,0 C97.8031668,0.00503277154 103.303021,2.10118212 107.499615,6.29851358 C111.698726,10.4933287 113.797023,15.9966643 113.799539,21.5 L113.797023,43 L70.7995392,0.00503277154 L92.2982812,0 Z" id="Fill-19" fill="#3AAC59"></path>
                    <path d="M140.799539,50.5 C140.802056,56.0026916 142.898205,61.5028672 147.095536,65.6997074 C151.292868,69.8990638 156.796203,72 162.297023,72 L183.799539,72 L140.802056,29 L140.799539,50.5 Z" id="Fill-21" fill="#81C481"></path>
                    <path d="M162.299539,29 C167.799715,29.0050328 173.302406,31.1011821 177.499247,35.2985136 C181.698603,39.4933287 183.799539,44.9966643 183.799539,50.5 L183.799539,72 L140.799539,29.0050328 L162.299539,29 Z" id="Fill-23" fill="#3AAC59"></path>
                    <path d="M257.299539,29 C251.796848,29.0025165 246.296672,31.096272 242.099832,35.2938491 C237.900475,39.4939428 235.799539,44.9976005 235.799539,50.4962252 L235.799539,72 L278.799539,29.0025165 L257.299539,29 Z" id="Fill-25" fill="#81C481"></path>
                    <path d="M278.799539,50.498742 C278.797023,56.0011117 276.698357,61.5009654 272.501026,65.6975601 C268.306211,69.8991867 262.802875,72 257.299539,72 L235.799539,71.9974841 L278.797023,29 L278.799539,50.498742 Z" id="Fill-27" fill="#3AAC59"></path>
                    <path d="M328.299539,0 C322.796848,0.00251653304 317.296672,2.09627202 313.099832,6.29384913 C308.900475,10.4939428 306.799539,15.9976005 306.799539,21.4962252 L306.799539,43 L349.799539,0.00251653304 L328.299539,0 Z" id="Fill-29" fill="#81C481"></path>
                    <path d="M349.799539,21.498742 C349.797023,27.0011117 347.698357,32.5009654 343.501026,36.6975601 C339.306211,40.8991867 333.802875,43 328.299539,43 L306.799539,42.9974841 L349.797023,0 L349.799539,21.498742 Z" id="Fill-31" fill="#3AAC59"></path>
                    <path d="M108.243022,87.4987172 C104.263148,91.4676819 101.799539,96.9452123 101.799539,102.997434 C101.799539,109.049657 104.260574,114.534884 108.237873,118.498717 L123.791816,134 L123.799539,72 L108.243022,87.4987172 Z" id="Fill-33" fill="#81C481"></path>
                    <path d="M138.357872,87.5006414 C142.335635,91.4694418 144.799539,96.949311 144.799539,102.998717 C144.80468,109.053254 142.340784,114.535689 138.360446,118.501924 L122.804688,134 L122.799539,72 L138.357872,87.5006414 Z" id="Fill-35" fill="#3AAC59"></path>
                    <path d="M283.243023,87.4987172 C279.265724,91.4676819 276.799539,96.9452123 276.799539,102.997434 C276.796967,109.049657 279.260575,114.534884 283.237874,118.498717 L298.794391,134 L298.799539,72 L283.243023,87.4987172 Z" id="Fill-37" fill="#81C481"></path>
                    <path d="M314.357872,87.5006414 C318.33821,91.4694418 320.799539,96.949311 320.799539,102.998717 C320.80468,109.053254 318.343359,114.535689 314.360446,118.501924 L298.807263,134 L298.799539,72 L314.357872,87.5006414 Z" id="Fill-39" fill="#3AAC59"></path>
                    <path d="M77.300822,157.443484 C73.3318573,153.466185 67.8543269,151 61.8021048,151 C55.7498826,150.997428 50.2646554,153.461036 46.300822,157.438335 L30.7995392,172.994851 L92.7995392,173 L77.300822,157.443484 Z" id="Fill-41" fill="#81C481"></path>
                    <path d="M77.300822,187.558333 C73.3318573,191.53867 67.8517613,194 61.8021048,194 C55.747317,194.005141 50.2646554,191.54382 46.2982564,187.560907 L30.7995392,172.007724 L92.7995392,172 L77.300822,187.558333 Z" id="Fill-43" fill="#3AAC59"></path>
                    <path d="M375.300822,157.443484 C371.331857,153.466185 365.854327,151 359.802105,151 C353.749883,150.997428 348.267221,153.461036 344.303388,157.438335 L328.799539,172.994851 L390.799539,173 L375.300822,157.443484 Z" id="Fill-45" fill="#81C481"></path>
                    <path d="M375.298898,187.558333 C371.330097,191.53867 365.852794,194 359.800822,194 C353.74885,194.005141 348.266415,191.54382 344.297615,187.560907 L328.799539,172.007724 L390.799539,172 L375.298898,187.558333 Z" id="Fill-47" fill="#3AAC59"></path>
                    <path d="M376.556082,231.23838 C374.385383,229.085336 371.537285,228 368.674078,228 L54.9250001,228 C52.0869751,228 49.236359,229.085336 47.0480327,231.23838 C44.8949614,233.416605 43.7995392,236.254594 43.7995392,239.11021 L43.7995392,433 L379.799539,433 L379.799539,239.11021 C379.799539,236.254594 378.724263,233.416605 376.556082,231.23838" id="Fill-49" fill="#242D3C"></path>
                    <path d="M216.799539,237.5 C216.799539,239.985829 214.785368,242 212.299539,242 C209.806491,242 207.799539,239.985829 207.799539,237.5 C207.799539,235.009358 209.806491,233 212.299539,233 C214.785368,233 216.799539,235.009358 216.799539,237.5" id="Fill-51" fill="#3E4959"></path>
                    <path d="M211.799539,238.502804 C211.799539,239.330841 211.127479,240 210.298606,240 C209.479066,240 208.799539,239.330841 208.799539,238.502804 C208.799539,237.674766 209.479066,237 210.298606,237 C211.127479,237 211.799539,237.674766 211.799539,238.502804" id="Fill-53" fill="#FFFFFF"></path>
                    <polygon id="Fill-55" fill="#FFFFFF" points="60.7995392 434 362.799539 434 362.799539 246 60.7995392 246"></polygon>
                    <path d="M0.799539171,442 C16.9209334,449.078935 34.7585492,453 53.5160194,453 L367.090619,453 C385.845569,453 403.663024,449.078935 419.799539,442 L0.799539171,442 Z" id="Fill-57" fill="#CCCBCA"></path>
                    <polygon id="Fill-58" fill="#E6E5E5" points="0.799539171 440 419.799539 440 419.799539 434 0.799539171 434"></polygon>
                    <path d="M109.93332,335.723726 C106.747466,335.723726 104.150637,333.17407 104.150637,330.043002 C104.150637,326.909417 106.747466,324.359761 109.93332,324.359761 C113.124295,324.359761 115.716003,326.909417 115.716003,330.043002 C115.716003,333.17407 113.124295,335.723726 109.93332,335.723726 M120.0671,330.043002 C120.0671,328.072241 119.465271,326.242429 118.453686,324.694514 L141.164417,302.379361 C141.574173,301.976651 141.799539,301.432993 141.799539,300.864166 L141.799539,246 L137.448442,246 L137.448442,299.978204 L115.377954,321.671674 C113.802954,320.677484 111.941125,320.083487 109.93332,320.083487 C104.345271,320.083487 99.7995392,324.553565 99.7995392,330.043002 C99.7995392,335.534956 104.345271,340 109.93332,340 C115.52649,340 120.0671,335.534956 120.0671,330.043002" id="Fill-60" fill="#242D3C"></path>
                    <path d="M119.963736,374.689134 C116.76832,374.689134 114.163696,372.116315 114.163696,368.957381 C114.163696,365.800984 116.76832,363.230703 119.963736,363.230703 C123.159152,363.230703 125.763775,365.800984 125.763775,368.957381 C125.763775,372.116315 123.159152,374.689134 119.963736,374.689134 M146.408115,345.002766 L146.408115,317.404594 L161.157374,302.837976 C161.56836,302.429471 161.799539,301.883952 161.799539,301.310523 L161.799539,246 L157.435382,246 L157.435382,300.417395 L142.680986,314.984013 C142.27,315.389981 142.043957,315.938037 142.043957,316.508928 L142.043957,344.107101 L125.422143,360.518333 C123.842416,359.518639 121.977567,358.919837 119.963736,358.919837 C114.358915,358.919837 109.799539,363.423538 109.799539,368.957381 C109.799539,374.496299 114.358915,379 119.963736,379 C125.568557,379 130.127933,374.496299 130.127933,368.957381 C130.127933,366.973215 129.521728,365.128601 128.509676,363.570701 L145.765949,346.527681 C146.176935,346.121714 146.408115,345.573658 146.408115,345.002766" id="Fill-61" fill="#242D3C"></path>
                    <path d="M156.618398,406.699328 C153.526586,406.699328 151.01542,404.135125 151.01542,400.986193 C151.01542,397.834729 153.526586,395.267995 156.618398,395.267995 C159.705246,395.267995 162.216413,397.834729 162.216413,400.986193 C162.216413,404.135125 159.705246,406.699328 156.618398,406.699328 M158.727579,391.21539 L158.727579,325.611791 L181.184155,302.6985 C181.583658,302.296024 181.799539,301.749264 181.799539,301.177191 L181.799539,246 L177.583658,246 L177.583658,300.286175 L155.124601,323.199466 C154.727579,323.601942 154.509217,324.148702 154.509217,324.718244 L154.509217,391.21539 C150.10475,392.202596 146.799539,396.204575 146.799539,400.986193 C146.799539,406.509481 151.199043,411 156.618398,411 C162.03279,411 166.432294,406.509481 166.432294,400.986193 C166.432294,396.204575 163.127083,392.202596 158.727579,391.21539" id="Fill-62" fill="#242D3C"></path>
                    <path d="M172.908948,350.722084 C169.727255,350.722084 167.13798,348.173966 167.13798,345.041696 C167.13798,341.904389 169.727255,339.351236 172.908948,339.351236 C176.085534,339.351236 178.669702,341.904389 178.669702,345.041696 C178.669702,348.173966 176.085534,350.722084 172.908948,350.722084 L172.908948,350.722084 Z M197.461099,299.998937 L187.97475,309.357981 C187.566186,309.758328 187.336369,310.302195 187.336369,310.87124 L187.336369,327.783992 L178.33519,336.662116 C176.764772,335.667544 174.908359,335.073319 172.908948,335.073319 C167.332048,335.073319 162.799539,339.545114 162.799539,345.041696 C162.799539,350.533241 167.332048,355 172.908948,355 C178.480741,355 183.008143,350.533241 183.008143,345.041696 C183.008143,343.070178 182.410618,341.239663 181.401975,339.691153 L191.044088,330.181035 C191.452653,329.780688 191.677363,329.236821 191.677363,328.667775 L191.677363,311.757542 L201.166265,302.401016 C201.577382,301.998152 201.799539,301.456803 201.799539,300.887757 L201.799539,246 L197.461099,246 L197.461099,299.998937 Z" id="Fill-63" fill="#242D3C"></path>
                    <path d="M311.665759,335.723726 C308.474783,335.723726 305.883076,333.17407 305.883076,330.043002 C305.883076,328.479985 306.528442,327.060433 307.57332,326.031007 C307.575881,326.02849 307.581003,326.025973 307.583564,326.023456 C307.586125,326.023456 307.586125,326.020939 307.588686,326.020939 C308.633564,324.994029 310.075393,324.359761 311.665759,324.359761 C314.851612,324.359761 317.448442,326.909417 317.448442,330.043002 C317.448442,333.17407 314.851612,335.723726 311.665759,335.723726 M311.665759,320.083487 C309.660515,320.083487 307.798686,320.674967 306.223686,321.669157 L284.150637,299.978204 L284.150637,246 L279.799539,246 L279.799539,300.864166 C279.799539,301.432993 280.027466,301.976651 280.439783,302.379361 L303.145393,324.691997 C302.133807,326.242429 301.531978,328.072241 301.531978,330.043002 C301.531978,335.534956 306.072588,340 311.665759,340 C317.253807,340 321.799539,335.534956 321.799539,330.043002 C321.799539,324.553565 317.253807,320.083487 311.665759,320.083487" id="Fill-64" fill="#242D3C"></path>
                    <path d="M302.634338,374.689134 C299.438606,374.689134 296.833726,372.116315 296.833726,368.957381 C296.833726,365.800984 299.438606,363.230703 302.634338,363.230703 C305.83007,363.230703 308.434951,365.800984 308.434951,368.957381 C308.434951,372.116315 305.83007,374.689134 302.634338,374.689134 M302.634338,358.919837 C300.622877,358.919837 298.752706,359.518639 297.172822,360.520871 L280.557073,344.107101 L280.557073,316.508928 C280.557073,315.938037 280.325871,315.389981 279.914844,314.984013 L265.164128,300.417395 L265.164128,246 L260.799539,246 L260.799539,301.310523 C260.799539,301.883952 261.025604,302.429471 261.43663,302.837976 L276.192485,317.404594 L276.192485,345.002766 C276.192485,345.573658 276.418549,346.121714 276.829576,346.527681 L294.087554,363.570701 C293.072832,365.128601 292.469137,366.973215 292.469137,368.957381 C292.469137,374.496299 297.028963,379 302.634338,379 C308.239713,379 312.799539,374.496299 312.799539,368.957381 C312.799539,363.423538 308.239713,358.919837 302.634338,358.919837" id="Fill-65" fill="#242D3C"></path>
                    <path d="M264.978503,406.699328 C261.892529,406.699328 259.382075,404.135125 259.382075,400.986193 C259.382075,397.834729 261.892529,395.267995 264.978503,395.267995 C268.069438,395.267995 270.584854,397.834729 270.584854,400.986193 C270.584854,404.135125 268.069438,406.699328 264.978503,406.699328 M267.087086,391.212859 L267.087086,324.718244 C267.087086,324.148702 266.868786,323.601942 266.471876,323.196935 L244.014225,300.286175 L244.014225,246 L239.799539,246 L239.799539,301.177191 C239.799539,301.749264 240.015359,302.296024 240.414749,302.701031 L262.86992,325.611791 L262.86992,391.21539 C258.471663,392.202596 255.167389,396.204575 255.167389,400.986193 C255.167389,406.509481 259.565646,411 264.978503,411 C270.396321,411 274.799539,406.509481 274.799539,400.986193 C274.799539,396.202043 271.490304,392.200064 267.087086,391.212859" id="Fill-66" fill="#242D3C"></path>
                    <path d="M248.689468,350.722084 C245.512674,350.722084 242.92323,348.173966 242.92323,345.041696 C242.92323,343.478078 243.569314,342.057981 244.608667,341.028159 C244.608667,341.025641 244.611221,341.025641 244.613774,341.023123 C244.616328,341.020605 244.616328,341.018087 244.618882,341.018087 C245.660789,339.988265 247.103625,339.351236 248.689468,339.351236 C251.87137,339.351236 254.460815,341.904389 254.460815,345.041696 C254.460815,348.173966 251.87137,350.722084 248.689468,350.722084 M248.689468,335.073319 C246.689927,335.073319 244.833392,335.667544 243.262871,336.659598 L234.261103,327.783992 L234.261103,310.87124 C234.261103,310.302195 234.036378,309.758328 233.627787,309.357981 L224.140817,300.001455 L224.140817,246 L219.799539,246 L219.799539,300.887757 C219.799539,301.456803 220.024264,301.998152 220.435409,302.401016 L229.919825,311.755024 L229.919825,328.667775 C229.919825,329.236821 230.149657,329.780688 230.553141,330.181035 L240.193332,339.688635 C239.187177,341.237145 238.584505,343.06766 238.584505,345.041696 C238.584505,350.533241 243.11731,355 248.689468,355 C254.266734,355 258.799539,350.533241 258.799539,345.041696 C258.799539,339.545114 254.266734,335.073319 248.689468,335.073319" id="Fill-67" fill="#242D3C"></path>
                </g>
            </g>
        </g>
    </g>
</svg>