<?xml version="1.0" encoding="UTF-8"?>
<svg width="338px" height="410px" viewBox="0 0 338 410" version="1.1" xmlns="http://www.w3.org/2000/svg" xmlns:xlink="http://www.w3.org/1999/xlink">
    <!-- Generator: Sketch 55.2 (78181) - https://sketchapp.com -->
    <title>paper</title>
    <desc>Created with Sketch.</desc>
    <g id="Landing-Page" stroke="none" stroke-width="1" fill="none" fill-rule="evenodd">
        <g id="WhitePage_Landing" transform="translate(-225.000000, -2148.000000)">
            <g id="footer" transform="translate(225.000000, 2148.000000)">
                <g id="paper">
                    <polygon id="Fill-1" fill="#417BE6" points="32 410 338 410 338 29 32 29"></polygon>
                    <g id="Group-32">
                        <polygon id="Fill-1" fill="#FFFFFF" points="0 382.017949 306 382.017949 306 1.03809225 0 1.03809225"></polygon>
                        <polygon id="Fill-2" fill="#3AAC59" points="0 29.0665831 306 29.0665831 306 0 0 0"></polygon>
                        <g id="Group-31" transform="translate(0.000000, 44.637967)">
                            <polygon id="Fill-20" fill="#D2F1D1" points="32.1755118 207.329306 146.618236 207.329306 146.618236 96.3293058 32.1755118 96.3293058"></polygon>
                            <polygon id="Fill-21" fill="#D2F1D1" points="159.145544 207.329306 273.567232 207.329306 273.567232 96.3293058 159.145544 96.3293058"></polygon>
                            <polygon id="Fill-22" fill="#3AAC59" points="0 337.379982 305.756768 337.379982 305.756768 291.73104 0 291.73104"></polygon>
                            <polygon id="Fill-23" fill="#3AAC59" points="162.585032 6.5782258 273.567232 6.5782258 273.567232 0.633751798 162.585032 0.633751798"></polygon>
                            <polygon id="Fill-24" fill="#3AAC59" points="162.585032 22.4138287 273.567232 22.4138287 273.567232 16.4693547 162.585032 16.4693547"></polygon>
                            <polygon id="Fill-25" fill="#3AAC59" points="162.585032 38.2564292 199.052014 38.2564292 199.052014 32.3119552 162.585032 32.3119552"></polygon>
                            <polygon id="Fill-26" fill="#3AAC59" points="32.1755118 236.666807 273.567232 236.666807 273.567232 230.722333 32.1755118 230.722333"></polygon>
                            <polygon id="Fill-27" fill="#3AAC59" points="32.1755118 252.491913 273.567232 252.491913 273.567232 246.547439 32.1755118 246.547439"></polygon>
                            <polygon id="Fill-28" fill="#3AAC59" points="32.1790179 268.341512 111.52214 268.341512 111.52214 262.397038 32.1790179 262.397038"></polygon>
                            <polygon id="Fill-29" fill="#FFFFFF" points="21.4187863 311.873675 98.0516905 311.873675 98.0516905 305.929201 21.4187863 305.929201"></polygon>
                            <polygon id="Fill-30" fill="#FFFFFF" points="21.4152802 323.178322 46.6031278 323.178322 46.6031278 317.233848 21.4152802 317.233848"></polygon>
                        </g>
                        <path d="M73.8180795,66.1092668 C76.6240212,58.1520814 82.7343127,53.4799945 92.1393692,52.0978055 C101.549218,50.7180161 115.24346,56.7290986 133.22449,70.1310529 C120.781061,84.0921219 107.920695,91.1638424 94.6529754,91.3486142 C79.9115977,91.5525831 73.3052943,82.8035186 71.7645424,77.6659028 C71.6806756,77.3923445 63.8115787,77.2819614 55.5255442,78.6089588 C45.7179273,80.1783193 34.9757953,83.5498047 35.3999214,83.3674325 C58.6549719,73.5193357 93.0259605,67.9497859 106.923878,67.5994393 C108.629968,67.5586456 110.266567,67.3522771 109.79931,67.2874869 C97.1929397,65.5885463 85.199995,65.197406 73.8180795,66.1092668" id="Fill-1" fill="#3AAC59"></path>
                    </g>
                </g>
            </g>
        </g>
    </g>
</svg>