<?xml version="1.0" encoding="UTF-8"?>
<svg width="407px" height="425px" viewBox="0 0 407 425" version="1.1" xmlns="http://www.w3.org/2000/svg" xmlns:xlink="http://www.w3.org/1999/xlink">
    <!-- Generator: Sketch 55.2 (78181) - https://sketchapp.com -->
    <title>vision</title>
    <desc>Created with Sketch.</desc>
    <defs>
        <polygon id="path-1" points="0 0.796133333 19.5689667 0.796133333 19.5689667 20.3634667 0 20.3634667"></polygon>
        <polygon id="path-3" points="0.106463462 0.336692308 28.1673096 0.336692308 28.1673096 29.3641846 0.106463462 29.3641846"></polygon>
    </defs>
    <g id="Landing-Page" stroke="none" stroke-width="1" fill="none" fill-rule="evenodd">
        <g id="WhitePage_Landing" transform="translate(-228.000000, -881.000000)">
            <g id="vision" transform="translate(228.000000, 881.000000)">
                <g>
                    <path d="M177,86 C177,90.4184752 173.417977,94 168.998887,94 C164.582023,94 161,90.4184752 161,86 C161,81.5837507 164.582023,78 168.998887,78 C173.417977,78 177,81.5837507 177,86" id="Fill-1" fill="#3AAC59"></path>
                    <g id="Group-5" transform="translate(0.000000, 164.000000)">
                        <mask id="mask-2" fill="white">
                            <use xlink:href="#path-1"></use>
                        </mask>
                        <g id="Clip-4"></g>
                        <path d="M19.5689667,10.5798 C19.5689667,15.9814667 15.1846333,20.3634667 9.7853,20.3634667 C4.38363333,20.3634667 -0.0007,15.9814667 -0.0007,10.5798 C-0.0007,5.1758 4.38363333,0.796133333 9.7853,0.796133333 C15.1846333,0.796133333 19.5689667,5.1758 19.5689667,10.5798" id="Fill-3" fill="#242D3C" mask="url(#mask-2)"></path>
                    </g>
                    <path d="M79,208.5 C79,212.088868 76.0894083,215 72.5012057,215 C68.9105917,215 66,212.088868 66,208.5 C66,204.90872 68.9105917,202 72.5012057,202 C76.0894083,202 79,204.90872 79,208.5" id="Fill-6" fill="#E6E5E5"></path>
                    <g id="Group-10" transform="translate(182.000000, 0.000000)">
                        <mask id="mask-4" fill="white">
                            <use xlink:href="#path-3"></use>
                        </mask>
                        <g id="Clip-9"></g>
                        <path d="M28.1673096,14.8499538 C28.1673096,22.8654923 21.8805558,29.3641846 14.1368865,29.3641846 C6.390875,29.3641846 0.106463462,22.8654923 0.106463462,14.8499538 C0.106463462,6.83683846 6.390875,0.335723077 14.1368865,0.335723077 C21.8805558,0.335723077 28.1673096,6.83683846 28.1673096,14.8499538" id="Fill-8" fill="#E6E5E5" mask="url(#mask-4)"></path>
                    </g>
                    <path d="M407,222.5 C407,232.715744 398.713368,241 388.5,241 C378.277129,241 370,232.715744 370,222.5 C370,212.286632 378.277129,204 388.5,204 C398.713368,204 407,212.286632 407,222.5" id="Fill-11" fill="#3AAC59"></path>
                    <path d="M174.997663,231.999416 C155.668781,231.999416 140.002337,216.330373 140.002337,196.998831 C140.002337,177.66729 155.668781,161.998247 174.997663,161.998247 C194.328881,161.998247 210.002337,177.66729 210.002337,196.998831 C210.002337,216.330373 194.328881,231.999416 174.997663,231.999416 M174.997663,127 C136.337563,127 105,158.335749 105,196.998831 C105,235.661914 136.337563,267 174.997663,267 C213.662437,267 245,235.661914 245,196.998831 C245,158.335749 213.662437,127 174.997663,127" id="Fill-13" fill="#417BE6"></path>
                    <path d="M403,367.5 C403,399.259791 377.256127,425.002361 345.5,425 C313.741512,425.002361 288,399.259791 288,367.5 C287.997639,335.742569 313.741512,309.997639 345.5,310 C377.256127,309.997639 403,335.742569 403,367.5" id="Fill-15" fill="#E6E5E5"></path>
                    <path d="M112,297 C112,316.882125 95.881604,333 76.0011633,333 C56.1160694,333 40,316.882125 40,297 C40,277.117875 56.1160694,261 76.0011633,261 C95.881604,261 112,277.117875 112,297" id="Fill-17" fill="#417BE6"></path>
                    <path d="M351,67.0011739 C351,91.8518325 330.856003,112 306.002348,112 C281.148693,112 261,91.8518325 261,67.0011739 C261,42.1481675 281.148693,22 306,22 C330.853655,22 351,42.1481675 351,67.0011739" id="Fill-19" fill="#242D3C"></path>
                    <path d="M108,108 C108,120.150204 98.1502036,130 86,130 C73.8474395,130 64,120.150204 64,108 C64,95.8497964 73.8474395,86 86,86 C98.1478466,86 108,95.8497964 108,108" id="Fill-21" fill="#E6E5E5"></path>
                    <path d="M301,198 C301,206.284519 294.510702,213 286.502333,213 C278.491632,213 272,206.284519 272,198 C272,189.715481 278.491632,183 286.502333,183 C294.510702,183 301,189.715481 301,198" id="Fill-23" fill="#242D3C"></path>
                    <path d="M205,367.5 C205,377.165711 197.167,385 187.502333,385 C177.833,385 170,377.165711 170,367.5 C170,357.834289 177.833,350 187.502333,350 C197.167,350 205,357.834289 205,367.5" id="Fill-25" fill="#3AAC59"></path>
                    <path d="M107.999499,133 C107.197226,133 106.443089,132.687305 105.878824,132.120713 C104.707505,130.952784 104.707505,129.047216 105.876149,127.876615 C106.443089,127.312695 107.197226,127 107.996824,127 C108.799098,127 109.553234,127.315367 110.120174,127.879287 C110.687114,128.44588 111,129.199555 111,130.001336 C111,130.803118 110.687114,131.55412 110.120174,132.120713 C109.555908,132.687305 108.801772,133 107.999499,133" id="Fill-27" fill="#242D3C"></path>
                    <path d="M113.999005,139 C113.199097,139 112.444668,138.687166 111.877509,138.120321 C111.310349,137.553476 110.997342,136.799465 111,136 C111,135.197861 111.313025,134.44385 111.880184,133.877005 C112.444668,133.312834 113.199097,133 114.001681,133 C114.801589,133 115.556018,133.312834 116.123177,133.877005 C117.292274,135.048128 117.292274,136.951872 116.123177,138.120321 C115.556018,138.687166 114.798914,139 113.999005,139" id="Fill-29" fill="#242D3C"></path>
                    <path d="M119,145 C118.200178,145 117.445831,144.687166 116.878734,144.120321 C115.707089,142.951872 115.707089,141.048128 116.878734,139.877005 C117.445831,139.312834 118.200178,139 119,139 C119.802497,139 120.556844,139.312834 121.121266,139.877005 C122.292911,141.048128 122.292911,142.951872 121.121266,144.120321 C120.554169,144.687166 119.799822,145 119,145" id="Fill-31" fill="#242D3C"></path>
                    <path d="M254.002671,201 C252.349065,201 251.002671,199.655679 251,198.001336 C251,196.346993 252.346394,195 254.002671,195 C255.653606,195 256.997329,196.346993 257,197.998664 C256.997329,199.655679 255.653606,201 254.002671,201" id="Fill-33" fill="#242D3C"></path>
                    <path d="M262.001335,201 C261.200267,201 260.444593,200.687166 259.875834,200.117647 C259.309746,199.550802 259,198.799465 259,198 C259,196.347594 260.345794,195 261.998665,195 C263.654206,195 265,196.34492 265,198 C264.99733,199.65508 263.651535,201 262.001335,201" id="Fill-35" fill="#242D3C"></path>
                    <path d="M107.998664,269 C107.196882,269 106.443207,268.687305 105.879287,268.120713 C105.312695,267.55412 105,266.803118 105,266.001336 C105,265.202227 105.312695,264.448552 105.876615,263.88196 C106.44588,263.315367 107.199555,263 107.998664,263 C108.800445,263 109.55412,263.315367 110.120713,263.879287 C110.687305,264.44588 111,265.199555 111,265.998664 C111,266.800445 110.687305,267.55412 110.11804,268.123385 C109.551448,268.687305 108.797773,269 107.998664,269" id="Fill-37" fill="#242D3C"></path>
                    <path d="M113.998495,263 C113.19845,263 112.443893,262.687166 111.876638,262.122995 C110.707342,260.951872 110.707342,259.048128 111.879313,257.874332 C112.443893,257.31016 113.195775,257 113.998495,257 C114.801215,257 115.555772,257.312834 116.123028,257.877005 C117.292324,259.048128 117.292324,260.951872 116.123028,262.120321 C115.555772,262.687166 114.801215,263 113.998495,263" id="Fill-39" fill="#242D3C"></path>
                    <path d="M118.995489,257 C118.193574,257 117.439773,256.687305 116.875759,256.123385 C115.707635,254.955457 115.707635,253.049889 116.878432,251.879287 C117.445119,251.312695 118.19892,251 119.000835,251 C119.802751,251 120.553879,251.312695 121.120566,251.876615 C121.687253,252.443207 122,253.196882 122,253.998664 C122,254.800445 121.68458,255.551448 121.117893,256.120713 C120.551206,256.687305 119.797405,257 118.995489,257" id="Fill-41" fill="#242D3C"></path>
                    <path d="M268.000501,108 C267.198228,108 266.444092,107.687166 265.879826,107.120321 C265.312886,106.553476 265,105.802139 265,105 C265,104.197861 265.312886,103.44385 265.879826,102.877005 C266.444092,102.312834 267.200902,102 268.000501,102 C268.802774,102 269.556911,102.312834 270.123851,102.877005 C271.292495,104.045455 271.292495,105.951872 270.121176,107.120321 C269.556911,107.687166 268.802774,108 268.000501,108" id="Fill-43" fill="#242D3C"></path>
                    <path d="M261.998328,114 C261.198417,114 260.443986,113.687166 259.876825,113.120321 C258.707725,111.949198 258.707725,110.048128 259.876825,108.877005 C260.441311,108.312834 261.195742,108 261.998328,108 C262.798239,108 263.555345,108.312834 264.119831,108.879679 C264.686991,109.446524 265,110.200535 265,111 C265,111.802139 264.686991,112.553476 264.119831,113.120321 C263.55267,113.687166 262.798239,114 261.998328,114" id="Fill-45" fill="#242D3C"></path>
                    <path d="M255,120 C254.200178,120 253.445831,119.687166 252.878734,119.120321 C251.707089,117.951872 251.707089,116.048128 252.878734,114.877005 C253.443156,114.312834 254.197503,114 255,114 C255.802497,114 256.556844,114.312834 257.121266,114.877005 C258.292911,116.048128 258.292911,117.951872 257.121266,119.120321 C256.554169,119.687166 255.799822,120 255,120" id="Fill-47" fill="#242D3C"></path>
                    <path d="M249.001003,125 C248.201003,125 247.443813,124.687166 246.876589,124.120321 C245.707358,122.951872 245.707358,121.048128 246.879264,119.877005 C247.443813,119.312834 248.198328,119 249.001003,119 C249.803679,119 250.558194,119.312834 251.122742,119.877005 C252.291973,121.048128 252.291973,122.951872 251.125418,124.120321 C250.558194,124.687166 249.801003,125 249.001003,125" id="Fill-49" fill="#242D3C"></path>
                    <path d="M243.002342,133 C242.199398,133 241.44463,132.687166 240.877216,132.120321 C239.707595,130.949198 239.707595,129.048128 240.877216,127.877005 C241.441954,127.312834 242.199398,127 243.002342,127 C243.805286,127 244.557377,127.312834 245.124791,127.877005 C246.291736,129.045455 246.291736,130.949198 245.124791,132.122995 C244.557377,132.687166 243.805286,133 243.002342,133" id="Fill-51" fill="#242D3C"></path>
                    <path d="M236.996992,139 C236.194763,139 235.440669,138.687305 234.876435,138.120713 C233.707855,136.952784 233.707855,135.049889 234.876435,133.879287 C235.443343,133.312695 236.197437,133 236.999666,133 C237.79922,133 238.553315,133.312695 239.120223,133.876615 C239.687131,134.44588 240,135.199555 240,135.998664 C240,136.800445 239.687131,137.55412 239.120223,138.120713 C238.553315,138.687305 237.796546,139 236.996992,139" id="Fill-53" fill="#242D3C"></path>
                    <path d="M231.998664,145 C231.196882,145 230.443207,144.687166 229.879287,144.122995 C229.312695,143.55615 229,142.802139 229,142 C229,141.197861 229.312695,140.44385 229.879287,139.877005 C230.44588,139.312834 231.199555,139 232.001336,139 C232.803118,139 233.556793,139.312834 234.120713,139.877005 C234.687305,140.44385 235,141.197861 235,141.997326 C235,142.799465 234.687305,143.553476 234.120713,144.120321 C233.55412,144.687166 232.800445,145 231.998664,145" id="Fill-55" fill="#242D3C"></path>
                    <path d="M231.999499,257 C231.197226,257 230.443089,256.687305 229.878824,256.120713 C228.707505,254.952784 228.707505,253.047216 229.876149,251.876615 C230.443089,251.312695 231.197226,251 231.996824,251 C232.799098,251 233.553234,251.315367 234.120174,251.879287 C234.687114,252.44588 235,253.199555 235,254.001336 C235,254.803118 234.687114,255.55412 234.120174,256.120713 C233.555908,256.687305 232.801772,257 231.999499,257" id="Fill-57" fill="#242D3C"></path>
                    <path d="M236.999005,263 C236.199097,263 235.444668,262.687166 234.877509,262.120321 C234.310349,261.553476 233.997342,260.799465 234,260 C234,259.197861 234.313025,258.44385 234.880184,257.877005 C235.444668,257.312834 236.199097,257 237.001681,257 C237.801589,257 238.556018,257.312834 239.123177,257.877005 C240.292274,259.048128 240.292274,260.951872 239.123177,262.120321 C238.556018,262.687166 237.798914,263 236.999005,263" id="Fill-59" fill="#242D3C"></path>
                    <path d="M243.000669,269 C242.201025,269 241.446846,268.687166 240.879875,268.120321 C240.312904,267.553476 240,266.802139 240,266 C240,265.197861 240.312904,264.44385 240.879875,263.877005 C241.446846,263.312834 242.201025,263 243.000669,263 C243.802986,263 244.557165,263.312834 245.121462,263.877005 C246.292846,265.048128 246.292846,266.951872 245.121462,268.120321 C244.554491,268.687166 243.800312,269 243.000669,269" id="Fill-61" fill="#242D3C"></path>
                    <path d="M249.000669,275 C248.198351,275 247.444172,274.687305 246.877201,274.120713 C246.312904,273.55412 246,272.800445 246,271.998664 C246,271.199555 246.312904,270.44588 246.877201,269.879287 C247.444172,269.312695 248.201025,269 249.000669,269 C249.800312,269 250.554491,269.312695 251.121462,269.876615 C252.292846,271.047216 252.292846,272.952784 251.121462,274.120713 C250.557165,274.687305 249.802986,275 249.000669,275" id="Fill-63" fill="#242D3C"></path>
                    <path d="M255.001002,280 C254.198595,280 253.447007,279.687166 252.879973,279.122995 C252.312939,278.553476 252,277.799465 252,277 C252,276.200535 252.312939,275.446524 252.879973,274.877005 C253.444333,274.312834 254.198595,274 255.001002,274 C255.80341,274 256.557672,274.312834 257.124706,274.877005 C258.293546,276.048128 258.290871,277.951872 257.122032,279.120321 C256.554997,279.687166 255.800735,280 255.001002,280" id="Fill-65" fill="#242D3C"></path>
                    <path d="M262.000836,286 C261.198294,286 260.443906,285.687166 259.876776,285.120321 C258.707741,283.951872 258.707741,282.048128 259.876776,280.877005 C260.44123,280.312834 261.195619,280 261.998161,280 C262.800702,280 263.557766,280.312834 264.12222,280.877005 C265.29393,282.048128 265.291255,283.951872 264.12222,285.122995 C263.557766,285.687166 262.803377,286 262.000836,286" id="Fill-67" fill="#242D3C"></path>
                    <path d="M267.999666,294 C267.200111,294 266.443343,293.687305 265.876435,293.120713 C264.707855,291.950111 264.707855,290.047216 265.876435,288.879287 C266.440669,288.312695 267.194763,288 267.996992,288 C268.79922,288 269.553315,288.315367 270.120223,288.879287 C270.687131,289.44588 271,290.199555 271,291.001336 C271,291.803118 270.687131,292.55412 270.120223,293.123385 C269.555989,293.687305 268.801894,294 267.999666,294" id="Fill-69" fill="#242D3C"></path>
                    <path d="M274.001664,300 C273.199259,300 272.442324,299.687305 271.877966,299.120713 C270.709129,297.950111 270.706455,296.047216 271.875291,294.876615 C272.442324,294.312695 273.196584,294 273.996314,294 C274.798719,294 275.55298,294.315367 276.120012,294.879287 C276.687045,295.448552 277,296.202227 277,297.001336 C277.002658,297.803118 276.68972,298.55412 276.122687,299.123385 C275.555654,299.687305 274.804069,300 274.001664,300" id="Fill-71" fill="#242D3C"></path>
                    <path d="M279.999666,306 C279.197437,306 278.443343,305.687166 277.876435,305.120321 C276.707855,303.951872 276.707855,302.048128 277.876435,300.877005 C278.443343,300.312834 279.200111,300 279.999666,300 C280.79922,300 281.553315,300.312834 282.120223,300.877005 C282.687131,301.44385 283,302.200535 283,303 C283,303.802139 282.687131,304.553476 282.120223,305.122995 C281.553315,305.687166 280.79922,306 279.999666,306" id="Fill-73" fill="#242D3C"></path>
                    <path d="M285.999331,311 C285.197014,311 284.442835,310.68984 283.878538,310.122995 C282.707154,308.951872 282.707154,307.048128 283.878538,305.877005 C284.442835,305.312834 285.197014,305 285.999331,305 C286.798975,305 287.555828,305.312834 288.122799,305.879679 C288.687096,306.446524 289,307.200535 289,308 C289,308.802139 288.687096,309.55615 288.120125,310.122995 C287.555828,310.687166 286.801649,311 285.999331,311" id="Fill-75" fill="#242D3C"></path>
                    <path d="M291.998998,317 C291.19659,317 290.442328,316.687166 289.875294,316.120321 C288.706454,314.951872 288.709129,313.048128 289.877968,311.879679 C290.445003,311.312834 291.199265,311 292.001672,311 C292.801405,311 293.555667,311.312834 294.120027,311.877005 C294.687061,312.44385 295,313.200535 295,314 C295,314.799465 294.687061,315.553476 294.120027,316.120321 C293.555667,316.687166 292.801405,317 291.998998,317" id="Fill-77" fill="#242D3C"></path>
                    <path d="M298.000501,323 C297.200902,323 296.446766,322.687166 295.879826,322.120321 C295.312886,321.553476 295,320.802139 295,320 C295,319.197861 295.312886,318.44385 295.879826,317.877005 C296.446766,317.312834 297.200902,317 298.000501,317 C298.802774,317 299.556911,317.312834 300.123851,317.877005 C301.292495,319.048128 301.292495,320.951872 300.121176,322.120321 C299.554237,322.687166 298.8001,323 298.000501,323" id="Fill-79" fill="#242D3C"></path>
                </g>
            </g>
        </g>
    </g>
</svg>