<svg width="36" height="33" viewBox="0 0 36 33" fill="none" xmlns="http://www.w3.org/2000/svg">
<path fill-rule="evenodd" clip-rule="evenodd" d="M32.1428 13.2363C32.1428 9.16614 28.3764 5.89285 23.7635 5.89285C21.5806 5.89285 19.5334 6.63067 18 7.90483C16.4666 6.63067 14.4194 5.89285 12.2364 5.89285C7.62354 5.89285 3.85712 9.16614 3.85712 13.2363C3.85712 16.6782 6.42975 20.1753 10.6595 23.6283C13.4078 25.8719 17.2307 28.2796 18 28.2857C18.7612 28.2857 22.5849 25.8777 25.3396 23.629C29.5698 20.1758 32.1428 16.6784 32.1428 13.2363ZM19.3438 24.9348C20.7886 24.025 22.2646 22.9828 23.6294 21.8687C27.3571 18.8257 29.5714 15.816 29.5714 13.2363C29.5714 10.4969 26.986 8.25 23.7635 8.25C21.8532 8.25 20.1062 9.04602 19.0245 10.3537C18.51 10.9757 17.49 10.9757 16.9755 10.3537C15.8937 9.04602 14.1467 8.25 12.2364 8.25C9.01394 8.25 6.42855 10.4969 6.42855 13.2363C6.42855 15.8158 8.64249 18.8253 12.3697 21.8681C13.7344 22.9822 15.2104 24.0243 16.6552 24.9343C17.1491 25.2453 17.6107 25.5223 18 25.7446C18.389 25.5225 18.8503 25.2456 19.3438 24.9348ZM18.2493 25.8908C18.2228 25.88 18.2174 25.884 18.2058 25.8926C18.188 25.9058 18.1556 25.9298 18.0112 25.9286L18 25.9286C17.8527 25.9286 17.8206 25.9029 17.803 25.8889C17.7911 25.8794 17.7859 25.8752 17.7562 25.8877C17.7311 25.8968 17.7967 25.8597 17.8806 25.8123L17.9197 25.7902L18 25.7446L18.0796 25.7899C18.1656 25.8386 18.2447 25.8826 18.3143 25.9207L18.2493 25.8908Z" fill="#FF0000"/>
<mask id="mask0" mask-type="alpha" maskUnits="userSpaceOnUse" x="3" y="5" width="30" height="24">
<path fill-rule="evenodd" clip-rule="evenodd" d="M32.1428 13.2363C32.1428 9.16614 28.3764 5.89285 23.7635 5.89285C21.5806 5.89285 19.5334 6.63067 18 7.90483C16.4666 6.63067 14.4194 5.89285 12.2364 5.89285C7.62354 5.89285 3.85712 9.16614 3.85712 13.2363C3.85712 16.6782 6.42975 20.1753 10.6595 23.6283C13.4078 25.8719 17.2307 28.2796 18 28.2857C18.7612 28.2857 22.5849 25.8777 25.3396 23.629C29.5698 20.1758 32.1428 16.6784 32.1428 13.2363ZM19.3438 24.9348C20.7886 24.025 22.2646 22.9828 23.6294 21.8687C27.3571 18.8257 29.5714 15.816 29.5714 13.2363C29.5714 10.4969 26.986 8.25 23.7635 8.25C21.8532 8.25 20.1062 9.04602 19.0245 10.3537C18.51 10.9757 17.49 10.9757 16.9755 10.3537C15.8937 9.04602 14.1467 8.25 12.2364 8.25C9.01394 8.25 6.42855 10.4969 6.42855 13.2363C6.42855 15.8158 8.64249 18.8253 12.3697 21.8681C13.7344 22.9822 15.2104 24.0243 16.6552 24.9343C17.1491 25.2453 17.6107 25.5223 18 25.7446C18.389 25.5225 18.8503 25.2456 19.3438 24.9348ZM18.2493 25.8908C18.2228 25.88 18.2174 25.884 18.2058 25.8926C18.188 25.9058 18.1556 25.9298 18.0112 25.9286L18 25.9286C17.8527 25.9286 17.8206 25.9029 17.803 25.8889C17.7911 25.8794 17.7859 25.8752 17.7562 25.8877C17.7311 25.8968 17.7967 25.8597 17.8806 25.8123L17.9197 25.7902L18 25.7446L18.0796 25.7899C18.1656 25.8386 18.2447 25.8826 18.3143 25.9207L18.2493 25.8908Z" fill="white"/>
</mask>
<g mask="url(#mask0)">
<rect width="36" height="33" fill="#CCCCCC"/>
</g>
</svg>
