<svg id="a46d0c02-ef9a-4bd4-bee2-b0ca1c257ad5" data-name="Layer 1" xmlns="http://www.w3.org/2000/svg" width="500" height="150" viewBox="0 0 500 150"><rect x="176.879" y="1.929" width="23.209" height="146.142" fill="#fff"/><path d="M325.594,22.742a69.689,69.689,0,0,0-23.929-15.3,85.759,85.759,0,0,0-31.047-5.516H218.356V148.071h52.262a86.594,86.594,0,0,0,31.046-5.45,69.476,69.476,0,0,0,23.929-15.175,67.031,67.031,0,0,0,15.386-23.109,77.988,77.988,0,0,0,5.436-29.23,77.907,77.907,0,0,0-5.436-29.172A67.633,67.633,0,0,0,325.594,22.742Zm-2.421,52.365c0,31.2-21.612,52.991-52.555,52.991H240.944V21.9h29.674C302.052,21.9,323.173,43.282,323.173,75.107Z" fill="#fff"/><path d="M479.415,104.224l-.128.167c-11.6,15.123-28.119,23.452-46.511,23.452-30.108,0-51.961-21.935-51.961-52.157,0-30.405,22.423-53.333,52.157-53.333,17.664,0,34.259,8.619,45.53,23.647l.129.172,16.237-14.654.126-.113-.094-.141A68.346,68.346,0,0,0,469.165,8.772,80.641,80.641,0,0,0,432.384,0c-20.2,0-39.014,7.471-52.98,21.036a72.07,72.07,0,0,0-16.3,23.919,78.874,78.874,0,0,0-6.014,30.731,78.069,78.069,0,0,0,5.894,30.352A69.805,69.805,0,0,0,379.037,129.5C392.778,142.721,411.515,150,431.8,150a82.477,82.477,0,0,0,37.467-8.919,74.721,74.721,0,0,0,26.417-22.338l.105-.145Z" fill="#fff"/><path d="M28.7,133.842A76.372,76.372,0,0,0,53.036,147.47a3.793,3.793,0,0,0,1.214.2H100.9a3.793,3.793,0,0,0,1.214-.2,76.222,76.222,0,0,0,17.638-8.647,1.435,1.435,0,0,0-.794-2.63H73.56a10.511,10.511,0,0,1-8.87-4.863,1.9,1.9,0,0,0-1.6-.873H29.918A1.912,1.912,0,0,0,28.7,133.842Z" fill="#fff"/><path d="M126.417,16.158a76.388,76.388,0,0,0-23.7-13.407,7.568,7.568,0,0,0-2.5-.418H54.857a7.58,7.58,0,0,0-2.493.417,76.207,76.207,0,0,0-17,8.427,1.435,1.435,0,0,0,.794,2.63h45.4a10.511,10.511,0,0,1,8.87,4.863,1.9,1.9,0,0,0,1.605.873H125.2A1.913,1.913,0,0,0,126.417,16.158Z" fill="#fff"/><path d="M153.976,72.011a2.865,2.865,0,0,0-2.866-2.748H121.545a3.825,3.825,0,0,1-3.464-2.2,2.876,2.876,0,0,0-2.614-1.624H5.151a3.828,3.828,0,0,0-3.814,3.535Q1.1,71.956,1.1,75q0,1.5.057,2.989a2.866,2.866,0,0,0,2.867,2.748H33.562a3.825,3.825,0,0,1,3.463,2.2,2.878,2.878,0,0,0,2.615,1.624H149.985a3.828,3.828,0,0,0,3.814-3.535q.232-2.982.235-6.026Q154.034,73.5,153.976,72.011Z" fill="#fff"/><path d="M103.451,46.316a9.552,9.552,0,0,1,8.056,4.411,2.87,2.87,0,0,0,2.418,1.325h32.584a2.87,2.87,0,0,0,2.683-3.883,76.167,76.167,0,0,0-6.61-13.442,3.814,3.814,0,0,0-3.244-1.8H15.74a3.814,3.814,0,0,0-3.244,1.8,76.083,76.083,0,0,0-4.419,8.2,2.39,2.39,0,0,0,2.173,3.388Z" fill="#fff"/><path d="M51.593,103.684a9.552,9.552,0,0,1-8.056-4.411,2.87,2.87,0,0,0-2.418-1.325H8.535a2.87,2.87,0,0,0-2.683,3.883,76.167,76.167,0,0,0,6.61,13.442,3.814,3.814,0,0,0,3.244,1.8H139.3a3.814,3.814,0,0,0,3.244-1.8,76.083,76.083,0,0,0,4.419-8.2,2.39,2.39,0,0,0-2.173-3.388Z" fill="#fff"/></svg>