<svg width="36" height="33" viewBox="0 0 36 33" fill="none" xmlns="http://www.w3.org/2000/svg">
<path fill-rule="evenodd" clip-rule="evenodd" d="M32.1428 16.5C32.1428 23.66 25.8109 29.4643 18 29.4643C10.1891 29.4643 3.85712 23.66 3.85712 16.5C3.85712 9.34001 10.1891 3.53571 18 3.53571C25.8109 3.53571 32.1428 9.34001 32.1428 16.5ZM18 7.07142C18.7101 7.07142 19.2857 7.59908 19.2857 8.24999V16.1071L22.8857 20.5071C23.3117 21.0279 23.1966 21.7666 22.6285 22.1571C22.0605 22.5477 21.2546 22.4421 20.8285 21.9214L16.9714 17.2071C16.8045 17.0031 16.7143 16.755 16.7143 16.5V8.24999C16.7143 7.59908 17.2899 7.07142 18 7.07142Z" fill="black"/>
<mask id="mask0" mask-type="alpha" maskUnits="userSpaceOnUse" x="3" y="3" width="30" height="27">
<path fill-rule="evenodd" clip-rule="evenodd" d="M32.1428 16.5C32.1428 23.66 25.8109 29.4643 18 29.4643C10.1891 29.4643 3.85712 23.66 3.85712 16.5C3.85712 9.34001 10.1891 3.53571 18 3.53571C25.8109 3.53571 32.1428 9.34001 32.1428 16.5ZM18 7.07142C18.7101 7.07142 19.2857 7.59908 19.2857 8.24999V16.1071L22.8857 20.5071C23.3117 21.0279 23.1966 21.7666 22.6285 22.1571C22.0605 22.5477 21.2546 22.4421 20.8285 21.9214L16.9714 17.2071C16.8045 17.0031 16.7143 16.755 16.7143 16.5V8.24999C16.7143 7.59908 17.2899 7.07142 18 7.07142Z" fill="white"/>
</mask>
<g mask="url(#mask0)">
<rect width="36" height="33" fill="#CCCCCC"/>
</g>
</svg>
