<svg width="24" height="24" viewBox="0 0 24 24" fill="none" xmlns="http://www.w3.org/2000/svg">
<path d="M23.0893 0H0.977722C0.451256 0 0 0.45 0 0.975V22.95C0 23.55 0.451256 24 0.977722 24H12.7856V15H9.77722V11.25H12.7856V8.25C12.7856 5.175 14.741 3.6 17.5238 3.6C18.8776 3.6 20.0057 3.75 20.3065 3.75V6.975H18.3511C16.8469 6.975 16.4709 7.725 16.4709 8.775V11.25H20.2313L19.4792 15H16.4709L16.5461 24H23.0141C23.5405 24 23.9918 23.55 23.9918 23.025V0.975C24.067 0.45 23.6158 0 23.0893 0Z" fill="#FAFAFA"/>
</svg>
