<svg width="24" height="24" viewBox="0 0 24 24" fill="none" xmlns="http://www.w3.org/2000/svg">
<g clip-path="url(#clip0_346:915)">
<path d="M18.14 7.17C18.0937 7.11729 18.0368 7.07492 17.9731 7.04563C17.9093 7.01634 17.8401 7.00079 17.77 7H14V5.59C14 5.31 14.06 4.99 14.51 4.99H17.51C17.576 4.99434 17.6422 4.98301 17.703 4.95694C17.7638 4.93088 17.8176 4.89081 17.86 4.84C17.905 4.79565 17.9406 4.74268 17.9646 4.68426C17.9887 4.62584 18.0007 4.56317 18 4.5V0.5C18 0.367392 17.9473 0.240215 17.8536 0.146447C17.7598 0.0526784 17.6326 0 17.5 0L13.17 0C8.37 0 8 4.1 8 5.35V7H5.5C5.36739 7 5.24021 7.05268 5.14645 7.14645C5.05268 7.24021 5 7.36739 5 7.5V11.5C5 11.6326 5.05268 11.7598 5.14645 11.8536C5.24021 11.9473 5.36739 12 5.5 12H8V23.5C8 23.6326 8.05268 23.7598 8.14645 23.8536C8.24021 23.9473 8.36739 24 8.5 24H13.5C13.6326 24 13.7598 23.9473 13.8536 23.8536C13.9473 23.7598 14 23.6326 14 23.5V12H17.35C17.4744 12.0006 17.5945 11.9549 17.687 11.8717C17.7794 11.7884 17.8376 11.6738 17.85 11.55L18.26 7.55C18.2691 7.48174 18.263 7.41232 18.2423 7.34665C18.2215 7.28099 18.1866 7.22068 18.14 7.17Z" fill="#3AAC59"/>
</g>
<defs>
<clipPath id="clip0_346:915">
<rect width="24" height="24" fill="white"/>
</clipPath>
</defs>
</svg>
