<svg width="24" height="24" viewBox="0 0 24 24" fill="none" xmlns="http://www.w3.org/2000/svg">
<g clip-path="url(#clip0_346:907)">
<path d="M12 0.28003C9.14319 0.279181 6.3798 1.29755 4.20673 3.15202C2.03365 5.00648 0.593462 7.57538 0.145123 10.3968C-0.303215 13.2182 0.269714 16.107 1.76089 18.5437C3.25206 20.9805 5.56365 22.8053 8.27999 23.69H8.55999C8.81543 23.7025 9.06593 23.6166 9.25999 23.45C9.37674 23.3483 9.46956 23.2221 9.5318 23.0803C9.59403 22.9386 9.62415 22.7848 9.61999 22.63V22.42C9.61999 22.25 9.61999 22.02 9.61999 21.33C9.61195 21.2651 9.59099 21.2025 9.55836 21.1458C9.52573 21.0891 9.48208 21.0396 9.42999 21C9.37307 20.9545 9.30688 20.9219 9.23606 20.9047C9.16523 20.8874 9.09149 20.8858 9.01999 20.9C6.32999 21.48 5.75999 19.8 5.72999 19.69C5.39173 18.7998 4.78774 18.0352 3.99999 17.5L3.84999 17.39C3.96807 17.333 4.09934 17.3088 4.22999 17.32C4.47922 17.3575 4.71474 17.458 4.91425 17.612C5.11375 17.766 5.27062 17.9684 5.36999 18.2C5.75684 18.8736 6.38987 19.3709 7.1359 19.5872C7.88193 19.8036 8.68279 19.7221 9.36999 19.36C9.44425 19.327 9.50992 19.2774 9.56194 19.215C9.61396 19.1526 9.65093 19.079 9.66999 19C9.71053 18.541 9.90835 18.11 10.23 17.78C10.3041 17.7161 10.3579 17.6318 10.3846 17.5375C10.4112 17.4433 10.4096 17.3434 10.38 17.25C10.3527 17.1566 10.2981 17.0733 10.2233 17.011C10.1485 16.9487 10.0569 16.91 9.95999 16.9C7.58999 16.63 5.15999 15.8 5.15999 11.71C5.14273 10.6815 5.52235 9.68593 6.21999 8.93003C6.28305 8.86098 6.32503 8.77532 6.34098 8.68318C6.35692 8.59104 6.34617 8.49626 6.30999 8.41003C6.03304 7.62996 6.03657 6.77777 6.31999 6.00003C7.24343 6.16505 8.11023 6.56061 8.83999 7.15003C8.90072 7.19155 8.97018 7.21855 9.043 7.22895C9.11583 7.23936 9.19007 7.23288 9.25999 7.21003C10.1538 6.97165 11.0749 6.85063 12 6.85003C12.9287 6.84562 13.8537 6.96672 14.75 7.21003C14.8183 7.2328 14.8909 7.23923 14.9621 7.22881C15.0333 7.21839 15.1011 7.19141 15.16 7.15003C15.8888 6.55912 16.756 6.16337 17.68 6.00003C17.9547 6.76959 17.9547 7.61047 17.68 8.38003C17.6438 8.46696 17.634 8.56261 17.6518 8.65507C17.6696 8.74753 17.7142 8.83272 17.78 8.90003C18.4668 9.64991 18.8423 10.6332 18.83 11.65C18.83 15.75 16.4 16.57 14.02 16.83C13.9231 16.84 13.8314 16.8787 13.7566 16.941C13.6818 17.0033 13.6273 17.0866 13.6 17.18C13.5712 17.2719 13.57 17.3701 13.5967 17.4626C13.6234 17.5551 13.6767 17.6377 13.75 17.7C13.9712 17.9309 14.1401 18.2067 14.2454 18.5087C14.3506 18.8106 14.3897 19.1317 14.36 19.45V22.63C14.3578 22.7855 14.3897 22.9395 14.4537 23.0812C14.5176 23.2229 14.612 23.3488 14.73 23.45C14.8789 23.5635 15.0527 23.64 15.2371 23.673C15.4214 23.706 15.6109 23.6947 15.79 23.64C18.4752 22.7263 20.7499 20.8909 22.2106 18.4594C23.6713 16.028 24.2235 13.1578 23.7692 10.358C23.315 7.55818 21.8837 5.00978 19.7292 3.1649C17.5747 1.32003 14.8364 0.297963 12 0.28003Z" fill="#3AAC59"/>
</g>
<defs>
<clipPath id="clip0_346:907">
<rect width="24" height="24" fill="white"/>
</clipPath>
</defs>
</svg>
