<svg width="24" height="24" viewBox="0 0 24 24" fill="none" xmlns="http://www.w3.org/2000/svg">
<path fill-rule="evenodd" clip-rule="evenodd" d="M12 0C5.4 0 0 5.53572 0 12.3016C0 17.7604 3.45 22.3736 8.17499 23.9881C8.77499 24.065 8.99999 23.7575 8.99999 23.3731C8.99999 23.0655 8.99999 22.2967 8.99999 21.2972C5.625 22.066 4.95 19.6826 4.95 19.6826C4.425 18.2986 3.6 17.9142 3.6 17.9142C2.475 17.1454 3.675 17.1454 3.675 17.1454C4.875 17.2223 5.55 18.3755 5.55 18.3755C6.6 20.2208 8.325 19.6826 9.07499 19.375C9.14999 18.6062 9.52499 18.068 9.82499 17.7605C7.125 17.4529 4.35 16.3765 4.35 11.6865C4.35 10.3795 4.8 9.22621 5.55 8.38047C5.4 8.07293 5.025 6.84277 5.7 5.1513C5.7 5.1513 6.675 4.84376 8.99999 6.38146C9.97499 6.07392 10.95 5.99703 12 5.99703C13.05 5.99703 14.025 6.1508 15 6.38146C17.325 4.76687 18.3 5.07441 18.3 5.07441C18.975 6.76589 18.525 7.99605 18.45 8.30359C19.2 9.14932 19.65 10.2257 19.65 11.6096C19.65 16.2996 16.875 17.376 14.175 17.6836C14.625 18.068 15 18.8368 15 19.9901C15 21.6047 15 22.9886 15 23.3731C15 23.6806 15.225 24.065 15.825 23.9881C20.55 22.3736 24 17.7604 24 12.3016C24 5.53572 18.6 0 12 0Z" fill="#0C282A"/>
</svg>
