<svg width="24" height="24" viewBox="0 0 24 24" fill="none" xmlns="http://www.w3.org/2000/svg">
<g clip-path="url(#clip0_334:968)">
<path d="M12 0.28003C9.14321 0.279181 6.37982 1.29755 4.20674 3.15202C2.03367 5.00648 0.593477 7.57538 0.145138 10.3968C-0.3032 13.2182 0.269729 16.107 1.7609 18.5437C3.25208 20.9805 5.56367 22.8053 8.28001 23.69H8.56001C8.81544 23.7025 9.06595 23.6166 9.26001 23.45C9.37676 23.3483 9.46957 23.2221 9.53181 23.0803C9.59405 22.9386 9.62417 22.7848 9.62001 22.63V22.42C9.62001 22.25 9.62001 22.02 9.62001 21.33C9.61196 21.2651 9.59101 21.2025 9.55837 21.1458C9.52574 21.0891 9.4821 21.0396 9.43001 21C9.37309 20.9545 9.3069 20.9219 9.23607 20.9047C9.16525 20.8874 9.09151 20.8858 9.02001 20.9C6.33001 21.48 5.76001 19.8 5.73001 19.69C5.39175 18.7998 4.78775 18.0352 4.00001 17.5L3.85001 17.39C3.96809 17.333 4.09935 17.3088 4.23001 17.32C4.47923 17.3575 4.71476 17.458 4.91426 17.612C5.11376 17.766 5.27064 17.9684 5.37001 18.2C5.75686 18.8736 6.38989 19.3709 7.13592 19.5872C7.88194 19.8036 8.68281 19.7221 9.37001 19.36C9.44426 19.327 9.50994 19.2774 9.56196 19.215C9.61397 19.1526 9.65094 19.079 9.67001 19C9.71055 18.541 9.90836 18.11 10.23 17.78C10.3042 17.7161 10.3579 17.6318 10.3846 17.5375C10.4112 17.4433 10.4096 17.3434 10.38 17.25C10.3527 17.1566 10.2982 17.0733 10.2234 17.011C10.1486 16.9487 10.0569 16.91 9.96001 16.9C7.59001 16.63 5.16001 15.8 5.16001 11.71C5.14275 10.6815 5.52237 9.68593 6.22001 8.93003C6.28306 8.86098 6.32504 8.77532 6.34099 8.68318C6.35694 8.59104 6.34619 8.49626 6.31001 8.41003C6.03305 7.62996 6.03659 6.77777 6.32001 6.00003C7.24344 6.16505 8.11025 6.56061 8.84001 7.15003C8.90074 7.19155 8.97019 7.21855 9.04302 7.22895C9.11584 7.23936 9.19008 7.23288 9.26001 7.21003C10.1539 6.97165 11.0749 6.85063 12 6.85003C12.9287 6.84562 13.8537 6.96672 14.75 7.21003C14.8183 7.2328 14.8909 7.23923 14.9621 7.22881C15.0334 7.21839 15.1011 7.19141 15.16 7.15003C15.8888 6.55912 16.756 6.16337 17.68 6.00003C17.9547 6.76959 17.9547 7.61047 17.68 8.38003C17.6438 8.46696 17.634 8.56261 17.6518 8.65507C17.6696 8.74753 17.7142 8.83272 17.78 8.90003C18.4668 9.64991 18.8423 10.6332 18.83 11.65C18.83 15.75 16.4 16.57 14.02 16.83C13.9231 16.84 13.8315 16.8787 13.7567 16.941C13.6818 17.0033 13.6273 17.0866 13.6 17.18C13.5712 17.2719 13.57 17.3701 13.5967 17.4626C13.6234 17.5551 13.6767 17.6377 13.75 17.7C13.9712 17.9309 14.1402 18.2067 14.2454 18.5087C14.3507 18.8106 14.3897 19.1317 14.36 19.45V22.63C14.3578 22.7855 14.3898 22.9395 14.4537 23.0812C14.5176 23.2229 14.612 23.3488 14.73 23.45C14.8789 23.5635 15.0527 23.64 15.2371 23.673C15.4214 23.706 15.6109 23.6947 15.79 23.64C18.4752 22.7263 20.7499 20.8909 22.2106 18.4594C23.6713 16.028 24.2235 13.1578 23.7692 10.358C23.315 7.55818 21.8837 5.00978 19.7292 3.1649C17.5747 1.32003 14.8364 0.297963 12 0.28003Z" fill="white"/>
</g>
<defs>
<clipPath id="clip0_334:968">
<rect width="24" height="24" fill="white"/>
</clipPath>
</defs>
</svg>
