<svg width="25" height="24" viewBox="0 0 25 24" fill="none" xmlns="http://www.w3.org/2000/svg">
<path d="M21.2984 0H2.87C1.28395 0 0 1.275 0 2.85V21.15C0 22.725 1.28395 24 2.87 24H21.2984C22.8845 24 24.1684 22.725 24.1684 21.15V2.85C24.1684 1.275 22.8845 0 21.2984 0ZM18.1263 3H20.3921C20.8453 3 21.1474 3.3 21.1474 3.75V6C21.1474 6.45 20.8453 6.75 20.3921 6.75H18.1263C17.6731 6.75 17.371 6.45 17.371 6V3.75C17.371 3.3 17.6731 3 18.1263 3ZM12.0842 7.425C14.6521 7.425 16.7668 9.45 16.7668 12C16.7668 14.55 14.6521 16.575 12.0842 16.575C9.51631 16.575 7.40158 14.55 7.40158 12C7.4771 9.45 9.51631 7.425 12.0842 7.425ZM21.1474 21.75H3.02105C2.56789 21.75 2.26579 21.45 2.26579 21V9.75H5.28684C4.90921 10.35 4.75816 11.325 4.75816 12C4.75816 16.05 8.08131 19.275 12.0842 19.275C16.1626 19.275 19.4103 15.975 19.4103 12C19.4103 11.325 19.3347 10.275 18.806 9.75H21.8271V21C21.9026 21.45 21.6005 21.75 21.1474 21.75Z" fill="#FAFAFA"/>
</svg>
