<svg width="24" height="24" viewBox="0 0 24 24" fill="none" xmlns="http://www.w3.org/2000/svg">
<g clip-path="url(#clip0_334:980)">
<path d="M18.5 0H5.5C4.04212 0.00264349 2.64471 0.582955 1.61383 1.61383C0.582955 2.64471 0.00264349 4.04212 0 5.5L0 18.5C0.00264349 19.9579 0.582955 21.3553 1.61383 22.3862C2.64471 23.417 4.04212 23.9974 5.5 24H18.5C19.9579 23.9974 21.3553 23.417 22.3862 22.3862C23.417 21.3553 23.9974 19.9579 24 18.5V5.5C23.9974 4.04212 23.417 2.64471 22.3862 1.61383C21.3553 0.582955 19.9579 0.00264349 18.5 0V0ZM20 16C20 17.0609 19.5786 18.0783 18.8284 18.8284C18.0783 19.5786 17.0609 20 16 20H8C6.93913 20 5.92172 19.5786 5.17157 18.8284C4.42143 18.0783 4 17.0609 4 16V8C4 6.93913 4.42143 5.92172 5.17157 5.17157C5.92172 4.42143 6.93913 4 8 4H16C17.0609 4 18.0783 4.42143 18.8284 5.17157C19.5786 5.92172 20 6.93913 20 8V16Z" fill="white"/>
<path d="M12 16C14.2091 16 16 14.2091 16 12C16 9.79086 14.2091 8 12 8C9.79086 8 8 9.79086 8 12C8 14.2091 9.79086 16 12 16Z" fill="white"/>
<path d="M17 8C17.5523 8 18 7.55228 18 7C18 6.44772 17.5523 6 17 6C16.4477 6 16 6.44772 16 7C16 7.55228 16.4477 8 17 8Z" fill="white"/>
</g>
<defs>
<clipPath id="clip0_334:980">
<rect width="24" height="24" fill="white"/>
</clipPath>
</defs>
</svg>
