<?xml version="1.0" encoding="utf-8"?>
<!-- Generator: Adobe Illustrator 25.4.1, SVG Export Plug-In . SVG Version: 6.00 Build 0)  -->
<svg version="1.1" id="Layer_1" xmlns="http://www.w3.org/2000/svg" xmlns:xlink="http://www.w3.org/1999/xlink" x="0px" y="0px"
	 viewBox="0 0 24 24" style="enable-background:new 0 0 24 24;" xml:space="preserve">
<g>
	<path id="_Path_" style="fill:#FFFFFF;" d="M10.4,21.4c0,0.5-0.4,1-1,1c-0.5,0-1-0.4-1-1c0-0.5,0.4-1,1-1l0,0
		C10,20.4,10.4,20.8,10.4,21.4L10.4,21.4"/>
	<path id="_Path_2" style="fill:#FFFFFF;" d="M16.4,21.4c0,0.5-0.4,1-1,1c-0.5,0-1-0.4-1-1c0-0.5,0.4-1,1-1l0,0
		C15.9,20.4,16.4,20.8,16.4,21.4L16.4,21.4"/>
	
		<rect x="7" y="3.3" transform="matrix(6.170983e-02 -0.9981 0.9981 6.170983e-02 3.2518 10.7711)" style="fill:#FFFFFF;" width="0.8" height="0.8"/>
	<path style="fill:#FFFFFF;" d="M21,12.3L21,12.3c-1.1-1.6-2.7-2.8-4.4-3.6c-0.3-0.1-0.6-0.3-1-0.4V8.2c0.8-2.1-0.2-4.5-2.4-5.4
		c-0.1,0-0.1,0-0.2-0.1c-0.5-0.2-1.1-0.3-1.7-0.3c0-0.1-0.1-0.6,0.5-1.8L10.7,0c-0.1,0.1-0.2,0.3-0.3,0.4c-0.4,0.5-0.7,0.9-1,1.3
		C9.1,1.4,8.7,1.2,8.2,1.1H6.8l0,0l0,0H6.7c-1,0-1.8,0.8-1.9,1.8L4.7,4.2l0,0l0,0c-0.1,1,0.7,1.9,1.8,2l1,0.1C7.4,7,7.5,7.8,7.9,8.6
		C6.5,9.1,5.3,10,4.2,11c-3.3,3.3-3.3,7-3.3,9.9v1.8l1.3-1.4c0.3,0.9,0.6,1.8,1.1,2.6H5c-0.8-1.1-1.4-2.5-1.7-3.8l1.9-2l-1,3.1
		L6,19.9c3.1-2.2,6.7-2.8,10.9-1.5c1.6,0.6,3.4,0.1,4.5-1.3c0-0.1,0.1-0.1,0.1-0.2c0.1,0.5,0.1,1,0.1,1.5c0,1.9-0.4,3.8-1.4,5.5h1.6
		c0.8-1.7,1.2-3.6,1.2-5.5C23.1,16.3,22.3,14.1,21,12.3z M10.2,3.4C10.5,3.8,10.9,4,11.4,4c0.4,0,0.8,0.1,1.2,0.2
		c1.4,0.5,2.2,2,1.7,3.4c-0.2,0.5-0.5,0.9-0.9,1.3L13,8.4l0,0c-0.5-0.6-1.4-0.7-2.1-0.2c-0.3,0.3-0.5,0.6-0.5,1.1
		c-1.2-0.5-1.9-1.8-1.6-3C9,5.2,9.4,4.2,10,3.3C10.1,3.3,10.2,3.3,10.2,3.4z M13.2,11.3l-0.5,0.4c-0.1,0.1-0.2,0.1-0.3,0l-0.1-0.1
		c-0.1-0.1-0.1-0.3,0-0.3l0.5-0.4l-1.1-1.3c-0.1-0.1-0.1-0.3,0-0.4c0.1-0.1,0.3-0.1,0.4,0l0,0l3,3.6c0.1,0.1,0.1,0.3,0,0.4L15,13.3
		c0,0,0,0-0.1,0s-0.2,0-0.2-0.1l-0.3-0.4l-1,0.9c-0.1,0.1-0.3,0.1-0.3,0l0,0L12.5,13c-0.1-0.1-0.1-0.3,0-0.3l1.1-0.9L13.2,11.3z
		 M6.1,4.3l0.1-1.4c0-0.2,0.2-0.4,0.5-0.4l0,0l1.4,0.1c0.3,0,0.4,0.2,0.4,0.5l0,0v0.1C8.2,3.7,8,4.3,7.8,4.9L6.6,4.8
		C6.3,4.8,6.1,4.6,6.1,4.3z M20.3,16.3c-0.7,0.8-1.9,1.1-2.9,0.7c-3.9-1.1-7.4-0.9-10.5,0.7l1.6-5.1l-6.2,6.5c0-2.7,1-5.2,2.9-7.2
		c1-1,2.2-1.8,3.5-2.3c0.5,0.5,1.2,0.9,1.9,1c0.2,0,0.3,0.1,0.5,0.1c-0.2,0.5-0.1,1,0.2,1.4l0.1,0.1c-0.2,0.5-0.1,1,0.2,1.4l0.5,0.6
		c0.5,0.6,1.4,0.7,2,0.2l0.3-0.2c0.7,0.3,1.6,0,1.9-0.8c0.2-0.5,0.1-1.1-0.2-1.5l-1.7-2c0.1-0.1,0.3-0.3,0.4-0.4
		c0.4,0.1,0.8,0.3,1.2,0.4c1.5,0.7,2.9,1.8,3.9,3.2C20.7,14.3,20.9,15.5,20.3,16.3z"/>
</g>
</svg>
