<svg width="24" height="24" viewBox="0 0 24 24" fill="none" xmlns="http://www.w3.org/2000/svg">
<g clip-path="url(#clip0_334:962)">
<path d="M4.01143 7.64567H3.20572C2.90949 7.58504 2.60384 7.58729 2.30854 7.65225C2.01323 7.71722 1.73486 7.84346 1.49143 8.02281C1.34432 8.18688 1.23323 8.37997 1.16532 8.58961C1.09741 8.79924 1.07419 9.02079 1.09714 9.23995V22.4571C1.07557 22.6736 1.0995 22.8921 1.1674 23.0988C1.2353 23.3054 1.34568 23.4956 1.49143 23.6571C1.65292 23.7893 1.8393 23.8878 2.03953 23.9467C2.23977 24.0056 2.44978 24.0237 2.65714 24C3.03429 24 3.36 24 4.06286 24C4.33673 24.058 4.6196 24.059 4.89388 24.0029C5.16816 23.9469 5.42797 23.835 5.65714 23.6742C5.93652 23.339 6.07753 22.9098 6.05143 22.4742V9.23995C6.07211 9.01956 6.04616 8.79729 5.97527 8.58759C5.90439 8.37789 5.79015 8.18545 5.64 8.02281C5.28 7.61138 4.69714 7.62852 4.01143 7.64567Z" fill="white"/>
<path d="M3.6 0C2.88986 0.0126696 2.21157 0.296937 1.70459 0.794352C1.19761 1.29177 0.900475 1.96452 0.874283 2.67429C0.882614 3.40104 1.17037 4.0967 1.67788 4.61697C2.18538 5.13724 2.87368 5.44219 3.6 5.46857C4.33356 5.45953 5.03375 5.1606 5.54766 4.63705C6.06156 4.11351 6.34744 3.40789 6.34285 2.67429C6.31649 1.96161 6.01696 1.28638 5.50633 0.788519C4.99571 0.290657 4.31312 0.00831703 3.6 0V0Z" fill="white"/>
<path d="M17.1429 7.47436C16.034 7.42613 14.9342 7.69364 13.9714 8.24579C13.9226 8.26654 13.8702 8.27723 13.8171 8.27723C13.7641 8.27723 13.7116 8.26654 13.6629 8.24579C13.5512 8.21912 13.4535 8.15191 13.3886 8.05722L13.2 7.93722C13.0942 7.83919 12.97 7.76298 12.8347 7.71298C12.6994 7.66297 12.5556 7.64014 12.4114 7.64579C11.5612 7.58227 10.7074 7.58227 9.85714 7.64579C9.13714 7.78293 8.79428 8.29722 8.79428 9.18865V22.4572C8.77271 22.6737 8.79664 22.8922 8.86454 23.0989C8.93244 23.3056 9.04282 23.4957 9.18857 23.6572C9.41468 23.8175 9.67156 23.9293 9.94301 23.9853C10.2145 24.0414 10.4946 24.0406 10.7657 23.9829C11.5371 23.9829 11.76 23.9829 12.1886 23.9829C12.607 24.0251 13.0253 23.9021 13.3543 23.6401C13.6172 23.3043 13.7456 22.8826 13.7143 22.4572V15.4286C13.6737 15.12 13.7015 14.8062 13.7955 14.5095C13.8896 14.2128 14.0477 13.9403 14.2586 13.7114C14.4696 13.4825 14.7282 13.3027 15.0163 13.1847C15.3043 13.0667 15.6148 13.0134 15.9257 13.0286C16.2394 13.0082 16.5538 13.0576 16.8461 13.1732C17.1384 13.2889 17.4014 13.4679 17.6162 13.6975C17.831 13.927 17.9922 14.2014 18.0882 14.5007C18.1842 14.8001 18.2127 15.117 18.1714 15.4286V22.4572C18.1453 22.8928 18.2863 23.322 18.5657 23.6572C18.7949 23.818 19.0547 23.9299 19.329 23.9859C19.6033 24.042 19.8861 24.0409 20.16 23.9829H21.1543C21.4254 24.0406 21.7055 24.0414 21.977 23.9853C22.2484 23.9293 22.5053 23.8175 22.7314 23.6572C22.8772 23.4957 22.9876 23.3056 23.0555 23.0989C23.1234 22.8922 23.1473 22.6737 23.1257 22.4572V13.4229C23.1654 12.6283 23.0375 11.8343 22.7505 11.0923C22.4634 10.3503 22.0235 9.67697 21.4593 9.11602C20.8951 8.55507 20.2193 8.11904 19.4756 7.83621C18.732 7.55339 17.9372 7.43011 17.1429 7.47436Z" fill="white"/>
</g>
<defs>
<clipPath id="clip0_334:962">
<rect width="24" height="24" fill="white"/>
</clipPath>
</defs>
</svg>
