<svg width="16" height="16" viewBox="0 0 16 16" fill="none" xmlns="http://www.w3.org/2000/svg">
<path d="M 0,0 V 16 H 16 V 0 Z M 13.292308,3.7907692 12.434051,4.611282 c -0.07465,0.05568 -0.111485,0.1487209 -0.09518,0.2404103 v 6.0455387 c -0.01631,0.09169 0.02053,0.18473 0.09518,0.24041 l 0.838564,0.820513 V 12.14359 H 9.0568205 V 11.963077 L 9.9282051,11.12041 c 0.082051,-0.08205 0.082051,-0.110769 0.082051,-0.241231 V 5.9897436 L 7.5971282,12.123897 H 7.2689231 L 4.4603077,5.9897436 v 4.1091284 c -0.022996,0.17259 0.034468,0.34619 0.1558974,0.470974 l 1.1273846,1.372718 v 0.181333 h -3.2 V 11.942564 L 3.6726154,10.573128 C 3.7933265,10.448259 3.8472711,10.27332 3.8178461,10.102154 V 5.3513846 C 3.8315522,5.2193997 3.7812174,5.0888343 3.6824615,5.0002051 L 2.6789744,3.7907692 V 3.6102564 H 5.7969231 L 8.2051282,8.892718 10.321231,3.6102564 h 2.971077 z" fill="#0C282A" />
</svg>
