<?xml version="1.0" encoding="utf-8"?>
<!-- Generator: Adobe Illustrator 26.0.2, SVG Export Plug-In . SVG Version: 6.00 Build 0)  -->
<svg version="1.1" id="Layer_1" xmlns="http://www.w3.org/2000/svg" xmlns:xlink="http://www.w3.org/1999/xlink" x="0px" y="0px"
	 viewBox="0 0 24 24" style="enable-background:new 0 0 24 24;" xml:space="preserve">
<style type="text/css">
	.st0{fill:#3AAC59;}
	.st1{fill:#FFFFFF;}
</style>
<g transform="translate(-85.4 -85.4)">
	<circle class="st0" cx="97.4" cy="97.4" r="12"/>
	<path class="st1" d="M105.4,97.4c0-1-0.8-1.8-1.8-1.8c-0.5,0-0.9,0.2-1.2,0.5c-1.2-0.9-2.8-1.4-4.7-1.5l0.8-3.7l2.6,0.5
		c0,0.7,0.6,1.2,1.2,1.2c0.7,0,1.2-0.6,1.2-1.2c0-0.7-0.6-1.2-1.2-1.2c-0.5,0-0.9,0.3-1.1,0.7l-2.9-0.6c-0.1,0-0.2,0-0.2,0
		S98,90.4,98,90.5l-0.9,4.2c-1.9,0.1-3.5,0.6-4.7,1.5c-0.3-0.3-0.7-0.5-1.2-0.5c-1,0-1.8,0.8-1.8,1.8c0,0.7,0.4,1.3,1,1.6
		c0,0.2,0,0.4,0,0.5c0,2.7,3.1,4.9,7,4.9c3.9,0,7-2.2,7-4.9c0-0.2,0-0.4,0-0.5C105,98.7,105.4,98.1,105.4,97.4L105.4,97.4z
		 M93.4,98.6c0-0.7,0.6-1.2,1.2-1.2s1.2,0.6,1.2,1.2s-0.6,1.2-1.2,1.2S93.4,99.3,93.4,98.6z M100.4,101.9c-0.9,0.9-2.5,0.9-3,0.9
		c-0.5,0-2.1-0.1-3-0.9c-0.1-0.1-0.1-0.3,0-0.5c0.1-0.1,0.3-0.1,0.5,0c0.5,0.5,1.7,0.7,2.5,0.7s2-0.2,2.5-0.7c0.1-0.1,0.3-0.1,0.5,0
		C100.5,101.6,100.5,101.8,100.4,101.9L100.4,101.9z M100.2,99.9c-0.7,0-1.2-0.6-1.2-1.2s0.6-1.2,1.2-1.2s1.2,0.6,1.2,1.2
		S100.8,99.9,100.2,99.9z"/>
</g>
</svg>
