<?xml version="1.0" encoding="utf-8"?>
<!-- Generator: Adobe Illustrator 25.4.1, SVG Export Plug-In . SVG Version: 6.00 Build 0)  -->
<svg version="1.1" id="Layer_1" xmlns="http://www.w3.org/2000/svg" xmlns:xlink="http://www.w3.org/1999/xlink" x="0px" y="0px"
	 viewBox="0 0 24 24" style="enable-background:new 0 0 24 24;" xml:space="preserve">
<g>
	<path style="fill:#FFFFFF;" d="M12,0C5.4,0,0,5.4,0,12s5.4,12,12,12s12-5.4,12-12S18.6,0,12,0z M19,13.7c0,0.1,0,0.3,0,0.5
		c0,2.7-3.1,4.9-7,4.9s-7-2.2-7-4.9c0-0.1,0-0.3,0-0.5c-0.6-0.3-1-0.9-1-1.6c0-1,0.8-1.8,1.8-1.8c0.5,0,0.9,0.2,1.2,0.5
		c1.2-0.9,2.8-1.4,4.7-1.5l0.9-4.2c0-0.1,0.1-0.2,0.1-0.2s0.1,0,0.2,0l2.9,0.6c0.2-0.4,0.6-0.7,1.1-0.7c0.6,0,1.2,0.5,1.2,1.2
		c0,0.6-0.5,1.2-1.2,1.2c-0.6,0-1.2-0.5-1.2-1.2l-2.6-0.5l-0.8,3.7c1.9,0.1,3.5,0.6,4.7,1.5c0.3-0.3,0.7-0.5,1.2-0.5
		c1,0,1.8,0.8,1.8,1.8C20,12.7,19.6,13.3,19,13.7z"/>
</g>
</svg>
