<svg width="24" height="20" viewBox="0 0 24 20" fill="none" xmlns="http://www.w3.org/2000/svg">
<path d="M24 2.38462C23.1028 2.76923 22.2056 3.07692 21.1589 3.15385C22.2056 2.53846 22.9533 1.53846 23.3271 0.384615C22.3551 1 21.3084 1.38462 20.1869 1.61538C19.2897 0.615385 18.0187 0 16.6729 0C13.9813 0 11.7383 2.23077 11.7383 5.07692C11.7383 5.46154 11.8131 5.84615 11.8879 6.23077C7.7757 6 4.18692 4 1.71963 0.923077C1.27103 1.69231 1.04673 2.53846 1.04673 3.46154C1.04673 5.23077 1.94393 6.76923 3.21495 7.69231C2.39252 7.69231 1.64486 7.46154 0.971963 7.07692V7.15385C0.971963 9.61539 2.69159 11.6154 4.93458 12.0769C4.48598 12.1538 4.11215 12.2308 3.66355 12.2308C3.36449 12.2308 3.06542 12.2308 2.76636 12.1538C3.36449 14.1538 5.23364 15.6154 7.3271 15.6923C5.68224 17.0769 3.51402 17.8462 1.19626 17.8462C0.82243 17.8462 0.373832 17.8462 0 17.7692C2.24299 19.1538 4.85981 20 7.62617 20C16.6729 20 21.6075 12.3077 21.6075 5.61539C21.6075 5.38462 21.6075 5.15385 21.6075 5C22.5047 4.23077 23.3271 3.38462 24 2.38462Z" fill="#FAFAFA"/>
</svg>
