<svg width="24" height="24" viewBox="0 0 24 24" fill="none" xmlns="http://www.w3.org/2000/svg">
<path d="M23.32 6.44005C23.3911 6.38091 23.4445 6.30318 23.4741 6.21551C23.5037 6.12785 23.5084 6.03369 23.4877 5.94351C23.4669 5.85334 23.4216 5.77068 23.3567 5.70475C23.2918 5.63881 23.2098 5.59218 23.12 5.57005L22.33 5.38005C22.2572 5.36176 22.1896 5.327 22.1324 5.27846C22.0752 5.22991 22.0299 5.16887 22 5.10005C21.968 5.03289 21.9514 4.95944 21.9514 4.88505C21.9514 4.81066 21.968 4.73721 22 4.67005L22.45 3.78005C22.4928 3.69292 22.5092 3.59521 22.4974 3.49887C22.4856 3.40252 22.446 3.31169 22.3835 3.23747C22.3209 3.16325 22.2381 3.10884 22.1451 3.08089C22.0522 3.05294 21.9531 3.05264 21.86 3.08005L19.86 3.64005C19.7863 3.66036 19.7089 3.66279 19.6341 3.64713C19.5593 3.63148 19.4893 3.5982 19.43 3.55005C18.6871 2.99292 17.8038 2.65364 16.879 2.57025C15.9542 2.48686 15.0244 2.66265 14.1939 3.07792C13.3634 3.49318 12.6649 4.13152 12.1767 4.9214C11.6886 5.71128 11.43 6.62149 11.43 7.55005V7.91005C11.4304 7.97147 11.4082 8.0309 11.3677 8.07701C11.3271 8.12312 11.271 8.15268 11.21 8.16005C8.39998 8.49005 5.70998 7.06005 2.80998 3.72005C2.74882 3.64786 2.66843 3.5945 2.57815 3.56618C2.48788 3.53786 2.39142 3.53573 2.29998 3.56005C2.21288 3.59666 2.13821 3.65767 2.08499 3.73574C2.03176 3.8138 2.00224 3.90559 1.99998 4.00005C1.59472 5.64505 1.75681 7.37869 2.45998 8.92005C2.48186 8.95989 2.49334 9.0046 2.49334 9.05005C2.49334 9.0955 2.48186 9.14022 2.45998 9.18005C2.43309 9.21981 2.39489 9.25059 2.35032 9.26841C2.30576 9.28624 2.25687 9.29029 2.20998 9.28005L1.07998 9.06005C1.00003 9.04921 0.918652 9.05711 0.842285 9.08315C0.765918 9.10918 0.696656 9.15263 0.63998 9.21005C0.585447 9.26814 0.545283 9.3382 0.522708 9.41461C0.500132 9.49102 0.495773 9.57165 0.50998 9.65005C0.596319 10.4175 0.854154 11.1557 1.2644 11.81C1.67464 12.4643 2.2268 13.018 2.87998 13.4301C2.91911 13.4537 2.95099 13.4877 2.97215 13.5283C2.99331 13.5688 3.00293 13.6144 2.99998 13.6601C2.99949 13.7074 2.98498 13.7536 2.95829 13.7928C2.93159 13.8319 2.89391 13.8623 2.84998 13.8801L2.30998 14.0901C2.18209 14.1461 2.08147 14.2503 2.02998 14.3801C2.00302 14.4433 1.98913 14.5113 1.98913 14.5801C1.98913 14.6488 2.00302 14.7168 2.02998 14.7801C2.32307 15.4214 2.76734 15.982 3.32468 16.414C3.88202 16.8459 4.53581 17.1362 5.22998 17.2601C5.27934 17.2748 5.32345 17.3033 5.35711 17.3423C5.39078 17.3813 5.41259 17.4291 5.41998 17.4801C5.42492 17.5336 5.41315 17.5873 5.38629 17.6339C5.35943 17.6804 5.31879 17.7175 5.26998 17.7401C3.91538 18.2948 2.46369 18.5735 0.99998 18.5601C0.867371 18.5335 0.729659 18.5608 0.617137 18.6358C0.504615 18.7108 0.426501 18.8274 0.39998 18.9601C0.373458 19.0927 0.400701 19.2304 0.475716 19.3429C0.55073 19.4554 0.667371 19.5335 0.79998 19.5601C3.34611 20.7723 6.12062 21.4301 8.93998 21.4901C11.4193 21.5267 13.8543 20.831 15.94 19.4901C17.6565 18.3464 19.0627 16.7951 20.033 14.975C21.0033 13.1549 21.5073 11.1226 21.5 9.06005V8.19005C21.4999 8.11732 21.516 8.04549 21.5471 7.97976C21.5783 7.91403 21.6237 7.85606 21.68 7.81005L23.32 6.44005Z" fill="#3AAC59"/>
</svg>
