<svg width="24" height="24" viewBox="0 0 24 24" fill="none" xmlns="http://www.w3.org/2000/svg">
<path d="M23.32 6.44005C23.3912 6.38091 23.4445 6.30318 23.4741 6.21551C23.5037 6.12785 23.5084 6.03369 23.4877 5.94351C23.4669 5.85334 23.4216 5.77068 23.3567 5.70475C23.2918 5.63881 23.2098 5.59218 23.12 5.57005L22.33 5.38005C22.2572 5.36176 22.1896 5.327 22.1324 5.27846C22.0752 5.22991 22.0299 5.16887 22 5.10005C21.968 5.03289 21.9514 4.95944 21.9514 4.88505C21.9514 4.81066 21.968 4.73721 22 4.67005L22.45 3.78005C22.4928 3.69292 22.5093 3.59521 22.4974 3.49887C22.4856 3.40252 22.446 3.31169 22.3835 3.23747C22.3209 3.16325 22.2381 3.10884 22.1452 3.08089C22.0522 3.05294 21.9531 3.05264 21.86 3.08005L19.86 3.64005C19.7863 3.66036 19.7089 3.66279 19.6341 3.64713C19.5593 3.63148 19.4893 3.5982 19.43 3.55005C18.6871 2.99292 17.8038 2.65364 16.879 2.57025C15.9542 2.48686 15.0245 2.66265 14.1939 3.07792C13.3634 3.49318 12.6649 4.13152 12.1767 4.9214C11.6886 5.71128 11.43 6.62149 11.43 7.55005V7.91005C11.4304 7.97147 11.4083 8.0309 11.3677 8.07701C11.3271 8.12312 11.271 8.15268 11.21 8.16005C8.4 8.49005 5.71 7.06005 2.80999 3.72005C2.74883 3.64786 2.66845 3.5945 2.57817 3.56618C2.48789 3.53786 2.39143 3.53573 2.29999 3.56005C2.21289 3.59666 2.13823 3.65767 2.085 3.73574C2.03178 3.8138 2.00226 3.90559 1.99999 4.00005C1.59474 5.64505 1.75683 7.37869 2.46 8.92005C2.48188 8.95989 2.49335 9.0046 2.49335 9.05005C2.49335 9.0955 2.48188 9.14022 2.46 9.18005C2.4331 9.21981 2.3949 9.25059 2.35034 9.26841C2.30577 9.28624 2.25689 9.29029 2.21 9.28005L1.07999 9.06005C1.00004 9.04921 0.918667 9.05711 0.8423 9.08315C0.765933 9.10918 0.696671 9.15263 0.639995 9.21005C0.585463 9.26814 0.545299 9.3382 0.522723 9.41461C0.500147 9.49102 0.495788 9.57165 0.509995 9.65005C0.596334 10.4175 0.854169 11.1557 1.26441 11.81C1.67466 12.4643 2.22681 13.018 2.88 13.4301C2.91912 13.4537 2.951 13.4877 2.97216 13.5283C2.99332 13.5688 3.00295 13.6144 2.99999 13.6601C2.9995 13.7074 2.985 13.7536 2.9583 13.7928C2.93161 13.8319 2.89392 13.8623 2.84999 13.8801L2.30999 14.0901C2.18211 14.1461 2.08149 14.2503 2.02999 14.3801C2.00304 14.4433 1.98914 14.5113 1.98914 14.5801C1.98914 14.6488 2.00304 14.7168 2.02999 14.7801C2.32309 15.4214 2.76735 15.982 3.32469 16.414C3.88203 16.8459 4.53582 17.1362 5.22999 17.2601C5.27935 17.2748 5.32346 17.3033 5.35713 17.3423C5.39079 17.3813 5.41261 17.4291 5.41999 17.4801C5.42494 17.5336 5.41317 17.5873 5.3863 17.6339C5.35944 17.6804 5.31881 17.7175 5.26999 17.7401C3.9154 18.2948 2.46371 18.5735 0.999995 18.5601C0.867387 18.5335 0.729674 18.5608 0.617152 18.6358C0.50463 18.7108 0.426517 18.8274 0.399995 18.9601C0.373473 19.0927 0.400716 19.2304 0.475731 19.3429C0.550745 19.4554 0.667387 19.5335 0.799995 19.5601C3.34613 20.7723 6.12064 21.4301 8.93999 21.4901C11.4193 21.5267 13.8543 20.831 15.94 19.4901C17.6565 18.3464 19.0627 16.7951 20.033 14.975C21.0033 13.1549 21.5073 11.1226 21.5 9.06005V8.19005C21.4999 8.11732 21.516 8.04549 21.5472 7.97976C21.5783 7.91403 21.6237 7.85606 21.68 7.81005L23.32 6.44005Z" fill="white"/>
</svg>
