<?xml version="1.0" encoding="utf-8"?>
<!-- Generator: Adobe Illustrator 25.3.1, SVG Export Plug-In . SVG Version: 6.00 Build 0)  -->
<svg version="1.1" id="Layer_1" xmlns="http://www.w3.org/2000/svg" xmlns:xlink="http://www.w3.org/1999/xlink" x="0px" y="0px"
	 viewBox="0 0 130 130" style="enable-background:new 0 0 130 130;" xml:space="preserve">
<style type="text/css">
	.st0{fill:#FFFFFF;}
</style>
<g>
	<path class="st0" d="M98.5,100c-5,7.7-10.1,11.5-15,11.5c-2,0-4.7-0.6-8.2-1.9c-3.5-1.3-6.4-1.9-8.8-1.9c-2.3,0-5.1,0.6-8.3,1.9
		c-3.2,1.3-5.8,2-7.7,2c-6,0-11.8-5.1-17.6-15.1c-5.7-10.1-8.6-19.8-8.6-29.4c0-8.9,2.2-16.2,6.6-21.9c4.4-5.6,9.9-8.4,16.6-8.4
		c2.9,0,6.3,0.6,10.4,1.8c4,1.2,6.7,1.8,8.1,1.8c1.7,0,4.5-0.6,8.4-2c3.9-1.3,7.3-2,10.1-2c4.7,0,8.8,1.3,12.5,3.8
		c2,1.4,4.1,3.4,6.1,5.8c-3,2.6-5.3,4.9-6.7,6.9c-2.5,3.6-3.8,7.7-3.8,12.1c0,4.8,1.3,9.2,4,13c2.7,3.9,5.8,6.3,9.2,7.4
		C104.3,90,101.9,94.9,98.5,100z M82.1,24.8c-1.2,2.9-3,5.6-5.4,8.1c-2.1,2.1-4.2,3.5-6.3,4.2c-1.3,0.4-3.3,0.8-6.1,1
		c0.1-5.8,1.6-10.8,4.6-15s7.8-7.1,14.6-8.7c0.1,0.5,0.2,0.9,0.3,1.3c0,0.4,0.1,0.8,0.1,1.2C83.7,19.2,83.2,21.9,82.1,24.8z"/>
</g>
</svg>
