<?xml version="1.0" encoding="utf-8"?>
<!-- Generator: Adobe Illustrator 25.2.3, SVG Export Plug-In . SVG Version: 6.00 Build 0)  -->
<svg version="1.1" id="Layer_1" xmlns="http://www.w3.org/2000/svg" xmlns:xlink="http://www.w3.org/1999/xlink" x="0px" y="0px"
	 viewBox="0 0 90.13 93.17" style="enable-background:new 0 0 90.13 93.17;" xml:space="preserve">
<style type="text/css">
	.st0{fill:#39AC58;}
</style>
<g>
	<path class="st0" d="M22,89.86c0.81,0,1.59-0.33,2.14-0.92l7.96-7.86l5.41-3.57l8.16,8.16v0c0.54,0.61,1.33,0.95,2.14,0.92
		c0.81-0.01,1.58-0.34,2.14-0.92l15.72-15.71c0.58-0.57,0.91-1.34,0.92-2.14c0-0.84-0.33-1.65-0.92-2.25l-3.78-3.78l10.2-6.63
		l1.63,1.73h0c0.63,0.52,1.42,0.81,2.24,0.82c0.79-0.02,1.54-0.31,2.14-0.82c1.13-1.24,1.13-3.14,0-4.39L41.19,15.57
		c-1.21-1.12-3.07-1.12-4.29,0c-0.59,0.57-0.93,1.37-0.93,2.2c0,0.82,0.34,1.62,0.93,2.19l1.63,1.63l-25.92,40l-7.86,7.96
		c-0.59,0.56-0.92,1.33-0.92,2.14c0,0.81,0.33,1.59,0.92,2.14l15.1,15.1C20.42,89.52,21.2,89.86,22,89.86L22,89.86z M59.15,67.82
		L47.82,79.14l-5-5l13.78-8.98L59.15,67.82z M67.72,50.78L30.68,74.65L19.05,63.02l23.88-37.04L67.72,50.78z M15.07,67.82
		l10.82,10.82L22,82.51L11.19,71.69L15.07,67.82z"/>
	<path class="st0" d="M63.84,30.47c0.8-0.01,1.58-0.34,2.14-0.92l11.53-11.53c1.21-1.21,1.21-3.18,0-4.39
		c-1.21-1.21-3.18-1.21-4.39,0L61.6,25.16c-1.13,1.25-1.13,3.14,0,4.39C62.19,30.14,63,30.47,63.84,30.47L63.84,30.47z"/>
	<path class="st0" d="M55.48,22.71c0.31,0.17,0.67,0.24,1.02,0.21c1.32,0.03,2.52-0.79,2.96-2.04l5-13.67
		c0.44-1.54-0.37-3.15-1.87-3.71c-1.49-0.56-3.17,0.12-3.84,1.57l-5.1,13.78h0c-0.29,0.76-0.26,1.6,0.09,2.33
		C54.07,21.9,54.7,22.46,55.48,22.71L55.48,22.71z"/>
	<path class="st0" d="M83.64,26.39l-13.77,5c-1.3,0.61-2.03,2.03-1.77,3.45c0.27,1.41,1.45,2.48,2.89,2.57L72,37.2l13.67-5.1h0
		c0.77-0.25,1.4-0.81,1.75-1.55c0.35-0.73,0.38-1.57,0.09-2.33c-0.25-0.77-0.81-1.4-1.54-1.75C85.24,26.12,84.39,26.09,83.64,26.39
		L83.64,26.39z"/>
</g>
</svg>
