<?xml version="1.0" encoding="utf-8"?>
<!-- Generator: Adobe Illustrator 25.3.1, SVG Export Plug-In . SVG Version: 6.00 Build 0)  -->
<svg version="1.1" id="Layer_1" xmlns="http://www.w3.org/2000/svg" xmlns:xlink="http://www.w3.org/1999/xlink" x="0px" y="0px"
	 viewBox="0 0 130 130" style="enable-background:new 0 0 130 130;" xml:space="preserve">
<style type="text/css">
	.st0{fill:#FFFFFF;}
</style>
<g>
	<path class="st0" d="M99.1,108c-3.2,1.7-7.6,5.3-9.2,6.8c-1.2,1.1-6.1,1.7-8.9,0.3c-3.2-1.7-1.5-4.3-6.5-4.4
		c-2.5-0.1-5-0.1-7.4-0.1c-2.2,0.1-4.3,0.2-6.5,0.2c-7.5,0.2-8.3,5-13.1,4.8c-3.3-0.1-7.5-2.7-14.6-4.2c-5-1-9.8-1.3-10.9-3.5
		s1.3-4.7,1.4-6.9c0.2-2.9-2.2-6.8-0.5-8.3c1.5-1.3,4.6-0.3,6.7-1.5c2.2-1.3,3.1-2.2,3.1-4.9c0.8,2.7-0.1,5-1.8,6
		c-1.1,0.7-3.1,1-4.7,0.9c-1.3-0.1-2.1,0.1-2.4,0.6c-0.5,0.6-0.3,1.8,0.3,3.2c0.6,1.5,1.4,2.4,1.3,4.3c-0.1,1.8-2.1,4-1.8,5.5
		c0.1,0.6,0.7,1.1,2.1,1.5c2.3,0.6,6.4,1.3,10.5,2.2c4.5,1.1,9.2,3.2,12.1,2.8c8.7-1.2,3.7-10.5,2.3-12.7c-7.3-11.5-12.2-19-16.1-16
		c-1,0.8-1-1.9-1-3c0.2-3.8,2-5.1,3.2-8c2.2-5.5,3.8-11.8,7.1-15.1c2.4-3.2,6.3-8.4,7.1-11.1c-0.6-5.9-0.8-12.2-0.9-17.6
		c-0.1-5.9,0.8-11,7.4-14.6c1.6-0.9,3.7-1.2,5.9-1.2c3.9-0.1,8.3,1.1,11.1,3.1c4.4,3.3,7.2,10.3,6.9,15.3c-0.2,3.9,0.5,8,1.7,12.2
		c1.5,5,3.8,8.4,7.6,12.4c4.5,4.8,8,14.2,9.1,20.1c0.9,5.6-0.3,9.1-1.5,9.2c-1.8,0.3-3,6-8.7,5.8c-3.6-0.2-4-2.3-5-4.2
		c-1.7-2.9-3.3-2-3.9,1.1c-0.3,1.5-0.1,3.8,0.4,5.5c1,3.6,0.7,6.9,0.1,11.1c-1.2,7.9,5.5,9.3,10,5.6c4.4-3.7,5.4-4.3,11-6.2
		c8.5-2.9,5.6-5.5,1.1-7c-4.1-1.4-4.3-8.3-2.8-9.6c0.3,7.4,4.2,8.5,5.8,9.5C112.9,102.3,103.2,105.9,99.1,108z M89.5,80.5
		c1.5-5.1,0.9-7.2-0.2-12c-0.8-3.6-4.2-8.6-6.8-10.1c0.7,0.6,1.9,2.2,3.2,4.7c2.3,4.3,4.6,10.6,3.1,15.8c-0.6,2-1.9,2.3-2.8,2.4
		c-4,0.5-1.7-4.8-3.3-11.9c-1.9-8-3.8-8.5-4.3-9.2c-2.3-10.4-4.9-9.3-5.6-13.2c-0.6-3.5,3-6.3-1.9-7.3c-1.5-0.3-3.7-1.8-4.6-1.9
		c-0.9-0.1-1.3-5.7,1.9-5.9c3.1-0.2,3.7,3.5,3.1,5c-0.9,1.5,0.1,2,1.6,1.5c1.3-0.4,0.5-3.7,0.7-4.2c-0.8-4.8-2.8-5.5-4.8-5.9
		c-7.9,0.6-4.3,9.3-5.1,8.5c-1.1-1.2-4.4-0.1-4.4-0.9c0.1-4.4-1.4-7-3.5-7.1c-2.3-0.1-3.2,3.1-3.3,5c-0.2,1.7,1,5.3,1.8,5
		c0.6-0.2,1.5-1.3,0.5-1.3c-0.5,0-1.3-1.3-1.4-2.7c-0.1-1.5,0.5-3,2.4-2.9c2.2,0.1,2.2,4.5,2,4.7c-0.7,0.5-1.7,1.5-1.8,1.7
		c-0.7,1.2-2.2,1.5-2.7,2c-1,1-1.2,2.2-0.5,2.6c2.6,1.5,1.8,3.2,5.4,3.3c2.4,0.1,4.2-0.3,5.8-0.9c1.3-0.4,5.3-1.3,6.1-2.7
		c0.4-0.6,0.9-0.6,1.1-0.5c0.6,0.3,0.7,1.4-0.7,1.7c-2,0.6-4,1.7-5.8,2.3c-1.8,0.7-2.3,1-4,1.3c-3.8,0.7-6.5-1.4-4,1.1
		c0.9,0.8,1.7,1.3,3.8,1.3c4.8-0.2,10.1-5.9,10.6-3.4c0.1,0.6-1.5,1.3-2.7,1.9c-4.4,2.2-7.6,6.5-10.4,5c-2.6-1.4-5.1-7.7-5.1-4.8
		c0.1,4.4-5.7,8.3-3.1,13.3c-1.8,0.5-5.7,8.8-6.3,13.1c-0.3,2.5,0.2,5.6-0.4,7.3c-0.9,2.5-4.7-2.4-3.5-8.4c0.2-1,0-1.3-0.3-0.7
		C38,76,38.9,80,40.1,82.7c0.5,1.2,1.8,1.7,2.8,2.7c2,2.3,9.8,8.1,11.2,9.5c1.8,1.7,1.3,5.5-2.4,5.9c1.9,3.5,3.7,3.9,3.6,9.6
		c2.2-1.1,1.3-3.6,0.4-5.2c-0.6-1.1-1.4-1.7-1.3-1.9c0.1-0.2,1.3-1.1,1.9-0.4c1.9,2.2,5.6,2.6,9.4,2c3.9-0.5,8.1-1.8,10.1-5
		c0.9-1.5,1.5-2,1.9-1.7c0.5,0.2,0.6,1.3,0.6,3c-0.1,1.8-0.8,3.7-1.3,5.2c-0.5,1.8-0.7,3,1,3c0.5-3.2,1.4-6.3,1.6-9.5
		c0.3-3.6-2.3-10.4,0.5-13.7c0.7-0.9,1.7-1,2.9-1c0.2-4.6,7.2-4.2,9.5-2.3C92.7,81.9,90.4,80.9,89.5,80.5z M43.1,64.2
		c-0.4,0.7-1.4,1.3-0.6,1.4c0.3,0.1,1.1-0.6,1.4-1.4c0.3-1,0.6-1.5,0.1-1.7C43.5,62.3,43.6,63.4,43.1,64.2z M56.1,33.3
		c-0.7-0.2-0.6,0.9-0.2,0.7c0.2,0,0.5,0.3,0.4,0.9c-0.1,0.7-0.1,1.1,0.5,1.1c0.1,0,0.2,0,0.2-0.2C57.1,34.4,56.5,33.4,56.1,33.3z
		 M57.7,38.5c-0.6,0.1-0.5-1.3,1.4-1.1C57.9,37.5,58.3,38.5,57.7,38.5z M62.3,37.6c1.7-0.7,2.2,0.4,1.7,0.6
		C63.4,38.4,63.4,37.3,62.3,37.6z M69.2,33c-0.7,0.1-0.5,0.4-0.2,0.5c0.5,0.1,0.9,0.9,1,1.8c0,0.1,0.6-0.1,0.6-0.3
		C70.7,33.6,69.5,32.9,69.2,33z M72.5,20.7c-0.5-0.5-0.9-0.9-1.4-0.9c-1.1,0.1-0.6,1.3-0.7,1.9c-0.2,0.6-1.1,1.1-0.5,1.6
		c0.5,0.4,0.9-0.6,1.9-1c0.3-0.1,1.6,0.1,1.9-0.6C73.8,21.4,73,21.1,72.5,20.7z M78.8,45.8c-1.1-0.7-1.3-1.8-1.7-1.4
		c-1.2,1.3,1.5,4,2.6,4.3c0.7,0.1,1.2-0.8,1-1.6C80.5,46,79.7,46.4,78.8,45.8z"/>
</g>
</svg>
