<?xml version="1.0" encoding="utf-8"?>
<!-- Generator: Adobe Illustrator 25.2.3, SVG Export Plug-In . SVG Version: 6.00 Build 0)  -->
<svg version="1.1" id="Layer_1" xmlns="http://www.w3.org/2000/svg" xmlns:xlink="http://www.w3.org/1999/xlink" x="0px" y="0px"
	 viewBox="0 0 90.13 93.17" style="enable-background:new 0 0 90.13 93.17;" xml:space="preserve">
<style type="text/css">
	.st0{fill:#FFFFFF;}
</style>
<g>
	<path class="st0" d="M45.73,5.12c-24.3,0-44.05,17.72-43.96,39.42c0,21.7,19.76,39.42,44.05,39.42c6.4,0,12.52-1.21,18.27-3.53
		l14.84,6.77c0.65,0.37,1.3,0.46,1.95,0.46c0.93,0,1.85-0.28,2.69-0.83c1.3-1.02,2.04-2.6,1.85-4.27l-2.04-17.53
		c4.17-6.22,6.4-13.26,6.4-20.5C89.78,22.84,70.03,5.12,45.73,5.12L45.73,5.12z M45.73,77.93C24.77,77.93,7.8,62.9,7.89,44.54
		c0-18.45,17.06-33.39,37.93-33.39s37.93,15.02,37.93,33.39c0,6.4-2.04,12.52-5.93,17.9l-0.74,0.93l1.95,17.25l-14.93-6.86
		l-1.3,0.56C57.51,76.72,51.76,77.93,45.73,77.93L45.73,77.93z"/>
	<path class="st0" d="M59.54,44.54c0-3.23,2.62-5.84,5.84-5.84s5.84,2.62,5.84,5.84s-2.62,5.84-5.84,5.84S59.54,47.77,59.54,44.54"
		/>
	<path class="st0" d="M39.88,44.54c0-3.23,2.62-5.84,5.84-5.84s5.84,2.62,5.84,5.84s-2.62,5.84-5.84,5.84S39.88,47.77,39.88,44.54"
		/>
	<path class="st0" d="M20.22,44.54c0-3.23,2.62-5.84,5.84-5.84s5.84,2.62,5.84,5.84s-2.62,5.84-5.84,5.84S20.22,47.77,20.22,44.54"
		/>
</g>
</svg>
