<svg width="16" height="16" viewBox="0 0 16 16" fill="none" xmlns="http://www.w3.org/2000/svg">
<g clip-path="url(#clip0_378:35)">
<path d="M15.8067 7.52662L12.62 4.33995C12.5263 4.24745 12.4072 4.18478 12.2779 4.15987C12.1485 4.13495 12.0147 4.1489 11.8933 4.19995C11.7716 4.24996 11.6674 4.3349 11.5938 4.44404C11.5203 4.55319 11.4807 4.68167 11.48 4.81328V6.81328C11.48 6.85749 11.4624 6.89988 11.4312 6.93114C11.3999 6.96239 11.3575 6.97995 11.3133 6.97995H1C0.734784 6.97995 0.48043 7.08531 0.292893 7.27284C0.105357 7.46038 0 7.71473 0 7.97995C0 8.24517 0.105357 8.49952 0.292893 8.68706C0.48043 8.87459 0.734784 8.97995 1 8.97995H11.3333C11.3775 8.97995 11.4199 8.99751 11.4512 9.02877C11.4824 9.06002 11.5 9.10241 11.5 9.14662V11.1466C11.5 11.3234 11.5702 11.493 11.6953 11.618C11.8203 11.743 11.9899 11.8133 12.1667 11.8133C12.2549 11.8129 12.3421 11.7951 12.4234 11.7607C12.5046 11.7264 12.5783 11.6763 12.64 11.6133L15.8267 8.43328C15.9323 8.31292 15.9935 8.15997 16 7.99995C16.0005 7.91221 15.9837 7.82524 15.9505 7.74401C15.9173 7.66279 15.8685 7.58891 15.8067 7.52662Z" fill="#3AAC59"/>
</g>
<defs>
<clipPath id="clip0_378:35">
<rect width="16" height="16" fill="white"/>
</clipPath>
</defs>
</svg>
