<svg xmlns="http://www.w3.org/2000/svg" width="15.8" height="16" viewBox="0 0 15.8 16"><path d="M15.1,11.3a1.42,1.42,0,0,0-.6.2.73.73,0,0,0-.2.6v1.2a.91.91,0,0,1-.3.7,1.08,1.08,0,0,1-.7.3H2.7A.91.91,0,0,1,2,14a1.08,1.08,0,0,1-.3-.7V12.1a.55.55,0,0,0-.3-.5.76.76,0,0,0-.5-.2.76.76,0,0,0-.5.2,2.19,2.19,0,0,0-.3.5v1.2a2.73,2.73,0,0,0,.8,1.9,2.5,2.5,0,0,0,1.8.8H13.2a2.73,2.73,0,0,0,2.7-2.7V12.1a1.42,1.42,0,0,0-.2-.6A1.42,1.42,0,0,0,15.1,11.3Z" transform="translate(-0.1)" fill="#fff"/><path d="M8,0a1.09,1.09,0,0,0-.9.4,1.09,1.09,0,0,0-.4.9V7.4H4.8a.37.37,0,0,0-.3.1c-.2.2-.2.3-.3.4s-.1.2-.1.3.1.2.1.3l3.2,3.7.2.2c.1,0,.2.1.3.1a.37.37,0,0,0,.3-.1.22.22,0,0,0,.2-.2l3.2-3.7a.37.37,0,0,0,.1-.3.37.37,0,0,0-.1-.3c0-.1-.1-.2-.2-.3a.37.37,0,0,0-.3-.1H9.4V1.4A1.09,1.09,0,0,0,9,.5,1.22,1.22,0,0,0,8,0Z" transform="translate(-0.1)" fill="#fff"/></svg>