<svg width="16" height="16" viewBox="0 0 16 16" fill="none" xmlns="http://www.w3.org/2000/svg">
<path d="M15.1133 11.2932C14.8988 11.2932 14.6929 11.378 14.5406 11.5291C14.3882 11.6802 14.3018 11.8853 14.3 12.0999V13.3332C14.3 13.6108 14.1897 13.877 13.9934 14.0733C13.7972 14.2696 13.5309 14.3799 13.2533 14.3799H2.74667C2.46908 14.3799 2.20285 14.2696 2.00656 14.0733C1.81028 13.877 1.7 13.6108 1.7 13.3332V12.0999C1.68164 11.8977 1.58837 11.7098 1.43849 11.5729C1.28862 11.436 1.09298 11.3601 0.890002 11.3601C0.687027 11.3601 0.491387 11.436 0.341512 11.5729C0.191637 11.7098 0.0983595 11.8977 0.0800018 12.0999V13.3332C0.0800018 14.0405 0.360953 14.7187 0.86105 15.2188C1.36115 15.7189 2.03942 15.9999 2.74667 15.9999H13.2533C13.9606 15.9999 14.6389 15.7189 15.139 15.2188C15.639 14.7187 15.92 14.0405 15.92 13.3332V12.0999C15.92 11.8859 15.835 11.6808 15.6837 11.5295C15.5325 11.3782 15.3273 11.2932 15.1133 11.2932Z" fill="#3AAC59"/>
<path d="M8.00001 0C7.657 0 7.32803 0.136262 7.08549 0.378809C6.84294 0.621356 6.70668 0.95032 6.70668 1.29333V7.33333C6.70668 7.37754 6.68912 7.41993 6.65786 7.45118C6.62661 7.48244 6.58421 7.5 6.54001 7.5H4.76668C4.64685 7.5082 4.53146 7.54861 4.43271 7.61698C4.33396 7.68534 4.25551 7.77912 4.20565 7.88839C4.1558 7.99766 4.13639 8.11837 4.14948 8.23776C4.16257 8.35715 4.20767 8.47079 4.28001 8.56667L7.51334 12.2867C7.5757 12.3533 7.65107 12.4064 7.73478 12.4427C7.8185 12.479 7.90877 12.4977 8.00001 12.4977C8.09125 12.4977 8.18153 12.479 8.26524 12.4427C8.34895 12.4064 8.42432 12.3533 8.48668 12.2867L11.72 8.56667C11.7924 8.47079 11.8375 8.35715 11.8505 8.23776C11.8636 8.11837 11.8442 7.99766 11.7944 7.88839C11.7445 7.77912 11.6661 7.68534 11.5673 7.61698C11.4686 7.54861 11.3532 7.5082 11.2333 7.5H9.46001C9.41581 7.5 9.37342 7.48244 9.34216 7.45118C9.3109 7.41993 9.29334 7.37754 9.29334 7.33333V1.29333C9.29334 0.95032 9.15708 0.621356 8.91454 0.378809C8.67199 0.136262 8.34302 0 8.00001 0V0Z" fill="#3AAC59"/>
</svg>
