<svg width="24" height="24" viewBox="0 0 24 24" fill="none" xmlns="http://www.w3.org/2000/svg">
<g clip-path="url(#clip0_346:868)">
<path d="M21.4286 2.14282H2.57143C1.88944 2.14282 1.23539 2.41374 0.753154 2.89598C0.270918 3.37821 0 4.03227 0 4.71425L0 19.2857C0 19.9677 0.270918 20.6217 0.753154 21.104C1.23539 21.5862 1.88944 21.8571 2.57143 21.8571H21.4286C22.1106 21.8571 22.7646 21.5862 23.2468 21.104C23.7291 20.6217 24 19.9677 24 19.2857V4.71425C24 4.03227 23.7291 3.37821 23.2468 2.89598C22.7646 2.41374 22.1106 2.14282 21.4286 2.14282V2.14282ZM21.24 9.23996L14.3829 13.3543C13.6586 13.7912 12.8287 14.0222 11.9829 14.0222C11.137 14.0222 10.3071 13.7912 9.58286 13.3543L2.72571 9.23996C2.44842 9.0563 2.2531 8.77233 2.18076 8.4477C2.10842 8.12306 2.16469 7.78302 2.33777 7.49901C2.51084 7.21499 2.78724 7.00909 3.10892 6.92456C3.4306 6.84003 3.77251 6.88344 4.06286 7.04568L10.92 11.1428C11.242 11.3328 11.609 11.433 11.9829 11.433C12.3567 11.433 12.7237 11.3328 13.0457 11.1428L19.9029 7.04568C20.1932 6.88344 20.5351 6.84003 20.8568 6.92456C21.1785 7.00909 21.4549 7.21499 21.6279 7.49901C21.801 7.78302 21.8573 8.12306 21.785 8.4477C21.7126 8.77233 21.5173 9.0563 21.24 9.23996V9.23996Z" fill="#3AAC59"/>
</g>
<defs>
<clipPath id="clip0_346:868">
<rect width="24" height="24" fill="white"/>
</clipPath>
</defs>
</svg>
