<svg width="16" height="16" viewBox="0 0 16 16" fill="none" xmlns="http://www.w3.org/2000/svg">
<g clip-path="url(#clip0_378:92)">
<path d="M15.5 4.64263e-07H10.1667C10.0674 -0.000135737 9.97033 0.029699 9.88826 0.0856029C9.80618 0.141507 9.74289 0.220877 9.70666 0.313334C9.66877 0.403754 9.65869 0.503414 9.67768 0.599593C9.69668 0.695773 9.74391 0.784111 9.81333 0.853334L12 3.00667L5.7 9.20667C5.57583 9.33158 5.50613 9.50054 5.50613 9.67667C5.50613 9.85279 5.57583 10.0218 5.7 10.1467C5.76174 10.2097 5.83537 10.2598 5.91662 10.2941C5.99787 10.3284 6.08512 10.3463 6.17333 10.3467C6.34728 10.3477 6.51475 10.2807 6.64 10.16L12.96 3.94L15.1533 6.1C15.1995 6.14674 15.2545 6.18379 15.3152 6.20898C15.3759 6.23416 15.441 6.24698 15.5067 6.24667C15.5732 6.24687 15.639 6.23325 15.7 6.20667C15.79 6.16836 15.8665 6.10417 15.9199 6.02227C15.9733 5.94037 16.0012 5.84444 16 5.74667V0.5C15.9983 0.367929 15.945 0.241753 15.8516 0.148356C15.7582 0.0549599 15.6321 0.00172711 15.5 4.64263e-07Z" fill="#3AAC59"/>
<path d="M12.3333 7.08C12.1565 7.08 11.987 7.15024 11.8619 7.27526C11.7369 7.40029 11.6667 7.56986 11.6667 7.74667V14.6667H1.33333V4.33333H8.24667C8.42348 4.33333 8.59305 4.2631 8.71807 4.13807C8.8431 4.01305 8.91333 3.84348 8.91333 3.66667C8.91333 3.48986 8.8431 3.32029 8.71807 3.19526C8.59305 3.07024 8.42348 3 8.24667 3H1.24667C0.91603 3 0.598936 3.13134 0.36514 3.36514C0.131345 3.59894 1.25595e-10 3.91603 1.25595e-10 4.24667L1.25595e-10 14.7467C-4.68603e-06 15.0779 0.131127 15.3957 0.364733 15.6306C0.598338 15.8654 0.915419 15.9982 1.24667 16H11.7467C12.0791 16 12.3979 15.868 12.6329 15.6329C12.868 15.3979 13 15.0791 13 14.7467V7.74667C13 7.56986 12.9298 7.40029 12.8047 7.27526C12.6797 7.15024 12.5101 7.08 12.3333 7.08Z" fill="#3AAC59"/>
</g>
<defs>
<clipPath id="clip0_378:92">
<rect width="16" height="16" fill="white"/>
</clipPath>
</defs>
</svg>
