<svg width="24" height="24" viewBox="0 0 24 24" fill="none" xmlns="http://www.w3.org/2000/svg">
<g clip-path="url(#clip0_346:882)">
<path d="M15.24 23.0745C16.3719 23.8016 17.7185 24.1199 19.0562 23.9765C20.3938 23.8331 21.6423 23.2365 22.5943 22.2859L23.4172 21.463C23.6006 21.2813 23.7463 21.0651 23.8457 20.8267C23.9451 20.5884 23.9963 20.3327 23.9963 20.0745C23.9963 19.8162 23.9451 19.5606 23.8457 19.3222C23.7463 19.0839 23.6006 18.8676 23.4172 18.6859L19.9886 15.2573C19.8069 15.0739 19.5906 14.9282 19.3523 14.8288C19.1139 14.7294 18.8582 14.6782 18.6 14.6782C18.3418 14.6782 18.0861 14.7294 17.8478 14.8288C17.6094 14.9282 17.3932 15.0739 17.2114 15.2573V15.2573C17.0297 15.4408 16.8135 15.5865 16.5751 15.6859C16.3368 15.7853 16.0811 15.8364 15.8229 15.8364C15.5646 15.8364 15.309 15.7853 15.0706 15.6859C14.8323 15.5865 14.616 15.4408 14.4343 15.2573L8.81144 9.61734C8.44609 9.25099 8.24093 8.75472 8.24093 8.23734C8.24093 7.71995 8.44609 7.22368 8.81144 6.85734V6.85734C8.99492 6.67562 9.14057 6.45935 9.23997 6.22101C9.33937 5.98267 9.39055 5.727 9.39055 5.46876C9.39055 5.21053 9.33937 4.95486 9.23997 4.71652C9.14057 4.47818 8.99492 4.26191 8.81144 4.08019L5.38287 0.651622C5.20116 0.468139 4.98488 0.322489 4.74654 0.223089C4.50821 0.123689 4.25253 0.0725098 3.9943 0.0725098C3.73606 0.0725098 3.48039 0.123689 3.24205 0.223089C3.00371 0.322489 2.78744 0.468139 2.60573 0.651622L1.7143 1.40591C0.766473 2.35955 0.171879 3.60769 0.0285302 4.94457C-0.114818 6.28145 0.201635 7.62728 0.925725 8.76019C4.74539 14.3969 9.60331 19.2548 15.24 23.0745V23.0745Z" fill="#3AAC59"/>
</g>
<defs>
<clipPath id="clip0_346:882">
<rect width="24" height="24" fill="white"/>
</clipPath>
</defs>
</svg>
