<svg width="32" height="32" viewBox="0 0 32 32" fill="none" xmlns="http://www.w3.org/2000/svg">
<g clip-path="url(#clip0_313:228)">
<path d="M7.21333 15.8534C7.12484 15.6974 6.99704 15.5673 6.84265 15.4761C6.68825 15.3849 6.51265 15.3357 6.33333 15.3334H5.74667C5.65285 15.3341 5.56003 15.3141 5.47477 15.275C5.38952 15.2358 5.31392 15.1784 5.25333 15.1067C5.1893 15.0376 5.14166 14.955 5.11396 14.865C5.08626 14.775 5.07921 14.6798 5.09333 14.5867C5.37146 12.4414 6.27598 10.4257 7.69375 8.79178C9.11152 7.15786 10.9796 5.97825 13.0643 5.40051C15.149 4.82277 17.3578 4.87255 19.4143 5.54361C21.4709 6.21468 23.2839 7.47725 24.6267 9.17339C24.8633 9.3787 25.1648 9.49409 25.4781 9.49933C25.7913 9.50457 26.0965 9.39932 26.3399 9.20204C26.5833 9.00476 26.7495 8.72806 26.8092 8.42049C26.869 8.11292 26.8185 7.79413 26.6667 7.52005C24.9687 5.39498 22.6752 3.82493 20.0798 3.01086C17.4844 2.19679 14.705 2.17573 12.0976 2.95039C9.49009 3.72504 7.17309 5.26016 5.44313 7.35926C3.71316 9.45836 2.64894 12.0259 2.38667 14.7334C2.37033 14.8961 2.29474 15.0472 2.17427 15.1578C2.0538 15.2684 1.89687 15.3309 1.73333 15.3334H1C0.820531 15.3321 0.644011 15.379 0.488957 15.4694C0.333903 15.5598 0.206031 15.6902 0.118755 15.8471C0.0314795 16.0039 -0.0119827 16.1813 -0.00707177 16.3607C-0.00216087 16.5401 0.0509421 16.7149 0.146666 16.8667L2.81333 21.1334C2.905 21.2765 3.03121 21.3943 3.18033 21.4759C3.32945 21.5575 3.49669 21.6002 3.66667 21.6002C3.83664 21.6002 4.00389 21.5575 4.15301 21.4759C4.30213 21.3943 4.42833 21.2765 4.52 21.1334L7.18667 16.8667C7.27969 16.715 7.33113 16.5415 7.33581 16.3636C7.3405 16.1857 7.29825 16.0098 7.21333 15.8534Z" fill="#3AAC59"/>
<path d="M31.8533 15.1334L29.1867 10.8667C29.089 10.7318 28.9608 10.6219 28.8124 10.5462C28.6641 10.4704 28.4999 10.4309 28.3333 10.4309C28.1668 10.4309 28.0026 10.4704 27.8542 10.5462C27.7059 10.6219 27.5777 10.7318 27.48 10.8667L24.8133 15.1334C24.7176 15.2852 24.6645 15.46 24.6596 15.6394C24.6547 15.8188 24.6982 15.9962 24.7854 16.153C24.8727 16.3099 25.0006 16.4403 25.1556 16.5307C25.3107 16.6211 25.4872 16.6681 25.6667 16.6667H26.2533C26.3472 16.666 26.44 16.686 26.5252 16.7251C26.6105 16.7643 26.6861 16.8218 26.7467 16.8934C26.8107 16.9625 26.8583 17.0451 26.886 17.1351C26.9137 17.2251 26.9208 17.3203 26.9067 17.4134C26.6285 19.5587 25.724 21.5744 24.3063 23.2083C22.8885 24.8422 21.0204 26.0219 18.9357 26.5996C16.851 27.1773 14.6422 27.1276 12.5857 26.4565C10.5291 25.7854 8.71607 24.5229 7.37334 22.8267C7.13666 22.6214 6.83523 22.506 6.52195 22.5008C6.20868 22.4955 5.90356 22.6008 5.66014 22.7981C5.41672 22.9953 5.25056 23.272 5.1908 23.5796C5.13104 23.8872 5.18151 24.206 5.33334 24.4801C7.02717 26.6029 9.31509 28.1731 11.9051 28.99C14.4952 29.807 17.2699 29.8337 19.8752 29.0669C22.4805 28.3 24.7983 26.7743 26.5328 24.6845C28.2672 22.5946 29.3397 20.0354 29.6133 17.3334C29.6297 17.1706 29.7053 17.0196 29.8257 16.909C29.9462 16.7983 30.1031 16.7358 30.2667 16.7334H31C31.1795 16.7347 31.356 16.6877 31.511 16.5974C31.6661 16.507 31.794 16.3765 31.8812 16.2197C31.9685 16.0629 32.012 15.8855 32.0071 15.706C32.0022 15.5266 31.9491 15.3519 31.8533 15.2001V15.1334Z" fill="#3AAC59"/>
<path d="M17.8267 14.8266C16.5406 15.946 15.5899 17.3997 15.08 19.0266C15.0242 19.1882 15.0302 19.3647 15.0966 19.5222C15.1631 19.6797 15.2853 19.8071 15.44 19.88C15.7631 20.0104 16.1054 20.087 16.4533 20.1066C17.1525 20.0597 17.8298 19.8435 18.4268 19.4765C19.0238 19.1094 19.5225 18.6027 19.88 18C20.5919 16.5927 20.9516 15.0337 20.9284 13.4569C20.9052 11.88 20.4997 10.3323 19.7467 8.94663C19.6895 8.86594 19.6161 8.79815 19.5311 8.74762C19.4461 8.69709 19.3515 8.66496 19.2533 8.65329C19.1551 8.6442 19.0561 8.65747 18.9637 8.69211C18.8713 8.72675 18.788 8.78185 18.72 8.85329C17.829 9.72144 16.7662 10.3936 15.6 10.8266C14.5745 11.198 13.6256 11.7539 12.8 12.4666C12.337 12.8448 11.9735 13.3304 11.7411 13.8811C11.5087 14.4319 11.4145 15.0311 11.4667 15.6266C11.5771 16.2873 11.9114 16.8898 12.4133 17.3333C12.5102 17.4227 12.5783 17.5389 12.6092 17.667C12.64 17.7952 12.6322 17.9296 12.5867 18.0533C12.0524 19.4917 11.6594 20.9787 11.4133 22.4933C11.4001 22.58 11.4041 22.6684 11.425 22.7536C11.446 22.8387 11.4836 22.9189 11.5356 22.9895C11.5877 23.0601 11.6531 23.1197 11.7282 23.165C11.8033 23.2103 11.8866 23.2403 11.9733 23.2533C12.1518 23.276 12.3321 23.227 12.4745 23.117C12.617 23.007 12.7101 22.8451 12.7333 22.6666C13.1733 19.7466 14.6267 15.44 17.0533 13.72C17.1251 13.6692 17.2062 13.633 17.292 13.6136C17.3777 13.5942 17.4665 13.5918 17.5531 13.6067C17.6398 13.6215 17.7227 13.6533 17.7971 13.7002C17.8715 13.7471 17.9359 13.8082 17.9867 13.88C18.0374 13.9517 18.0736 14.0328 18.093 14.1186C18.1125 14.2043 18.1148 14.2931 18.1 14.3798C18.0851 14.4664 18.0533 14.5493 18.0064 14.6237C17.9595 14.6981 17.8984 14.7625 17.8267 14.8133V14.8266Z" fill="#3AAC59"/>
</g>
<defs>
<clipPath id="clip0_313:228">
<rect width="32" height="32" fill="white"/>
</clipPath>
</defs>
</svg>
