<svg width="32" height="32" viewBox="0 0 32 32" fill="none" xmlns="http://www.w3.org/2000/svg">
<g clip-path="url(#clip0_313:201)">
<path d="M16 17.9867C17.1046 17.9867 18 17.0913 18 15.9867C18 14.8821 17.1046 13.9867 16 13.9867C14.8954 13.9867 14 14.8821 14 15.9867C14 17.0913 14.8954 17.9867 16 17.9867Z" fill="#3AAC59"/>
<path d="M16 6.31995C15.3823 6.32345 14.7908 6.5704 14.354 7.00723C13.9171 7.44406 13.6702 8.03552 13.6667 8.65328V10.3199C13.6667 10.4968 13.7369 10.6663 13.8619 10.7914C13.987 10.9164 14.1565 10.9866 14.3334 10.9866H17.6667C17.8435 10.9866 18.0131 10.9164 18.1381 10.7914C18.2631 10.6663 18.3334 10.4968 18.3334 10.3199V8.65328C18.3299 8.03552 18.0829 7.44406 17.6461 7.00723C17.2092 6.5704 16.6178 6.32345 16 6.31995Z" fill="#3AAC59"/>
<path d="M32 2.66667C32 1.95942 31.719 1.28115 31.2189 0.781049C30.7189 0.280952 30.0406 0 29.3333 0L2.66667 0C1.95942 0 1.28115 0.280952 0.781049 0.781049C0.280952 1.28115 0 1.95942 0 2.66667L0 12.4133C0.0249276 16.9873 1.60348 21.4169 4.47676 24.9758C7.35003 28.5347 11.3474 31.0115 15.8133 32C15.9017 32.0131 15.9916 32.0131 16.08 32C16.1684 32.0126 16.2582 32.0126 16.3467 32C20.8063 30.9723 24.7844 28.4596 27.6286 24.8742C30.4727 21.2887 32.0141 16.8432 32 12.2667V2.66667ZM22.6667 19.6533C22.6667 20.007 22.5262 20.3461 22.2761 20.5961C22.0261 20.8462 21.687 20.9867 21.3333 20.9867H10.6667C10.313 20.9867 9.97391 20.8462 9.72386 20.5961C9.47381 20.3461 9.33333 20.007 9.33333 19.6533V12.32C9.33333 11.9664 9.47381 11.6272 9.72386 11.3772C9.97391 11.1271 10.313 10.9867 10.6667 10.9867H11C11.1768 10.9867 11.3464 10.9164 11.4714 10.7914C11.5964 10.6664 11.6667 10.4968 11.6667 10.32V8.65333C11.6667 7.50406 12.1232 6.40186 12.9359 5.5892C13.7485 4.77655 14.8507 4.32 16 4.32C17.1493 4.32 18.2515 4.77655 19.0641 5.5892C19.8768 6.40186 20.3333 7.50406 20.3333 8.65333V10.32C20.3333 10.4968 20.4036 10.6664 20.5286 10.7914C20.6536 10.9164 20.8232 10.9867 21 10.9867H21.3333C21.687 10.9867 22.0261 11.1271 22.2761 11.3772C22.5262 11.6272 22.6667 11.9664 22.6667 12.32V19.6533Z" fill="#3AAC59"/>
</g>
<defs>
<clipPath id="clip0_313:201">
<rect width="32" height="32" fill="white"/>
</clipPath>
</defs>
</svg>
