<svg width="180" height="180" viewBox="0 0 180 180" fill="none" xmlns="http://www.w3.org/2000/svg">
<circle cx="90" cy="90" r="90" fill="#0D3349"/>
<path fill-rule="evenodd" clip-rule="evenodd" d="M96.8337 42.7936L96.2829 42.2733L95.6181 42.6324C92.112 44.5258 87.888 44.5258 84.3819 42.6324L83.6937 42.2607L83.1602 42.7647C80.2636 45.5011 76.1835 46.5944 72.3068 45.6729L71.5926 45.5031L71.1824 46.1691C69.0928 49.562 65.4347 51.674 61.4515 51.7873L60.6959 51.8087L60.4791 52.5348C59.3388 56.3529 56.3519 59.3397 52.5338 60.48L51.8087 60.6966L51.7873 61.4509C51.674 65.434 49.562 69.0921 46.1691 71.1818L45.5045 71.5911L45.6743 72.3053C46.5958 76.1821 45.5025 80.2622 42.7661 83.1588L42.2612 83.6933L42.633 84.3819C44.5265 87.888 44.5265 92.112 42.633 95.6181L42.2731 96.2846L42.7927 96.8346C45.5291 99.7312 46.6224 103.811 45.7008 107.688L45.5262 108.423L46.1691 108.819C49.562 110.908 51.674 114.567 51.7873 118.55L51.8094 119.329L52.5143 119.539C56.3324 120.68 59.3192 123.667 60.4596 127.485L60.6704 128.191L61.4515 128.213C65.4347 128.326 69.0928 130.438 71.1824 133.831L71.5797 134.476L72.3142 134.301C76.1909 133.38 80.2711 134.473 83.1676 137.21L83.7161 137.728L84.3819 137.368C87.888 135.475 92.112 135.475 95.6181 137.368L96.3045 137.739L96.8402 137.233C99.7367 134.496 103.817 133.403 107.694 134.325L108.41 134.495L108.819 133.831C110.909 130.438 114.567 128.326 118.55 128.213L119.306 128.191L119.522 127.468C120.662 123.65 123.649 120.663 127.467 119.523L128.191 119.307L128.213 118.55C128.326 114.567 130.438 110.908 133.831 108.819L134.496 108.409L134.326 107.692C133.405 103.815 134.498 99.7353 137.234 96.8387L137.739 96.3041L137.369 95.6181C135.475 92.112 135.475 87.888 137.369 84.3819L137.727 83.7178L137.209 83.1686C134.472 80.272 133.379 76.1919 134.3 72.3151L134.475 71.5788L133.831 71.1818C130.438 69.0921 128.326 65.434 128.213 61.4509L128.19 60.6685L127.486 60.4581C123.668 59.3178 120.681 56.331 119.541 52.5129L119.331 51.8094L118.55 51.7873C114.567 51.674 110.909 49.562 108.819 46.1691L108.424 45.5266L107.687 45.7018C103.81 46.6233 99.7302 45.53 96.8337 42.7936ZM94.5591 40.6448L89.9816 36.3205L85.4175 40.6322L85.452 40.6508C88.2903 42.1836 91.7097 42.1837 94.548 40.6508L94.5591 40.6448ZM88.3419 34.7714L81.9319 28.7158L77.2944 36.2453L83.3309 39.5054L88.3419 34.7714ZM67.3475 29.5372L67.0039 30.6879L75.3097 35.1735L80.2598 27.1362L79.3867 26.3113C75.4244 22.5682 68.9074 24.3144 67.3475 29.5372ZM66.3456 32.8919L63.8221 41.3413L70.5291 42.9356L74.1268 37.0941L66.3456 32.8919ZM69.2855 44.9547L63.1766 43.5026L61.3746 49.5365L61.3875 49.5361C64.612 49.4445 67.5733 47.7347 69.2649 44.9881L69.2855 44.9547ZM49.5365 61.3752L43.5044 63.1767L44.9561 69.284L44.9881 69.2643C47.7347 67.5726 49.4445 64.6113 49.5361 61.3868L49.5365 61.3752ZM41.3431 63.8222L32.8927 66.346L37.0943 74.126L42.9369 70.5276L41.3431 63.8222ZM26.3104 79.3876L27.1347 80.2601L35.1737 75.3089L30.6888 67.0042L29.5363 67.3484C24.3135 68.9083 22.5673 75.4253 26.3104 79.3876ZM28.7143 81.9321L34.7706 88.3429L39.5058 83.3305L36.2456 77.2936L28.7143 81.9321ZM36.3196 89.9826L40.6446 94.5608L40.6515 94.548C42.1843 91.7097 42.1843 88.2903 40.6515 85.452L40.6327 85.4171L36.3196 89.9826ZM44.9778 110.73L43.5221 116.854L49.5372 118.65L49.5361 118.614C49.4445 115.389 47.7347 112.428 44.9881 110.736L44.9778 110.73ZM43.0005 119.048L40.9605 127.63L49.7997 127.881L49.6046 121.021L43.0005 119.048ZM48.9636 139.852L50.1321 139.574L49.8638 130.136L40.4286 129.868L40.1503 131.039C38.8897 136.342 43.6606 141.112 48.9636 139.852ZM52.3699 139.042L60.9518 137.002L58.9786 130.395L52.1185 130.2L52.3699 139.042ZM63.1463 136.481L69.2726 135.024L69.2649 135.012C67.5733 132.265 64.612 130.556 61.3875 130.464L61.349 130.463L63.1463 136.481ZM85.4399 139.356L90.0162 143.679L94.5807 139.367L94.548 139.35C91.7097 137.817 88.2903 137.817 85.452 139.35L85.4399 139.356ZM91.6559 145.228L98.0686 151.287L102.707 143.756L96.6672 140.494L91.6559 145.228ZM112.654 150.466L112.998 149.314L104.691 144.828L99.7406 152.866L100.615 153.692C104.577 157.435 111.094 155.689 112.654 150.466ZM113.656 147.11L116.181 138.657L109.474 137.063L105.874 142.907L113.656 147.11ZM116.826 136.495L118.628 130.463L118.614 130.464C115.39 130.556 112.429 132.265 110.737 135.012L110.718 135.043L116.826 136.495ZM130.463 118.628L136.497 116.826L135.045 110.716L135.012 110.736C132.265 112.428 130.556 115.389 130.464 118.614L130.463 118.628ZM138.659 116.181L147.111 113.657L142.907 105.874L137.064 109.472L138.659 116.181ZM153.691 100.616L152.865 99.7409L144.828 104.691L149.314 112.998L150.465 112.655C155.688 111.095 157.434 104.578 153.691 100.616ZM151.285 98.0689L145.228 91.6569L140.495 96.6668L143.756 102.706L151.285 98.0689ZM143.679 90.0172L139.356 85.4416L139.35 85.452C137.818 88.2903 137.818 91.7097 139.35 94.548L139.368 94.5803L143.679 90.0172ZM135.024 69.2717L136.48 63.1444L130.463 61.3471L130.464 61.3868C130.556 64.6113 132.265 67.5726 135.012 69.2643L135.024 69.2717ZM137.002 60.9498L139.042 52.3699L130.2 52.1185L130.395 58.9767L137.002 60.9498ZM131.038 40.1512L129.868 40.4293L130.136 49.8638L139.573 50.1321L139.851 48.9645C141.112 43.6615 136.341 38.8907 131.038 40.1512ZM127.63 40.9612L119.05 43.0007L121.023 49.6046L127.881 49.7996L127.63 40.9612ZM116.856 43.5223L110.731 44.9782L110.737 44.9881C112.429 47.7347 115.39 49.4445 118.614 49.5361L118.652 49.5372L116.856 43.5223ZM98.392 41.1343C100.735 43.3449 104.033 44.2286 107.167 43.486L103.89 38.1652L98.392 41.1343ZM102.707 36.2446L96.6682 39.5058L91.639 34.7548L98.0558 28.6927L102.707 36.2446ZM105.875 37.0933L109.474 42.9376L116.203 41.338L113.677 32.8796L105.875 37.0933ZM113.019 30.6756L104.692 35.1727L99.7279 27.1132L100.626 26.2648C104.588 22.5216 111.105 24.2679 112.665 29.4907L113.019 30.6756ZM115.701 31.7866L118.398 40.8163L127.564 38.6375L127.531 37.4593C127.376 32.0107 121.533 28.6372 116.737 31.2273L115.701 31.7866ZM129.802 38.1056L129.782 37.3953C129.579 30.2702 121.938 25.8587 115.666 29.2458L115.043 29.5826L114.823 28.8462C112.783 22.0164 104.261 19.7328 99.0793 24.6278L98.5216 25.1547L98.1504 24.5519C94.4124 18.4827 85.5895 18.4827 81.8515 24.5519L81.479 25.1566L80.9219 24.6302C75.7404 19.7353 67.2181 22.0189 65.1783 28.8487L64.9589 29.5835L64.3336 29.2458C58.0618 25.8587 50.4209 30.2702 50.2183 37.3953L50.1982 38.1028L49.4519 37.9254C42.5172 36.277 36.2784 42.5158 37.9268 49.4505L38.1046 50.1982L37.3959 50.2183C30.2709 50.4209 25.8594 58.0618 29.2465 64.3336L29.5842 64.9588L28.8485 65.1785C22.0187 67.2183 19.7351 75.7406 24.6301 80.922L25.156 81.4788L24.5519 81.8508C18.4827 85.5888 18.4827 94.4117 24.5519 98.1497L25.1551 98.5212L24.6292 99.0779C19.7343 104.259 22.0178 112.782 28.8477 114.821L29.5841 115.041L29.2465 115.666C25.8594 121.938 30.2709 129.579 37.3959 129.782L38.1054 129.802L37.9277 130.55C36.2793 137.484 42.518 143.723 49.4528 142.075L50.1982 141.897L50.2183 142.605C50.4209 149.73 58.0618 154.142 64.3336 150.755L64.9583 150.417L65.1775 151.151C67.2173 157.981 75.7396 160.265 80.921 155.37L81.4787 154.843L81.8515 155.448C85.5895 161.517 94.4124 161.517 98.1504 155.448L98.5219 154.845L99.0802 155.372C104.262 160.267 112.784 157.984 114.824 151.154L115.043 150.418L115.666 150.755C121.938 154.142 129.579 149.73 129.782 142.605L129.802 141.895L130.548 142.072C137.483 143.721 143.722 137.482 142.074 130.547L141.896 129.802L142.606 129.782C149.731 129.579 154.142 121.938 150.755 115.666L150.419 115.043L151.154 114.824C157.983 112.784 160.267 104.262 155.372 99.0804L154.844 98.5217L155.448 98.1497C161.517 94.4117 161.517 85.5888 155.448 81.8508L154.843 81.4783L155.371 80.9196C160.266 75.7381 157.983 67.2158 151.153 65.1761L150.419 64.9569L150.755 64.3336C154.142 58.0618 149.731 50.4209 142.606 50.2183L141.897 50.1982L142.074 49.4529C143.723 42.5182 137.484 36.2795 130.549 37.9279L129.802 38.1056ZM127.946 52.0544L121.701 51.8768C122.625 54.9612 125.039 57.3742 128.123 58.2981L127.946 52.0544ZM136.516 72.8356C135.774 75.9692 136.657 79.266 138.866 81.6087L141.835 76.1116L136.516 72.8356ZM142.907 74.1269L137.065 70.5285L138.665 63.7968L147.122 66.3225L142.907 74.1269ZM143.756 77.2945L140.495 83.3326L145.244 88.3598L151.305 81.9441L143.756 77.2945ZM152.885 80.2721L144.828 75.3098L149.326 66.9808L150.508 67.3339C155.731 68.8937 157.477 75.4108 153.734 79.3731L152.885 80.2721ZM153.264 83.1503L146.793 89.9995L153.265 96.8496L154.267 96.2322C158.908 93.3737 158.908 86.6268 154.267 83.7683L153.264 83.1503ZM141.835 103.889L138.866 98.3906C136.656 100.734 135.773 104.031 136.516 107.165L141.835 103.889ZM128.123 121.702C125.039 122.626 122.626 125.039 121.702 128.123L127.946 127.946L128.123 121.702ZM130.2 127.881L130.395 121.024L137.024 119.044L139.065 127.629L130.2 127.881ZM127.881 130.2L121.023 130.395L119.044 137.023L127.629 139.063L127.881 130.2ZM129.867 139.595L130.136 130.136L139.597 129.867L139.883 131.068C141.143 136.371 136.372 141.142 131.069 139.881L129.867 139.595ZM127.564 141.363L118.399 139.184L115.702 148.214L116.737 148.773C121.533 151.363 127.376 147.99 127.531 142.541L127.564 141.363ZM103.89 141.835L107.167 136.514C104.032 135.771 100.734 136.655 98.391 138.866L103.89 141.835ZM81.6081 138.866C79.2656 136.657 75.9694 135.774 72.8363 136.516L76.1118 141.834L81.6081 138.866ZM77.2947 143.755L83.3319 140.495L88.3596 145.244L81.9445 151.305L77.2947 143.755ZM74.1271 142.906L70.5292 137.065L63.7985 138.665L66.3239 147.12L74.1271 142.906ZM66.9822 149.324L75.31 144.827L80.2725 152.884L79.3745 153.733C75.4122 157.476 68.8952 155.73 67.3353 150.507L66.9822 149.324ZM64.3001 148.213L61.604 139.186L52.436 141.365L52.4694 142.541C52.6244 147.99 58.4674 151.363 63.2635 148.773L64.3001 148.213ZM52.0544 127.946L58.2999 128.123C57.3762 125.037 54.9623 122.623 51.8768 121.699L52.0544 127.946ZM43.486 107.166C44.2282 104.032 43.3446 100.735 41.1346 98.3927L38.166 103.89L43.486 107.166ZM37.0941 105.874L42.9376 109.473L41.3383 116.202L32.881 113.676L37.0941 105.874ZM36.2454 102.707L39.5061 96.6689L34.7546 91.6392L28.6932 98.0554L36.2454 102.707ZM27.1136 99.7275L35.1735 104.692L30.677 113.017L29.4921 112.664C24.2693 111.104 22.523 104.587 26.2662 100.624L27.1136 99.7275ZM26.7347 96.8492L33.2056 89.9995L26.7356 83.1508L25.7329 83.7683C21.0917 86.6268 21.0917 93.3737 25.7329 96.2322L26.7347 96.8492ZM38.1662 76.1107L41.1343 81.6067C43.3437 79.2643 44.2271 75.968 43.4854 72.8347L38.1662 76.1107ZM51.8768 58.3009C54.9627 57.377 57.377 54.9628 58.3008 51.8768L52.0544 52.0545L51.8768 58.3009ZM49.7997 52.1186L49.6046 58.9795L42.9772 60.9589L40.9357 52.3706L49.7997 52.1186ZM49.8638 49.8638L40.4038 50.1328L40.1178 48.9297C38.8573 43.6266 43.6281 38.8558 48.9311 40.1164L50.1328 40.402L49.8638 49.8638ZM52.1185 49.7997L52.3706 40.934L60.9593 42.9755L58.9794 49.6046L52.1185 49.7997ZM52.436 38.6348L61.6048 40.8142L64.3007 31.7875L63.2634 31.2273C58.4674 28.6372 52.6244 32.0107 52.4694 37.4593L52.436 38.6348ZM76.1115 38.166L72.8362 43.484C75.969 44.2256 79.2648 43.3425 81.6071 41.1339L76.1115 38.166ZM139.186 61.6022L148.215 64.2986L148.774 63.2634C151.364 58.4674 147.991 52.6244 142.542 52.4694L141.365 52.436L139.186 61.6022ZM139.186 118.398L141.364 127.564L142.542 127.531C147.991 127.376 151.364 121.533 148.774 116.737L148.215 115.702L139.186 118.398ZM89.9993 146.793L83.1507 153.263L83.769 154.267C86.6275 158.908 93.3744 158.908 96.2329 154.267L96.8499 153.265L89.9993 146.793ZM40.8166 118.396L31.788 115.7L31.228 116.737C28.6379 121.533 32.0114 127.376 37.4599 127.531L38.6374 127.564L40.8166 118.396ZM40.8159 61.6044L38.6365 52.436L37.4599 52.4694C32.0114 52.6244 28.6379 58.4674 31.228 63.2635L31.7881 64.3006L40.8159 61.6044ZM89.9993 33.2057L96.8496 26.7342L96.2329 25.7329C93.3744 21.0917 86.6275 21.0917 83.769 25.7329L83.1511 26.7362L89.9993 33.2057ZM116.447 77.2888C112.058 86.3819 103.871 101.914 96.0288 105.305C88.1869 108.697 78.3179 108.61 72.3551 101.619C70.4316 101.619 64.9571 103.388 58.1509 107.517C64.5132 101.619 81.2623 90.5892 94.4012 86.5785C86.1154 88.053 76.35 91.4445 69.5439 96.0156C67.7683 90.8547 71.3194 78.0261 82.5644 74.1923C93.8094 70.3584 111.269 74.7821 116.447 77.2888Z" fill="url(#paint0_angular)"/>
<defs>
<radialGradient id="paint0_angular" cx="0" cy="0" r="1" gradientUnits="userSpaceOnUse" gradientTransform="translate(68.6621 103.345) rotate(22.4086) scale(42.3689 43.8445)">
<stop offset="0.115679" stop-color="#BCEFF2"/>
<stop offset="0.47506" stop-color="#FFE3D9"/>
<stop offset="0.644313" stop-color="#FFF3B5"/>
<stop offset="0.860484" stop-color="#DCFFBC"/>
</radialGradient>
</defs>
</svg>
