<svg id="svg" version="1.1" xmlns="http://www.w3.org/2000/svg" xmlns:xlink="http://www.w3.org/1999/xlink" width="400" height="400" viewBox="0, 0, 400,400"><g id="svgg"><path id="path0" d="M209.800 105.435 C 208.920 105.518,205.680 105.782,202.600 106.022 C 197.280 106.435,189.293 107.408,188.000 107.800 C 187.670 107.901,186.230 108.166,184.800 108.391 C 174.364 110.029,161.467 114.217,154.200 118.326 C 152.880 119.073,151.440 119.824,151.000 119.996 C 149.351 120.641,138.444 128.235,134.401 131.553 C 104.590 156.021,88.790 194.175,95.419 225.689 C 96.225 229.521,96.329 229.574,99.061 227.548 C 103.431 224.307,107.258 221.829,112.600 218.780 C 115.736 216.990,129.277 210.400,129.818 210.400 C 129.906 210.400,130.928 209.964,132.089 209.431 C 143.938 203.992,178.456 192.164,195.800 187.600 C 196.460 187.426,199.430 186.622,202.400 185.813 C 218.853 181.332,221.600 180.716,221.600 181.506 C 221.600 181.674,220.655 182.142,219.500 182.546 C 213.841 184.522,198.432 190.717,197.820 191.262 C 197.611 191.448,197.219 191.600,196.948 191.600 C 196.677 191.600,195.289 192.140,193.863 192.800 C 192.437 193.460,191.156 194.000,191.017 194.000 C 190.877 194.000,189.417 194.630,187.773 195.400 C 186.128 196.170,184.707 196.800,184.615 196.800 C 184.523 196.800,182.896 197.520,181.000 198.400 C 179.104 199.280,177.465 200.000,177.358 200.000 C 175.670 200.000,137.127 220.155,124.971 227.394 C 122.195 229.047,119.861 230.400,119.784 230.400 C 119.660 230.400,115.902 232.751,103.800 240.402 C 90.330 248.917,67.855 264.845,54.000 275.695 C 52.350 276.987,50.376 278.529,49.614 279.122 C 37.599 288.467,36.071 290.165,42.884 286.600 C 58.206 278.581,75.320 270.575,87.600 265.684 C 95.131 262.684,103.062 260.441,108.429 259.794 L 110.658 259.526 116.229 265.096 C 130.784 279.651,146.439 287.034,169.513 290.223 C 175.006 290.983,192.609 290.874,196.800 290.055 C 198.010 289.819,200.710 289.338,202.800 288.988 C 204.890 288.637,207.140 288.193,207.800 288.001 C 208.460 287.809,210.170 287.351,211.600 286.984 C 238.127 280.174,260.870 263.718,281.000 236.768 C 281.440 236.179,283.239 233.830,284.998 231.549 C 286.757 229.267,288.569 226.860,289.025 226.200 C 289.481 225.540,290.618 223.920,291.553 222.600 C 302.021 207.817,316.859 183.485,326.435 165.400 C 327.484 163.420,329.162 160.270,330.164 158.400 C 331.167 156.530,334.430 150.050,337.415 144.000 C 340.400 137.950,343.013 132.687,343.221 132.305 C 344.089 130.713,343.737 130.349,339.800 128.768 C 339.360 128.591,336.390 127.605,333.200 126.576 C 330.010 125.548,326.410 124.372,325.200 123.963 C 319.963 122.194,311.235 119.671,300.600 116.854 C 291.394 114.416,288.869 113.777,285.400 113.007 C 283.640 112.616,281.750 112.148,281.200 111.966 C 280.650 111.783,279.120 111.428,277.800 111.175 C 274.089 110.465,272.461 110.135,269.000 109.391 C 256.127 106.622,244.980 105.592,226.000 105.418 C 217.970 105.344,210.680 105.352,209.800 105.435 " stroke="none" fill="#3cac5c" fill-rule="evenodd"></path><path id="path1" d="M0.000 200.000 L 0.000 400.000 200.000 400.000 L 400.000 400.000 400.000 200.000 L 400.000 0.000 200.000 0.000 L 0.000 0.000 0.000 200.000 M247.000 106.157 C 255.618 106.973,262.380 107.967,269.000 109.391 C 272.461 110.135,274.089 110.465,277.800 111.175 C 279.120 111.428,280.650 111.783,281.200 111.966 C 281.750 112.148,283.640 112.616,285.400 113.007 C 288.869 113.777,291.394 114.416,300.600 116.854 C 311.235 119.671,319.963 122.194,325.200 123.963 C 326.410 124.372,330.010 125.548,333.200 126.576 C 336.390 127.605,339.360 128.591,339.800 128.768 C 343.737 130.349,344.089 130.713,343.221 132.305 C 343.013 132.687,340.400 137.950,337.415 144.000 C 334.430 150.050,331.167 156.530,330.164 158.400 C 329.162 160.270,327.484 163.420,326.435 165.400 C 316.859 183.485,302.021 207.817,291.553 222.600 C 290.618 223.920,289.481 225.540,289.025 226.200 C 288.569 226.860,286.757 229.267,284.998 231.549 C 283.239 233.830,281.440 236.179,281.000 236.768 C 260.870 263.718,238.127 280.174,211.600 286.984 C 210.170 287.351,208.460 287.809,207.800 288.001 C 207.140 288.193,204.890 288.637,202.800 288.988 C 200.710 289.338,198.010 289.819,196.800 290.055 C 192.609 290.874,175.006 290.983,169.513 290.223 C 146.439 287.034,130.784 279.651,116.229 265.096 L 110.658 259.526 108.429 259.794 C 96.363 261.249,73.302 270.679,42.884 286.600 C 36.071 290.165,37.599 288.467,49.614 279.122 C 50.376 278.529,52.350 276.987,54.000 275.695 C 67.855 264.845,90.330 248.917,103.800 240.402 C 115.902 232.751,119.660 230.400,119.784 230.400 C 119.861 230.400,122.195 229.047,124.971 227.394 C 130.186 224.288,138.534 219.611,146.200 215.500 C 150.705 213.084,177.006 200.000,177.358 200.000 C 177.465 200.000,179.104 199.280,181.000 198.400 C 182.896 197.520,184.523 196.800,184.615 196.800 C 184.707 196.800,186.128 196.170,187.773 195.400 C 189.417 194.630,190.877 194.000,191.017 194.000 C 191.156 194.000,192.437 193.460,193.863 192.800 C 195.289 192.140,196.677 191.600,196.948 191.600 C 197.219 191.600,197.611 191.448,197.820 191.262 C 198.432 190.717,213.841 184.522,219.500 182.546 C 220.655 182.142,221.600 181.674,221.600 181.506 C 221.600 180.716,218.853 181.332,202.400 185.813 C 199.430 186.622,196.460 187.426,195.800 187.600 C 178.456 192.164,143.938 203.992,132.089 209.431 C 130.928 209.964,129.906 210.400,129.818 210.400 C 129.277 210.400,115.736 216.990,112.600 218.780 C 107.258 221.829,103.431 224.307,99.061 227.548 C 96.329 229.574,96.225 229.521,95.419 225.689 C 88.790 194.175,104.590 156.021,134.401 131.553 C 138.444 128.235,149.351 120.641,151.000 119.996 C 151.440 119.824,152.880 119.073,154.200 118.326 C 161.467 114.217,174.364 110.029,184.800 108.391 C 186.230 108.166,187.670 107.901,188.000 107.800 C 189.293 107.408,197.280 106.435,202.600 106.022 C 205.680 105.782,208.920 105.518,209.800 105.435 C 213.734 105.064,241.049 105.594,247.000 106.157 " stroke="none" fill="#fcfcfc" fill-rule="evenodd"></path></g></svg>