<svg width="16px" height="16px" viewBox="0 0 16 16" version="1.1" xmlns="http://www.w3.org/2000/svg" xmlns:xlink="http://www.w3.org/1999/xlink">
    <g id="Community" stroke="none" stroke-width="1" fill="none" fill-rule="evenodd" opacity="0.580566406">
        <g transform="translate(-1111.000000, -1146.000000)" fill="#FFFFFF" id="footer">
            <g transform="translate(0.000000, 988.000000)">
                <g id="find-us" transform="translate(997.000000, 109.000000)">
                    <g id="Group-17" transform="translate(0.000000, 49.000000)">
                        <g id="github" transform="translate(114.000000, 0.000000)">
                            <path d="M8.032,0.1888 C5.90273134,0.184543833 3.85940024,1.02828923 2.35347673,2.5336123 C0.847553215,4.03893536 0.00299299285,6.08192981 0.0064,8.2112 C0.0162618691,11.6632133 2.23499202,14.7212191 5.5136,15.8016 C5.9424,15.856 6.048,15.6416 6.048,15.4304 L6.048,14.0384 C3.8016,14.5184 3.3216,12.9696 3.3216,12.9696 C2.9472,12.0608 2.4128,11.792 2.4128,11.792 C1.664,11.312 2.4672,11.312 2.4672,11.312 C3.2672,11.3632 3.696,12.112 3.696,12.112 C4.3904,13.344 5.568,12.9696 6.048,12.7552 C6.06661237,12.3392978 6.26084563,11.9508312 6.5824,11.6864 C4.8192,11.472 2.9472,10.7776 2.9472,7.728 C2.9472,6.8736 3.2672,6.1248 3.7472,5.5904 C3.6416,5.376 3.376,4.5728 3.8016,3.4496 C3.8016,3.4496 4.4992,3.2352 5.9936,4.2496 C6.6368,4.0896 7.3312,3.984 8.0256,3.984 C8.7232,3.984 9.4176,4.0928 10.0576,4.2528 C11.6096,3.2352 12.2528,3.4528 12.2528,3.4528 C12.6784,4.5728 12.4128,5.3728 12.304,5.5904 C12.8384,6.1248 13.1072,6.8704 13.1072,7.728 C13.1072,10.832 11.2352,11.472 9.472,11.6864 C9.7376,11.952 10.0064,12.4352 10.0064,13.184 L10.0064,15.376 C10.0064,15.5904 10.1664,15.856 10.5408,15.7504 C13.8083277,14.6634189 16.0078486,11.6003538 15.9936,8.1568 C16.0512,3.7728 12.4672,0.1888 8.032,0.1888 Z" id="Path"></path>
                        </g>
                    </g>
                </g>
            </g>
        </g>
    </g>
</svg>