<?xml version="1.0" encoding="UTF-8"?><svg id="a" xmlns="http://www.w3.org/2000/svg" width="90.18" height="100" xmlns:xlink="http://www.w3.org/1999/xlink" viewBox="0 0 90.18 100"><defs><linearGradient id="b" x1="26" y1="54.49" x2="34.38" y2="43.72" gradientTransform="translate(0 102) scale(1 -1)" gradientUnits="userSpaceOnUse"><stop offset="0" stop-color="#469f39"/><stop offset="1" stop-color="#4ab93a"/></linearGradient></defs><path d="M1.58,62.51L33.7,22.21l20.29,14.36,.93,1.48c-10.48,4.54-17.82,14.99-17.82,27.13,0,16.32,13.25,29.57,29.57,29.57,2.57,0,5.06-.33,7.43-.95-7.15,3.96-15.37,6.2-24.11,6.2-23.28,0-42.86-15.93-48.42-37.49Zm73.39,2.67c6.81,0,12.34,5.54,12.34,12.35s-5.53,12.34-12.34,12.34-12.34-5.53-12.34-12.34,5.53-12.35,12.34-12.35Z" fill="url(#b)" fill-rule="evenodd"/><path d="M9.53,79.26C3.52,71.06,0,60.94,0,50,0,22.4,22.41,0,50,0c13.82,0,26.33,5.62,35.39,14.69l3.76,4.33c1.16,1.35,1.36,3.28,.49,4.83-.62,1.11-1.4,2.5-2.25,4-4.83,8.62-13.94,13.95-23.82,13.95h-17.23c-16.24,0-30.49,10.83-34.83,26.48-1,3.61-1.67,7.27-1.99,10.97Z" fill="#5fd04f" fill-rule="evenodd"/></svg>