<svg width="98" height="95" viewBox="0 0 98 95" fill="none" xmlns="http://www.w3.org/2000/svg">
<g clip-path="url(#clip0_820_419)">
<path d="M47.12 8.69008C47.12 8.69008 25.69 8.88008 24.29 34.2001C24.29 34.2001 12.57 35.0101 4.61002 43.8001C4.61002 43.8001 -0.00998379 39.2301 1.62104e-05 27.6801C1.62104e-05 14.9701 12.08 10.8501 20 14.1301C20 14.1301 18.89 5.27008 26.8 1.57008C34.98 -2.24992 41.46 1.22008 47.16 8.69008" fill="#089E49"/>
<path d="M24.45 39.5901C24.45 39.5901 9.10001 40.7101 2.30001 52.9601C-4.49999 65.2101 4.63001 82.0901 19.15 78.2701C19.15 78.2701 17.98 97.1701 39.26 94.4701C39.26 94.4701 57.39 91.7001 57.26 73.1501L57.34 58.4401H40.89L40.83 69.4401C40.83 69.4401 41.34 77.3501 32.55 77.7201C24.36 78.0601 24.45 69.2501 24.45 69.2501V39.5901Z" fill="#089E49"/>
<path d="M40.65 39.0301H57.31V28.8901C57.31 28.8901 57.69 20.5201 64.85 20.4201C72.36 20.3201 73.05 27.4201 73.04 28.8901C73.04 29.7301 73.04 41.8901 73.04 41.8901C77.105 40.8566 81.3803 41.0028 85.3652 42.3116C89.3501 43.6204 92.8795 46.0376 95.54 49.2801C95.54 49.2801 100.04 40.7701 96.22 34.0701C95.1523 31.951 93.5705 30.1332 91.6193 28.7828C89.668 27.4325 87.4095 26.5927 85.05 26.3401C85.05 26.3401 90.82 17.1801 81.25 8.24011C71.68 -0.699894 56.5 3.00011 50.25 7.75011C44.25 12.3601 41.25 16.4301 40.64 25.6001L40.65 39.0301Z" fill="#089E49"/>
<path d="M73.12 46.4599V67.1299C73.01 73.0099 70.97 87.6799 53.21 89.0499C53.21 89.0499 60.21 95.2499 72.21 92.1799C74.7388 91.4892 77.0574 90.1836 78.9593 88.3795C80.8611 86.5754 82.2871 84.3288 83.11 81.8399C83.6053 80.4226 83.8556 78.9313 83.85 77.4299V73.1899C83.85 73.1899 93.71 74.9599 96.12 63.0499C97.72 50.7899 84.73 43.5399 73.12 46.4599Z" fill="#089E49"/>
</g>
<defs>
<clipPath id="clip0_820_419">
<rect width="97.76" height="94.68" fill="white"/>
</clipPath>
</defs>
</svg>
