<svg width="560" height="400" viewBox="0 0 560 400" fill="none" xmlns="http://www.w3.org/2000/svg">
<line x1="42.9863" y1="205.373" x2="42.4947" y2="112.003" stroke="#2E4057"/>
<line x1="142.384" y1="205.371" x2="142.384" y2="19" stroke="#2E4057"/>
<line x1="92.6855" y1="205.371" x2="92.5026" y2="62.0006" stroke="#2E4057"/>
<path d="M119 62.1144L186.373 61.8723" stroke="#2E4057"/>
<line x1="62.0007" y1="111.5" x2="186.372" y2="111.685" stroke="#2E4057"/>
<line y1="161.384" x2="186.371" y2="161.384" stroke="#2E4057"/>
<line x1="229.801" y1="205.371" x2="229.801" y2="19" stroke="#2E4057"/>
<line x1="329.199" y1="205.371" x2="329.199" y2="19" stroke="#2E4057"/>
<line x1="279.5" y1="205.371" x2="279.5" y2="19" stroke="#2E4057"/>
<line x1="186.815" y1="61.9866" x2="373.185" y2="61.9866" stroke="#2E4057"/>
<line x1="186.815" y1="111.685" x2="373.185" y2="111.685" stroke="#2E4057"/>
<line x1="186.815" y1="161.384" x2="373.185" y2="161.384" stroke="#2E4057"/>
<line x1="416.616" y1="205.371" x2="416.616" y2="19" stroke="#2E4057"/>
<line x1="516.014" y1="205.371" x2="516.014" y2="19" stroke="#2E4057"/>
<line x1="466.315" y1="205.371" x2="466.315" y2="19" stroke="#2E4057"/>
<line x1="373.629" y1="61.9866" x2="560" y2="61.9866" stroke="#2E4057"/>
<line x1="373.629" y1="111.685" x2="560" y2="111.685" stroke="#2E4057"/>
<line x1="373.629" y1="161.384" x2="560" y2="161.384" stroke="#2E4057"/>
<line x1="42.9865" y1="392.185" x2="42.9865" y2="205.815" stroke="#2E4057"/>
<line x1="142.384" y1="392.185" x2="142.384" y2="205.815" stroke="#2E4057"/>
<line x1="92.6855" y1="392.185" x2="92.6855" y2="205.815" stroke="#2E4057"/>
<line y1="248.801" x2="186.371" y2="248.801" stroke="#2E4057"/>
<line y1="298.5" x2="186.371" y2="298.5" stroke="#2E4057"/>
<line y1="348.199" x2="186.371" y2="348.199" stroke="#2E4057"/>
<line x1="229.801" y1="392.185" x2="229.801" y2="205.815" stroke="#2E4057"/>
<line x1="329.199" y1="392.185" x2="329.199" y2="205.815" stroke="#2E4057"/>
<line x1="279.5" y1="392.185" x2="279.5" y2="205.815" stroke="#2E4057"/>
<line x1="186.815" y1="248.801" x2="373.185" y2="248.801" stroke="#2E4057"/>
<line x1="186.815" y1="298.5" x2="373.185" y2="298.5" stroke="#2E4057"/>
<line x1="186.815" y1="348.199" x2="373.185" y2="348.199" stroke="#2E4057"/>
<line x1="416.616" y1="392.185" x2="416.616" y2="205.815" stroke="#2E4057"/>
<line x1="516.014" y1="392.185" x2="516.014" y2="205.815" stroke="#2E4057"/>
<line x1="466.315" y1="392.185" x2="466.315" y2="205.815" stroke="#2E4057"/>
<line x1="373.629" y1="248.801" x2="560" y2="248.801" stroke="#2E4057"/>
<line x1="373.629" y1="298.5" x2="560" y2="298.5" stroke="#2E4057"/>
<line x1="373.629" y1="348.199" x2="560" y2="348.199" stroke="#2E4057"/>
<line y1="204.871" x2="560" y2="204.871" stroke="#2E4057"/>
<line x1="186.871" y1="18.9993" x2="187.357" y2="392.185" stroke="#2E4057"/>
<line x1="373.242" y1="18.9993" x2="373.728" y2="392.185" stroke="#2E4057"/>
<g opacity="0.5">
<path d="M336.867 374.035C336.651 373.975 336.501 373.778 336.501 373.553V274.591C336.501 274.261 336.815 274.021 337.134 274.109L412.134 294.833C412.351 294.893 412.501 295.09 412.501 295.315V394.277C412.501 394.608 412.186 394.847 411.867 394.759L336.867 374.035Z" fill="#3AAC59"/>
<path d="M487.134 374.035C487.351 373.975 487.501 373.778 487.501 373.553V274.591C487.501 274.261 487.186 274.021 486.867 274.109L411.867 294.833C411.651 294.893 411.501 295.09 411.501 295.315V394.277C411.501 394.608 411.815 394.847 412.134 394.759L487.134 374.035Z" fill="#2B693C"/>
<path d="M410.606 294.875C410.52 294.898 410.43 294.898 410.345 294.874L337.97 274.976C337.466 274.837 337.486 274.115 337.998 274.005L410.372 258.456C410.44 258.442 410.51 258.441 410.579 258.455L485.431 274.004C485.948 274.111 485.968 274.842 485.458 274.977L410.606 294.875Z" fill="#65ED8A"/>
<path d="M314.153 162.099C314.109 162.087 314.079 162.047 314.079 162.002V146.368C314.079 146.302 314.142 146.254 314.206 146.272L326.045 149.543C326.089 149.555 326.119 149.595 326.119 149.64V165.274C326.119 165.34 326.056 165.388 325.992 165.37L314.153 162.099Z" fill="#3AAC59"/>
<path d="M337.927 162.099C337.97 162.087 338 162.047 338 162.002V146.368C338 146.302 337.937 146.254 337.873 146.272L326.034 149.543C325.99 149.555 325.96 149.595 325.96 149.64V165.274C325.96 165.34 326.023 165.388 326.087 165.37L337.927 162.099Z" fill="#2B693C"/>
<path d="M325.824 149.553C325.807 149.558 325.789 149.558 325.772 149.553L314.394 146.425C314.293 146.397 314.297 146.252 314.4 146.23L325.777 143.786C325.791 143.783 325.805 143.783 325.819 143.786L337.586 146.23C337.689 146.252 337.693 146.398 337.591 146.425L325.824 149.553Z" fill="#65ED8A"/>
<path d="M231.153 364.099C231.109 364.087 231.079 364.047 231.079 364.002V348.368C231.079 348.302 231.142 348.254 231.206 348.272L243.045 351.543C243.089 351.555 243.119 351.595 243.119 351.64V367.274C243.119 367.34 243.056 367.388 242.992 367.37L231.153 364.099Z" fill="#3AAC59"/>
<path d="M254.927 364.099C254.97 364.087 255 364.047 255 364.002V348.368C255 348.302 254.937 348.254 254.873 348.272L243.034 351.543C242.99 351.555 242.96 351.595 242.96 351.64V367.274C242.96 367.34 243.023 367.388 243.087 367.37L254.927 364.099Z" fill="#2B693C"/>
<path d="M242.824 351.553C242.807 351.558 242.789 351.557 242.772 351.553L231.394 348.425C231.293 348.397 231.297 348.252 231.4 348.23L242.777 345.786C242.791 345.783 242.805 345.783 242.819 345.786L254.586 348.23C254.689 348.252 254.693 348.398 254.591 348.425L242.824 351.553Z" fill="#65ED8A"/>
<path d="M370.631 90.3631C370.414 90.3032 370.264 90.106 370.264 89.8812V38.1136C370.264 37.7832 370.579 37.5437 370.897 37.6316L410.029 48.4444C410.246 48.5043 410.396 48.7015 410.396 48.9263V100.694C410.396 101.024 410.081 101.264 409.763 101.176L370.631 90.3631Z" fill="#3AAC59"/>
<path d="M449.633 90.3631C449.85 90.3032 450 90.106 450 89.8812V38.1136C450 37.7832 449.685 37.5437 449.367 37.6316L410.235 48.4444C410.018 48.5043 409.868 48.7015 409.868 48.9263V100.694C409.868 101.024 410.183 101.264 410.501 101.176L449.633 90.3631Z" fill="#2B693C"/>
<path d="M409.457 48.4983C409.372 48.5211 409.282 48.5207 409.196 48.4972L371.97 38.2625C371.466 38.1238 371.486 37.4014 371.998 37.2915L409.223 29.2941C409.291 29.2795 409.362 29.2792 409.43 29.2934L447.931 37.2909C448.447 37.3982 448.467 38.1282 447.957 38.2637L409.457 48.4983Z" fill="#65ED8A"/>
<path d="M203.338 263.282C203.294 263.27 203.264 263.231 203.264 263.186V210.588C203.264 210.522 203.327 210.474 203.391 210.492L243.323 221.526C243.366 221.538 243.396 221.577 243.396 221.622V274.22C243.396 274.286 243.333 274.333 243.27 274.316L203.338 263.282Z" fill="#3AAC59"/>
<path d="M282.927 263.282C282.97 263.27 283 263.231 283 263.186V210.588C283 210.522 282.937 210.474 282.873 210.492L242.941 221.526C242.898 221.538 242.868 221.577 242.868 221.622V274.22C242.868 274.286 242.931 274.333 242.995 274.316L282.927 263.282Z" fill="#2B693C"/>
<path d="M242.353 221.526C242.336 221.531 242.318 221.531 242.301 221.526L203.394 210.829C203.293 210.801 203.297 210.657 203.4 210.635L242.306 202.276C242.32 202.273 242.334 202.273 242.347 202.276L282.586 210.635C282.689 210.656 282.693 210.802 282.591 210.829L242.353 221.526Z" fill="#65ED8A"/>
<path d="M133.126 294.073C133.083 294.061 133.053 294.021 133.053 293.976V283.623C133.053 283.557 133.116 283.509 133.179 283.526L141.006 285.689C141.049 285.701 141.079 285.74 141.079 285.785V296.139C141.079 296.205 141.016 296.253 140.953 296.235L133.126 294.073Z" fill="#3AAC59"/>
<path d="M148.927 294.073C148.97 294.061 149 294.021 149 293.976V283.623C149 283.557 148.937 283.509 148.873 283.526L141.047 285.689C141.004 285.701 140.974 285.74 140.974 285.785V296.139C140.974 296.205 141.037 296.253 141.1 296.235L148.927 294.073Z" fill="#2B693C"/>
<path d="M140.891 285.7C140.874 285.704 140.856 285.704 140.839 285.699L133.394 283.653C133.293 283.625 133.297 283.48 133.4 283.458L140.845 281.859C140.858 281.856 140.872 281.856 140.886 281.859L148.586 283.458C148.689 283.48 148.693 283.626 148.591 283.653L140.891 285.7Z" fill="#65ED8A"/>
<path d="M463.126 186.073C463.083 186.061 463.053 186.021 463.053 185.976V175.623C463.053 175.557 463.116 175.509 463.179 175.526L471.006 177.689C471.049 177.701 471.079 177.74 471.079 177.785V188.139C471.079 188.205 471.016 188.253 470.953 188.235L463.126 186.073Z" fill="#3AAC59"/>
<path d="M478.927 186.073C478.97 186.061 479 186.021 479 185.976V175.623C479 175.557 478.937 175.509 478.873 175.526L471.047 177.689C471.004 177.701 470.974 177.74 470.974 177.785V188.139C470.974 188.205 471.037 188.253 471.1 188.235L478.927 186.073Z" fill="#2B693C" fill-opacity="0.4"/>
<path d="M470.891 177.7C470.874 177.704 470.856 177.704 470.839 177.699L463.394 175.652C463.293 175.625 463.297 175.48 463.4 175.458L470.845 173.859C470.858 173.856 470.872 173.856 470.886 173.859L478.586 175.458C478.689 175.48 478.693 175.626 478.591 175.653L470.891 177.7Z" fill="#65ED8A"/>
<path d="M178.279 57.1714C178.192 57.1475 178.132 57.0686 178.132 56.9787V30.9911C178.132 30.859 178.258 30.7631 178.385 30.7983L198.051 36.2323C198.138 36.2563 198.198 36.3352 198.198 36.4251V62.4127C198.198 62.5448 198.072 62.6406 197.945 62.6054L178.279 57.1714Z" fill="#3AAC59"/>
<path d="M217.853 57.1714C217.94 57.1475 218 57.0686 218 56.9787V30.9911C218 30.859 217.874 30.7631 217.747 30.7983L198.081 36.2323C197.994 36.2563 197.934 36.3352 197.934 36.4251V62.4127C197.934 62.5448 198.06 62.6406 198.187 62.6054L217.853 57.1714Z" fill="#2B693C"/>
<path d="M197.716 36.2526C197.681 36.2617 197.645 36.2615 197.611 36.2521L178.788 31.077C178.586 31.0215 178.594 30.7326 178.799 30.6886L197.622 26.6448C197.649 26.6389 197.677 26.6388 197.705 26.6445L217.172 30.6884C217.379 30.7313 217.387 31.0233 217.183 31.0775L197.716 36.2526Z" fill="#65ED8A"/>
<line x1="410.764" y1="331.441" x2="242.764" y2="241.441" stroke="#EBFFF0"/>
<line x1="410.08" y1="331.494" x2="243.08" y2="358.494" stroke="#EBFFF0"/>
<line x1="242.64" y1="241.653" x2="325.64" y2="155.653" stroke="#EBFFF0"/>
<line x1="140.783" y1="290.549" x2="242.783" y2="241.549" stroke="#EBFFF0"/>
<line x1="409.956" y1="69.4981" x2="197.958" y2="50.9395" stroke="#EBFFF0"/>
<line x1="325.45" y1="154.783" x2="410.45" y2="330.783" stroke="#EBFFF0"/>
<line x1="198.317" y1="50.6134" x2="326.317" y2="155.613" stroke="#EBFFF0"/>
<line x1="471.463" y1="182.188" x2="410.463" y2="332.188" stroke="#EBFFF0"/>
<line x1="471.561" y1="183.239" x2="409.561" y2="69.2389" stroke="#EBFFF0"/>
</g>
<g opacity="0.5">
<path d="M338.867 379.035C338.651 378.975 338.501 378.778 338.501 378.553V279.591C338.501 279.261 338.815 279.021 339.134 279.109L414.134 299.833C414.351 299.893 414.501 300.09 414.501 300.315V399.277C414.501 399.608 414.186 399.847 413.867 399.759L338.867 379.035Z" fill="#3AAC59" fill-opacity="0.39"/>
<path d="M489.134 379.035C489.351 378.975 489.501 378.778 489.501 378.553V279.591C489.501 279.261 489.186 279.021 488.867 279.109L413.867 299.833C413.651 299.893 413.501 300.09 413.501 300.315V399.277C413.501 399.608 413.815 399.847 414.134 399.759L489.134 379.035Z" fill="#2B693C" fill-opacity="0.4"/>
<path d="M412.606 299.875C412.52 299.898 412.43 299.898 412.345 299.874L339.97 279.976C339.466 279.837 339.486 279.115 339.998 279.005L412.372 263.456C412.44 263.442 412.51 263.441 412.579 263.455L487.431 279.004C487.948 279.111 487.968 279.842 487.458 279.977L412.606 299.875Z" fill="#3AAC59" fill-opacity="0.39"/>
<path d="M339.501 280.434L413.501 299.934M413.501 299.934L489.001 280.434M413.501 299.934V398.934" stroke="#FAFAFA" stroke-width="2" stroke-linecap="round"/>
<path d="M316.446 167.18C316.229 167.12 316.079 166.923 316.079 166.698V151.894C316.079 151.564 316.394 151.324 316.712 151.412L327.752 154.462C327.969 154.522 328.119 154.719 328.119 154.944V169.748C328.119 170.079 327.804 170.318 327.486 170.23L316.446 167.18Z" fill="#3AAC59" fill-opacity="0.39"/>
<path d="M339.633 167.18C339.85 167.12 340 166.923 340 166.698V151.894C340 151.564 339.685 151.324 339.367 151.412L328.327 154.462C328.111 154.522 327.96 154.719 327.96 154.944V169.748C327.96 170.079 328.275 170.318 328.594 170.23L339.633 167.18Z" fill="#2B693C" fill-opacity="0.4"/>
<path d="M327.929 154.525C327.843 154.548 327.753 154.548 327.668 154.524L317.97 151.858C317.466 151.719 317.486 150.997 317.998 150.887L327.695 148.804C327.763 148.789 327.833 148.789 327.901 148.803L337.931 150.886C338.447 150.994 338.467 151.724 337.958 151.859L327.929 154.525Z" fill="#3AAC59" fill-opacity="0.39"/>
<path d="M316.238 151.475L327.96 154.564M327.96 154.564L339.921 151.475M327.96 154.564V170.247" stroke="#FAFAFA" stroke-linecap="round"/>
<path d="M233.446 369.18C233.229 369.12 233.079 368.923 233.079 368.698V353.894C233.079 353.564 233.394 353.324 233.712 353.412L244.752 356.462C244.969 356.522 245.119 356.719 245.119 356.944V371.748C245.119 372.079 244.804 372.318 244.486 372.23L233.446 369.18Z" fill="#3AAC59" fill-opacity="0.39"/>
<path d="M256.633 369.18C256.85 369.12 257 368.923 257 368.698V353.894C257 353.564 256.685 353.324 256.367 353.412L245.327 356.462C245.111 356.522 244.96 356.719 244.96 356.944V371.748C244.96 372.079 245.275 372.318 245.594 372.23L256.633 369.18Z" fill="#2B693C" fill-opacity="0.4"/>
<path d="M244.929 356.525C244.843 356.548 244.753 356.548 244.668 356.524L234.97 353.858C234.466 353.719 234.486 352.997 234.998 352.887L244.695 350.804C244.763 350.789 244.833 350.789 244.901 350.803L254.931 352.886C255.447 352.994 255.467 353.724 254.958 353.859L244.929 356.525Z" fill="#3AAC59" fill-opacity="0.39"/>
<path d="M233.238 353.475L244.96 356.564M244.96 356.564L256.921 353.475M244.96 356.564V372.247" stroke="#FAFAFA" stroke-linecap="round"/>
<path d="M372.631 95.3631C372.414 95.3032 372.264 95.106 372.264 94.8812V43.1136C372.264 42.7832 372.579 42.5437 372.897 42.6316L412.029 53.4444C412.246 53.5043 412.396 53.7015 412.396 53.9263V105.694C412.396 106.024 412.081 106.264 411.763 106.176L372.631 95.3631Z" fill="#3AAC59" fill-opacity="0.39"/>
<path d="M451.633 95.3631C451.85 95.3032 452 95.106 452 94.8812V43.1136C452 42.7832 451.685 42.5437 451.367 42.6316L412.235 53.4444C412.018 53.5043 411.868 53.7015 411.868 53.9263V105.694C411.868 106.024 412.183 106.264 412.501 106.176L451.633 95.3631Z" fill="#2B693C" fill-opacity="0.4"/>
<path d="M411.457 53.4983C411.372 53.5211 411.282 53.5207 411.196 53.4972L373.97 43.2625C373.466 43.1238 373.486 42.4014 373.998 42.2915L411.223 34.2941C411.291 34.2795 411.362 34.2792 411.43 34.2934L449.931 42.2909C450.447 42.3982 450.467 43.1282 449.957 43.2637L411.457 53.4983Z" fill="#3AAC59" fill-opacity="0.39"/>
<path d="M372.792 43.2488L411.868 53.5458M411.868 53.5458L451.736 43.2488M411.868 53.5458V105.823" stroke="#FAFAFA" stroke-linecap="round"/>
<path d="M205.631 268.363C205.414 268.303 205.264 268.106 205.264 267.881V216.114C205.264 215.783 205.579 215.544 205.897 215.632L245.029 226.444C245.246 226.504 245.396 226.702 245.396 226.926V278.694C245.396 279.024 245.081 279.264 244.763 279.176L205.631 268.363Z" fill="#3AAC59" fill-opacity="0.39"/>
<path d="M284.633 268.363C284.85 268.303 285 268.106 285 267.881V216.114C285 215.783 284.685 215.544 284.367 215.632L245.235 226.444C245.018 226.504 244.868 226.702 244.868 226.926V278.694C244.868 279.024 245.183 279.264 245.501 279.176L284.633 268.363Z" fill="#2B693C" fill-opacity="0.4"/>
<path d="M244.457 226.498C244.372 226.521 244.282 226.521 244.196 226.497L206.97 216.262C206.466 216.124 206.486 215.401 206.998 215.292L244.223 207.294C244.291 207.279 244.362 207.279 244.43 207.293L282.931 215.291C283.447 215.398 283.467 216.128 282.957 216.264L244.457 226.498Z" fill="#3AAC59" fill-opacity="0.39"/>
<path d="M205.792 216.249L244.868 226.546M244.868 226.546L284.736 216.249M244.868 226.546V278.823" stroke="#FAFAFA" stroke-linecap="round"/>
<path d="M135.2 299.093C135.113 299.069 135.053 298.99 135.053 298.9V288.754C135.053 288.622 135.179 288.526 135.306 288.561L142.932 290.669C143.019 290.693 143.079 290.771 143.079 290.861V301.007C143.079 301.14 142.953 301.235 142.826 301.2L135.2 299.093Z" fill="#3AAC59" fill-opacity="0.39"/>
<path d="M150.853 299.093C150.94 299.069 151 298.99 151 298.9V288.754C151 288.622 150.874 288.526 150.747 288.561L143.12 290.669C143.034 290.693 142.974 290.771 142.974 290.861V301.007C142.974 301.14 143.1 301.235 143.227 301.2L150.853 299.093Z" fill="#2B693C" fill-opacity="0.4"/>
<path d="M142.918 290.693C142.883 290.702 142.847 290.702 142.813 290.692L135.788 288.761C135.586 288.705 135.595 288.416 135.799 288.372L142.824 286.863C142.851 286.857 142.879 286.857 142.907 286.863L150.172 288.372C150.379 288.415 150.387 288.707 150.183 288.761L142.918 290.693Z" fill="#3AAC59" fill-opacity="0.39"/>
<path d="M135.159 288.65L142.974 290.709M142.974 290.709L150.947 288.65M142.974 290.709V301.165" stroke="#FAFAFA" stroke-width="0.7" stroke-linecap="round"/>
<path d="M465.126 191.073C465.083 191.061 465.053 191.021 465.053 190.976V180.623C465.053 180.557 465.116 180.509 465.179 180.526L473.006 182.689C473.049 182.701 473.079 182.74 473.079 182.785V193.139C473.079 193.205 473.016 193.253 472.953 193.235L465.126 191.073Z" fill="#3AAC59" fill-opacity="0.39"/>
<path d="M480.927 191.073C480.97 191.061 481 191.021 481 190.976V180.623C481 180.557 480.937 180.509 480.873 180.526L473.047 182.689C473.004 182.701 472.974 182.74 472.974 182.785V193.139C472.974 193.205 473.037 193.253 473.1 193.235L480.927 191.073Z" fill="#2B693C" fill-opacity="0.4"/>
<path d="M472.891 182.7C472.874 182.704 472.856 182.704 472.839 182.699L465.394 180.652C465.293 180.625 465.297 180.48 465.4 180.458L472.845 178.859C472.858 178.856 472.872 178.856 472.886 178.859L480.586 180.458C480.689 180.48 480.693 180.626 480.591 180.653L472.891 182.7Z" fill="#3AAC59" fill-opacity="0.39"/>
<path d="M465.159 180.65L472.974 182.709M472.974 182.709L480.947 180.65M472.974 182.709V193.165" stroke="#FAFAFA" stroke-width="0.7" stroke-linecap="round"/>
<path d="M180.279 62.1714C180.192 62.1475 180.132 62.0686 180.132 61.9787V35.9911C180.132 35.859 180.258 35.7631 180.385 35.7983L200.051 41.2323C200.138 41.2563 200.198 41.3352 200.198 41.4251V67.4127C200.198 67.5448 200.072 67.6406 199.945 67.6054L180.279 62.1714Z" fill="#3AAC59" fill-opacity="0.39"/>
<path d="M219.853 62.1714C219.94 62.1475 220 62.0686 220 61.9787V35.9911C220 35.859 219.874 35.7631 219.747 35.7983L200.081 41.2323C199.994 41.2563 199.934 41.3352 199.934 41.4251V67.4127C199.934 67.5448 200.06 67.6406 200.187 67.6054L219.853 62.1714Z" fill="#2B693C" fill-opacity="0.4"/>
<path d="M199.716 41.2526C199.681 41.2617 199.645 41.2615 199.611 41.2521L180.788 36.077C180.586 36.0215 180.594 35.7326 180.799 35.6886L199.622 31.6448C199.649 31.6389 199.677 31.6388 199.705 31.6445L219.172 35.6884C219.379 35.7313 219.387 36.0233 219.183 36.0775L199.716 41.2526Z" fill="#3AAC59" fill-opacity="0.39"/>
<path d="M180.396 36.1244L199.934 41.2729M199.934 41.2729L219.868 36.1244M199.934 41.2729V67.4114" stroke="#FAFAFA" stroke-linecap="round"/>
</g>
</svg>
