<svg width="41" height="40" viewBox="0 0 41 40" fill="none" xmlns="http://www.w3.org/2000/svg">
<rect x="0.666992" width="40" height="40" rx="20" fill="#0D3349"/>
<rect width="24" height="24" transform="translate(8.66699 8)" fill="#0D3349"/>
<path fill-rule="evenodd" clip-rule="evenodd" d="M9.66699 17.5C9.66699 15.8431 11.0101 14.5 12.667 14.5H28.667C30.3238 14.5 31.667 15.8435 31.667 17.5004V28C31.667 29.6569 30.3238 31 28.667 31H12.667C11.0101 31 9.66699 29.6569 9.66699 28V17.5ZM12.667 16.5C12.1147 16.5 11.667 16.9477 11.667 17.5V28C11.667 28.5523 12.1147 29 12.667 29H28.667C29.2193 29 29.667 28.5523 29.667 28V17.5C29.667 16.9477 29.2193 16.5 28.667 16.5H12.667Z" fill="#DCFFBC"/>
<path d="M13.417 10H27.667V15.5H13.417C11.8982 15.5 10.667 14.2688 10.667 12.75C10.667 11.2312 11.8982 10 13.417 10Z" stroke="#DCFFBC" stroke-width="2"/>
<path d="M27.417 20H30.667V25.5H27.417C25.8982 25.5 24.667 24.2688 24.667 22.75C24.667 21.2312 25.8982 20 27.417 20Z" stroke="#DCFFBC" stroke-width="2"/>
<rect x="9.66699" y="12.5" width="2" height="7" fill="#DCFFBC"/>
</svg>
