<svg width="41" height="40" viewBox="0 0 41 40" fill="none" xmlns="http://www.w3.org/2000/svg">
<rect x="0.333008" width="40" height="40" rx="20" fill="#0D3349"/>
<rect width="24" height="24" transform="translate(8.33301 8)" fill="#0D3349"/>
<path fill-rule="evenodd" clip-rule="evenodd" d="M16.6231 9H16.5429H16.5429H16.5429C15.5275 8.99999 14.7085 8.99999 14.0439 9.05093C13.36 9.10336 12.7577 9.21404 12.1952 9.48005C11.1495 9.97464 10.3076 10.8165 9.81306 11.8622C9.54704 12.4247 9.43637 13.027 9.38394 13.7109C9.33299 14.3755 9.333 15.1945 9.33301 16.2099V16.2099V16.2099V17.7901V17.7901V17.7901C9.333 18.8055 9.33299 19.6245 9.38394 20.2891C9.43637 20.973 9.54704 21.5753 9.81306 22.1378C10.3076 23.1835 11.1495 24.0254 12.1952 24.5199C12.7577 24.786 13.36 24.8966 14.0439 24.9491C14.6944 24.9989 15.4929 25 16.4787 25C16.5 25 16.5214 25 16.5428 25H16.5429H16.6231H16.6232L16.8371 25C16.8371 25 16.8371 25 16.8371 25H18.8373C18.8372 24.9892 18.837 24.9783 18.8369 24.9674C18.935 24.9622 19.0301 24.9561 19.1221 24.9491C19.806 24.8966 20.4083 24.786 20.9708 24.5199C22.0165 24.0254 22.8584 23.1835 23.353 22.1378C23.619 21.5753 23.7296 20.973 23.7821 20.2891C23.8295 19.671 23.8328 18.9192 23.833 18H21.833V17.8082C21.833 18.842 21.8315 19.5677 21.7879 20.1362C21.7443 20.7047 21.663 21.0331 21.545 21.2827C21.2482 21.9101 20.7431 22.4152 20.1157 22.712C19.8661 22.83 19.5377 22.9113 18.9692 22.9549C18.9248 22.9583 18.8794 22.9615 18.833 22.9644L18.833 23H16.5898L16.583 23L16.5248 23H16.333V23C15.4002 22.9996 14.7295 22.9958 14.1968 22.9549C13.6283 22.9113 13.2999 22.83 13.0503 22.712C12.4229 22.4152 11.9178 21.9101 11.621 21.2827C11.503 21.0331 11.4217 20.7047 11.3781 20.1362C11.3337 19.5571 11.333 18.8149 11.333 17.75V16.25C11.333 15.1852 11.3337 14.4429 11.3781 13.8638C11.4217 13.2953 11.503 12.9669 11.621 12.7173C11.9178 12.0899 12.4229 11.5848 13.0503 11.288C13.2999 11.17 13.6283 11.0887 14.1968 11.0451C14.7759 11.0007 15.5182 11 16.583 11C17.6479 11 18.3901 11.0007 18.9692 11.0451C19.5377 11.0887 19.8661 11.17 20.1157 11.288C20.7431 11.5848 21.2482 12.0899 21.545 12.7173C21.663 12.9669 21.7443 13.2953 21.7879 13.8638C21.7913 13.9082 21.7945 13.9536 21.7974 14H23.8007C23.7954 13.9005 23.7892 13.8042 23.7821 13.7109C23.7296 13.027 23.619 12.4247 23.353 11.8622C22.8584 10.8165 22.0165 9.97464 20.9708 9.48005C20.4083 9.21404 19.806 9.10336 19.1221 9.05093C18.4576 8.99999 17.6385 8.99999 16.6231 9H16.6231H16.6231ZM18.8686 26H16.8654C16.8706 26.0995 16.8768 26.1958 16.8839 26.2891C16.9364 26.973 17.047 27.5753 17.3131 28.1378C17.8076 29.1835 18.6495 30.0254 19.6952 30.5199C20.2577 30.786 20.86 30.8966 21.5439 30.9491C22.2085 31 23.0275 31 24.0428 31H24.0429H24.1231H24.1232C25.1386 31 25.9576 31 26.6221 30.9491C27.306 30.8966 27.9083 30.786 28.4708 30.5199C29.5165 30.0254 30.3584 29.1835 30.853 28.1378C31.119 27.5753 31.2296 26.973 31.2821 26.2891C31.333 25.6246 31.333 24.8055 31.333 23.7902V23.7901V22.2099V22.2098C31.333 21.1945 31.333 20.3754 31.2821 19.7109C31.2296 19.027 31.119 18.4247 30.853 17.8622C30.3584 16.8165 29.5165 15.9746 28.4708 15.4801C27.9083 15.214 27.306 15.1034 26.6221 15.0509C25.9576 15 25.1385 15 24.1231 15H24.1231H24.1231H24.1231H24.1231H24.1231H24.0429H24.0429L23.8289 15V15H21.8287L21.8291 15.0326C21.731 15.0378 21.636 15.0439 21.5439 15.0509C20.86 15.1034 20.2577 15.214 19.6952 15.4801C18.6495 15.9746 17.8076 16.8165 17.3131 17.8622C17.047 18.4247 16.9364 19.027 16.8839 19.7109C16.8366 20.329 16.8332 21.0808 16.833 22H18.833L18.833 22.25C18.833 21.1852 18.8337 20.4429 18.8781 19.8638C18.9217 19.2953 19.003 18.9669 19.121 18.7173C19.4178 18.0899 19.9229 17.5848 20.5503 17.288C20.7999 17.17 21.1283 17.0887 21.6968 17.0451C21.7412 17.0417 21.7866 17.0385 21.833 17.0356L21.833 17L24.083 17L24.833 17V17.0008C25.5136 17.0032 26.0369 17.0119 26.4692 17.0451C27.0377 17.0887 27.3661 17.17 27.6157 17.288C28.2431 17.5848 28.7482 18.0899 29.045 18.7173C29.163 18.9669 29.2443 19.2953 29.2879 19.8638C29.3323 20.4429 29.333 21.1852 29.333 22.25V23.75C29.333 24.8149 29.3323 25.5571 29.2879 26.1362C29.2443 26.7047 29.163 27.0331 29.045 27.2827C28.7482 27.9101 28.2431 28.4152 27.6157 28.712C27.3661 28.83 27.0377 28.9113 26.4692 28.9549C25.8901 28.9993 25.1479 29 24.083 29C23.0182 29 22.2759 28.9993 21.6968 28.9549C21.1283 28.9113 20.7999 28.83 20.5503 28.712C19.9229 28.4152 19.4178 27.9101 19.121 27.2827C19.003 27.0331 18.9217 26.7047 18.8781 26.1362C18.8747 26.0918 18.8715 26.0464 18.8686 26Z" fill="#DCFFBC"/>
</svg>
