<svg width="40" height="40" viewBox="0 0 40 40" fill="none" xmlns="http://www.w3.org/2000/svg">
<rect width="40" height="40" rx="20" fill="#0D3349"/>
<path fill-rule="evenodd" clip-rule="evenodd" d="M27.2975 27.7437C27.0462 28.2683 26.9092 28.5877 26.9092 28.7474C26.9092 28.9071 26.932 29.0439 27.0005 29.158C27.0691 29.2492 27.1833 29.2948 27.2975 29.2948C27.5944 29.2948 27.9141 29.1124 28.2567 28.7702C28.6221 28.428 29.0333 27.8805 29.4901 27.1506C30.1524 26.0784 30.6549 24.9607 30.9975 23.7973C31.3401 22.6339 31.4999 21.4249 31.4999 20.1474C31.4999 18.7559 31.2944 17.4329 30.9061 16.1554C30.5178 14.878 29.9012 13.6689 29.1018 12.5284C28.7363 12.0037 28.3938 11.6159 28.1197 11.365C27.8228 11.1141 27.5715 11 27.3203 11C27.1833 11 27.0919 11.0456 27.0234 11.1597C26.9549 11.2509 26.9092 11.365 26.9092 11.5247C26.9092 11.6843 27.0691 12.1178 27.3888 12.7793C27.7086 13.4636 27.9598 14.0339 28.1654 14.5358C28.5536 15.4711 28.8277 16.3835 29.0104 17.3188C29.1931 18.2313 29.2845 19.1893 29.2845 20.1474C29.2845 21.1968 29.1931 22.2233 28.9647 23.227C28.7592 24.2079 28.3938 25.3028 27.8913 26.5118C27.8134 26.6803 27.7134 26.8857 27.5955 27.1278C27.5059 27.3118 27.4059 27.5171 27.2975 27.7437ZM13.0679 11.5025C13.0679 11.6622 12.9309 12.0044 12.6796 12.529C12.4284 13.0537 12.2457 13.4643 12.1087 13.7837C11.6062 14.9699 11.2407 16.0648 11.0124 17.0685C10.8068 18.0494 10.6926 19.0987 10.6926 20.1481C10.6926 21.129 10.784 22.0871 10.9667 22.9995C11.1494 23.912 11.4235 24.8472 11.7889 25.7597C11.9505 26.2035 12.1835 26.7007 12.4563 27.2831L12.5654 27.5162C12.8852 28.1777 13.0451 28.6112 13.0451 28.7708C13.0451 28.9305 12.9994 29.0674 12.9309 29.1586C12.8624 29.2499 12.771 29.2955 12.634 29.2955C12.4056 29.2955 12.1315 29.1814 11.8574 28.9305C11.5605 28.6796 11.2407 28.2918 10.8753 27.7443C10.0988 26.5809 9.50494 25.3719 9.09383 24.1173C8.70556 22.8626 8.5 21.5396 8.5 20.1481C8.5 18.8706 8.65988 17.6616 8.97963 16.521C9.29938 15.3577 9.80186 14.2399 10.4642 13.1677C10.921 12.4378 11.3321 11.9131 11.6975 11.5481C12.063 11.1831 12.3827 11.0006 12.6796 11.0006C12.7938 11.0006 12.8852 11.0463 12.9766 11.1375C13.0222 11.2288 13.0679 11.3656 13.0679 11.5025ZM20.4254 15.7745L20.4254 15.7745C20.3551 15.7812 20.259 15.7904 20.1722 15.7904C19.9209 15.8132 19.5327 15.8588 19.487 15.8816C19.4786 15.8816 19.4641 15.8847 19.4458 15.8886C19.414 15.8953 19.3705 15.9044 19.3271 15.9044C18.8246 15.9729 18.2308 16.1782 17.8882 16.3835C17.8197 16.4291 17.7512 16.4519 17.7283 16.4519C17.6598 16.4747 17.1345 16.8397 16.9518 16.9994C15.5357 18.1628 14.8049 19.9649 15.1018 21.4476C15.1255 21.5425 15.1369 21.5881 15.1617 21.5971C15.1845 21.6055 15.2187 21.5827 15.2845 21.5389L15.2845 21.5389C15.49 21.3792 15.6728 21.2652 15.924 21.1283C16.061 21.037 16.7005 20.7405 16.7462 20.7405C16.7462 20.7405 16.7919 20.7177 16.8604 20.6949C17.4314 20.4439 19.053 19.8737 19.8752 19.6684C19.8981 19.6684 20.058 19.6227 20.195 19.5771C20.3238 19.543 20.4351 19.5134 20.531 19.4878C21.0132 19.3592 21.1086 19.3337 21.1086 19.3718L21.0172 19.4174C20.7432 19.5087 20.0123 19.8052 19.9894 19.828C19.9894 19.828 19.9666 19.8508 19.9438 19.8508C19.9297 19.8508 19.9068 19.8596 19.8752 19.8716C19.8557 19.879 19.8329 19.8878 19.8067 19.8965L19.6697 19.9421C19.6697 19.9421 19.6012 19.9649 19.5098 20.0105C19.4413 20.0561 19.3728 20.079 19.3499 20.079C19.3499 20.079 19.2586 20.1018 19.1901 20.1474C19.0987 20.193 19.0302 20.2158 19.0073 20.2158C18.9388 20.2158 17.1117 21.1739 16.5407 21.5161C16.4036 21.5845 16.2894 21.653 16.2894 21.653C16.2894 21.653 16.1067 21.767 15.5357 22.132C14.8962 22.5426 13.8456 23.2954 13.1833 23.7972C13.1147 23.8657 13.0234 23.9341 12.9777 23.9569C12.4067 24.3903 12.3382 24.4816 12.6579 24.2991C13.3888 23.9113 14.1882 23.5463 14.7592 23.3182C15.1246 23.1813 15.49 23.0673 15.7413 23.0445L15.8555 23.0216L16.1296 23.2954C16.8147 23.9797 17.5456 24.3219 18.6419 24.4816C18.8931 24.5272 19.7382 24.5044 19.9209 24.4816C19.9894 24.4816 20.1036 24.4588 20.195 24.436C20.2864 24.4131 20.4006 24.3903 20.4234 24.3903C20.4462 24.3903 20.5376 24.3675 20.6061 24.3447C21.8623 24.0254 22.9358 23.2498 23.895 21.9723C23.9179 21.9495 24.0092 21.8354 24.0777 21.7214C24.1302 21.6559 24.1752 21.5903 24.2083 21.5421L24.2083 21.5421C24.2327 21.5064 24.2507 21.4802 24.2604 21.4705C24.2699 21.461 24.2833 21.4398 24.299 21.415C24.3211 21.3799 24.3479 21.3375 24.3746 21.3108C24.8771 20.6036 25.5623 19.463 26.0191 18.619C26.0648 18.5278 26.1561 18.3681 26.2018 18.2997C26.2129 18.2774 26.2309 18.243 26.2536 18.1993L26.2537 18.1992L26.2537 18.1991C26.3242 18.0637 26.4408 17.8395 26.5444 17.6153C26.6219 17.4475 26.6994 17.3017 26.7522 17.2025L26.7522 17.2025C26.7926 17.1264 26.8185 17.0777 26.8185 17.0678C26.8642 16.9994 26.8413 16.9766 26.6586 16.9082C26.6358 16.9082 26.4987 16.8625 26.3388 16.7941C26.2783 16.7768 26.2178 16.7563 26.1622 16.7374C26.071 16.7065 25.9931 16.68 25.9506 16.68C25.6993 16.5888 25.2882 16.4747 24.7858 16.3379C24.5688 16.2808 24.4317 16.2466 24.329 16.221L24.3289 16.221C24.2262 16.1953 24.1577 16.1782 24.0777 16.1554C23.9864 16.1326 23.895 16.1098 23.8722 16.1098C23.8493 16.1098 23.7808 16.0869 23.7123 16.0641C23.5469 16.0435 23.4751 16.0228 23.3445 15.9853L23.3012 15.9729C22.6845 15.836 22.1592 15.7904 21.2685 15.7904C20.903 15.7676 20.5376 15.7676 20.5148 15.7676C20.498 15.7676 20.466 15.7706 20.4254 15.7745Z" fill="#DCFFBC"/>
</svg>
