<svg id="Layer_1" data-name="Layer 1" xmlns="http://www.w3.org/2000/svg" viewBox="0 0 13 13"><defs><style>.cls-1{fill:#fff;}</style></defs><title>instagram</title><g id="Flat_copy" data-name="Flat copy"><path class="cls-1" d="M12.3,0H2.55A1.61,1.61,0,0,0,.92,1.63v9.74A1.61,1.61,0,0,0,2.55,13H12.3a1.6,1.6,0,0,0,1.62-1.63V1.63A1.59,1.59,0,0,0,12.3,0ZM7.43,4A2.56,2.56,0,0,1,10,6.48,2.56,2.56,0,0,1,7.43,9a2.56,2.56,0,0,1-2.6-2.52A2.56,2.56,0,0,1,7.43,4Zm4.87,7c0,.28-.12.41-.41.41H3c-.29,0-.41-.13-.41-.41V5.28l1,.22a3.8,3.8,0,0,0-.17,1.12,4,4,0,0,0,4,3.91,4,4,0,0,0,4-3.91,4.15,4.15,0,0,0-.16-1.12l1-.22V11Zm0-7.31a.4.4,0,0,1-.41.4H10.27a.4.4,0,0,1-.41-.4V2a.4.4,0,0,1,.41-.4h1.62a.4.4,0,0,1,.41.4Z" transform="translate(-0.92)"/></g></svg>