<?xml version="1.0" encoding="UTF-8" standalone="no"?>
<svg
   xmlns:dc="http://purl.org/dc/elements/1.1/"
   xmlns:cc="http://creativecommons.org/ns#"
   xmlns:rdf="http://www.w3.org/1999/02/22-rdf-syntax-ns#"
   xmlns:svg="http://www.w3.org/2000/svg"
   xmlns="http://www.w3.org/2000/svg"
   xmlns:sodipodi="http://sodipodi.sourceforge.net/DTD/sodipodi-0.dtd"
   xmlns:inkscape="http://www.inkscape.org/namespaces/inkscape"
   id="Layer_1"
   data-name="Layer 1"
   viewBox="0 0 20 20"
   version="1.1"
   sodipodi:docname="instagram.svg"
   width="20"
   height="20"
   inkscape:version="0.92.4 (5da689c313, 2019-01-14)">
  <metadata
     id="metadata4851">
    <rdf:RDF>
      <cc:Work
         rdf:about="">
        <dc:format>image/svg+xml</dc:format>
        <dc:type
           rdf:resource="http://purl.org/dc/dcmitype/StillImage" />
        <dc:title>instagram</dc:title>
      </cc:Work>
    </rdf:RDF>
  </metadata>
  <sodipodi:namedview
     pagecolor="#ffffff"
     bordercolor="#666666"
     borderopacity="1"
     objecttolerance="10"
     gridtolerance="10"
     guidetolerance="10"
     inkscape:pageopacity="0"
     inkscape:pageshadow="2"
     inkscape:window-width="1391"
     inkscape:window-height="802"
     id="namedview4849"
     showgrid="false"
     inkscape:pagecheckerboard="true"
     inkscape:zoom="21.582007"
     inkscape:cx="0.99584882"
     inkscape:cy="8.9897934"
     inkscape:window-x="0"
     inkscape:window-y="0"
     inkscape:window-maximized="0"
     inkscape:current-layer="Layer_1" />
  <defs
     id="defs4841">
    <style
       id="style4839">.cls-1{fill:#fff;}</style>
  </defs>
  <title
     id="title4843">instagram</title>
  <g
     id="Flat_copy"
     data-name="Flat copy"
     style="fill:#ffffff;fill-opacity:0.58039216"
     transform="translate(3.475117,3.3858783)">
    <path
       class="cls-1"
       d="M 12.3,0 H 2.55 A 1.61,1.61 0 0 0 0.92,1.63 v 9.74 A 1.61,1.61 0 0 0 2.55,13 h 9.75 a 1.6,1.6 0 0 0 1.62,-1.63 V 1.63 A 1.59,1.59 0 0 0 12.3,0 Z M 7.43,4 A 2.56,2.56 0 0 1 10,6.48 2.56,2.56 0 0 1 7.43,9 2.56,2.56 0 0 1 4.83,6.48 2.56,2.56 0 0 1 7.43,4 Z m 4.87,7 c 0,0.28 -0.12,0.41 -0.41,0.41 H 3 C 2.71,11.41 2.59,11.28 2.59,11 V 5.28 l 1,0.22 a 3.8,3.8 0 0 0 -0.17,1.12 4,4 0 0 0 4,3.91 4,4 0 0 0 4,-3.91 4.15,4.15 0 0 0 -0.16,-1.12 l 1,-0.22 V 11 Z m 0,-7.31 a 0.4,0.4 0 0 1 -0.41,0.4 H 10.27 A 0.4,0.4 0 0 1 9.86,3.69 V 2 a 0.4,0.4 0 0 1 0.41,-0.4 h 1.62 A 0.4,0.4 0 0 1 12.3,2 Z"
       transform="translate(-0.92)"
       id="path4845"
       style="fill:#ffffff;fill-opacity:0.58039216"
       inkscape:connector-curvature="0" />
  </g>
</svg>
