<svg width="98" height="101" viewBox="0 0 98 101" fill="none" xmlns="http://www.w3.org/2000/svg">
<path fill-rule="evenodd" clip-rule="evenodd" d="M82.8019 25.2995H80.5627C79.3403 23.069 77.5788 21.1817 75.4396 19.8106C73.3005 18.4396 70.8521 17.6286 68.319 17.4521L64.6062 6.47748C61.6374 -2.20958 49.3142 -2.12271 46.4682 6.63674L42.9865 17.4015H41.6791L37.9807 6.47748C35.0191 -2.20958 22.6887 -2.15167 19.8499 6.60779L15.9421 18.6973C11.2847 20.3097 7.24549 23.3385 4.38773 27.3614C1.52996 31.3843 -0.0039127 36.2006 1.02601e-05 41.1389V59.722C-0.00426033 64.3204 1.32473 68.8211 3.82539 72.6767C6.32604 76.5323 9.89061 79.5767 14.0857 81.4396V89.0046C14.0857 90.5805 14.3955 92.1409 14.9974 93.5967C15.5994 95.0525 16.4817 96.3752 17.5939 97.4892C18.7061 98.6031 20.0264 99.4866 21.4794 100.089C22.9324 100.691 24.4896 101.001 26.0621 101H70.5005C73.6756 101 76.7207 99.7364 78.9665 97.4871C81.2123 95.2377 82.475 92.1866 82.4769 89.0046V80.9256C87.1211 78.7446 91.0484 75.2813 93.7979 70.9422C96.5474 66.6032 98.0051 61.5682 98 56.4281V40.5018C98 38.503 97.6067 36.5238 96.8426 34.6774C96.0784 32.8311 94.9585 31.1539 93.5468 29.7419C92.1352 28.3298 90.4595 27.2106 88.6158 26.4483C86.7721 25.6861 84.7964 25.2956 82.8019 25.2995ZM90.1915 56.4281C90.1893 60.4225 88.9458 64.317 86.6339 67.5707C84.3219 70.8244 81.0562 73.2757 77.2905 74.5841L74.6395 75.5107V89.0046C74.6376 90.1112 74.1976 91.1718 73.4162 91.9535C72.6348 92.7353 71.5757 93.1744 70.4716 93.1744H26.0621C24.9598 93.1725 23.9034 92.7323 23.1247 91.9505C22.346 91.1687 21.9086 90.1092 21.9086 89.0046V75.793L19.1276 74.9533C15.8664 73.968 13.0075 71.9587 10.9721 69.2216C8.93679 66.4845 7.83282 63.1645 7.82296 59.7509V41.1244C7.82608 37.5615 9.02122 34.1025 11.2173 31.3006C13.4133 28.4987 16.4834 26.5157 19.9366 25.6687L22.0603 25.1547L27.2756 9.04741C27.3919 8.69901 27.6145 8.39606 27.912 8.18141C28.2095 7.96677 28.5668 7.85127 28.9334 7.85127C29.2999 7.85127 29.6572 7.96677 29.9547 8.18141C30.2522 8.39606 30.4749 8.69901 30.5911 9.04741L36.0882 25.2271H48.6352L53.8794 9.04741C53.9937 8.69809 54.2152 8.39389 54.5123 8.17822C54.8093 7.96254 55.1668 7.84642 55.5336 7.84642C55.9004 7.84642 56.2578 7.96254 56.5549 8.17822C56.8519 8.39389 57.0734 8.69809 57.1877 9.04741L62.6847 25.2488H67.2138C68.7819 25.2395 70.3123 25.7305 71.5836 26.6505C72.8549 27.5706 73.8012 28.8722 74.2855 30.3669V30.4103C74.5069 31.1253 74.6189 31.8697 74.6178 32.6183V46.5104C74.5952 47.0384 74.6793 47.5655 74.8653 48.06C75.0513 48.5545 75.3353 49.0062 75.7 49.3879C76.0648 49.7695 76.5029 50.0732 76.9879 50.2807C77.4729 50.4882 77.9947 50.5951 78.5221 50.5951C79.0494 50.5951 79.5713 50.4882 80.0563 50.2807C80.5413 50.0732 80.9793 49.7695 81.3441 49.3879C81.7089 49.0062 81.9928 48.5545 82.1788 48.06C82.3648 47.5655 82.449 47.0384 82.4263 46.5104V33.1106H82.7875C83.7579 33.1087 84.7192 33.2983 85.6165 33.6688C86.5137 34.0392 87.3294 34.5831 88.0169 35.2694C88.7045 35.9558 89.2504 36.7711 89.6235 37.6689C89.9966 38.5666 90.1896 39.5293 90.1915 40.5018V56.4281Z" fill="#303A5A"/>
</svg>
