<svg width="442" height="475" viewBox="0 0 442 475" fill="none" xmlns="http://www.w3.org/2000/svg">
<g id="vision" opacity="0.836868">
<path id="Fill 1" fill-rule="evenodd" clip-rule="evenodd" d="M222 105.5C222 111.299 217.299 116 211.499 116C205.701 116 201 111.299 201 105.5C201 99.7037 205.701 95 211.499 95C217.299 95 222 99.7037 222 105.5Z" fill="#3AAC59"/>
<g id="Group 5">
<mask id="mask0" mask-type="alpha" maskUnits="userSpaceOnUse" x="0" y="202" width="25" height="25">
<path id="Clip 4" fill-rule="evenodd" clip-rule="evenodd" d="M0 202.15H24.4612V226.929H0V202.15Z" fill="white"/>
</mask>
<g mask="url(#mask0)">
<path id="Fill 3" fill-rule="evenodd" clip-rule="evenodd" d="M24.4612 214.54C24.4612 221.38 18.9808 226.929 12.2316 226.929C5.47953 226.929 -0.00088501 221.38 -0.00088501 214.54C-0.00088501 207.696 5.47953 202.15 12.2316 202.15C18.9808 202.15 24.4612 207.696 24.4612 214.54Z" fill="#242D3C"/>
</g>
</g>
<path id="Fill 6" fill-rule="evenodd" clip-rule="evenodd" d="M100 258C100 262.417 96.4177 266 92.0015 266C87.5823 266 84 262.417 84 258C84 253.58 87.5823 250 92.0015 250C96.4177 250 100 253.58 100 258Z" fill="#E6E5E5"/>
<g id="Group 10">
<mask id="mask1" mask-type="alpha" maskUnits="userSpaceOnUse" x="230" y="0" width="36" height="36">
<path id="Clip 9" fill-rule="evenodd" clip-rule="evenodd" d="M230.135 0.411957H265.78V35.9279H230.135V0.411957Z" fill="white"/>
</mask>
<g mask="url(#mask1)">
<path id="Fill 8" fill-rule="evenodd" clip-rule="evenodd" d="M265.78 18.1694C265.78 27.9766 257.794 35.9279 247.957 35.9279C238.118 35.9279 230.135 27.9766 230.135 18.1694C230.135 8.36507 238.118 0.410767 247.957 0.410767C257.794 0.410767 265.78 8.36507 265.78 18.1694Z" fill="#E6E5E5"/>
</g>
</g>
<path id="Fill 13" fill-rule="evenodd" clip-rule="evenodd" d="M220.497 286.999C196.612 286.999 177.253 267.749 177.253 243.999C177.253 220.248 196.612 200.998 220.497 200.998C244.385 200.998 263.753 220.248 263.753 243.999C263.753 267.749 244.385 286.999 220.497 286.999ZM220.497 158C172.724 158 134 196.498 134 243.999C134 291.499 172.724 330 220.497 330C268.276 330 307 291.499 307 243.999C307 196.498 268.276 158 220.497 158Z" fill="#0088FA"/>
<path id="Fill 17" fill-rule="evenodd" clip-rule="evenodd" d="M140 365.5C140 390.629 119.628 411 94.5015 411C69.3689 411 49 390.629 49 365.5C49 340.371 69.3689 320 94.5015 320C119.628 320 140 340.371 140 365.5Z" fill="#0088FA"/>
<path id="Fill 19" fill-rule="evenodd" clip-rule="evenodd" d="M442 83.0014C442 113.374 416.26 138 384.503 138C352.746 138 327 113.374 327 83.0014C327 52.6255 352.746 28 384.5 28C416.257 28 442 52.6255 442 83.0014Z" fill="#3AAC59"/>
<path id="Fill 21" fill-rule="evenodd" clip-rule="evenodd" d="M135 131.5C135 146.688 122.688 159 107.5 159C92.3093 159 80 146.688 80 131.5C80 116.312 92.3093 104 107.5 104C122.685 104 135 116.312 135 131.5Z" fill="#E6E5E5"/>
<path id="Fill 23" fill-rule="evenodd" clip-rule="evenodd" d="M374 244C374 253.941 365.944 262 356.003 262C346.059 262 338 253.941 338 244C338 234.059 346.059 226 356.003 226C365.944 226 374 234.059 374 244Z" fill="#0088FA"/>
<path id="Fill 25" fill-rule="evenodd" clip-rule="evenodd" d="M257 454C257 465.599 247.6 475 236.003 475C224.4 475 215 465.599 215 454C215 442.401 224.4 433 236.003 433C247.6 433 257 442.401 257 454Z" fill="#3AAC59"/>
<path id="Fill 27" fill-rule="evenodd" clip-rule="evenodd" d="M137.499 164C136.563 164 135.684 163.635 135.025 162.974C133.659 161.612 133.659 159.388 135.022 158.023C135.684 157.365 136.563 157 137.496 157C138.432 157 139.312 157.368 139.974 158.026C140.635 158.687 141 159.566 141 160.502C141 161.437 140.635 162.313 139.974 162.974C139.315 163.635 138.435 164 137.499 164Z" fill="#242D3C"/>
<path id="Fill 29" fill-rule="evenodd" clip-rule="evenodd" d="M140.024 170.974C139.362 170.312 138.997 169.433 139 168.5C139 167.564 139.365 166.684 140.027 166.023C140.685 165.365 141.566 165 142.502 165C143.435 165 144.315 165.365 144.977 166.023C146.341 167.389 146.341 169.611 144.977 170.974C144.315 171.635 143.432 172 142.499 172C141.566 172 140.685 171.635 140.024 170.974Z" fill="#401FB4"/>
<path id="Fill 31" fill-rule="evenodd" clip-rule="evenodd" d="M147.025 179.974C145.658 178.611 145.658 176.389 147.025 175.023C147.687 174.365 148.567 174 149.5 174C150.436 174 151.316 174.365 151.975 175.023C153.342 176.389 153.342 178.611 151.975 179.974C151.313 180.635 150.433 181 149.5 181C148.567 181 147.687 180.635 147.025 179.974Z" fill="#401FB4"/>
<path id="Fill 33" fill-rule="evenodd" clip-rule="evenodd" d="M315 243.502C315 241.571 316.571 240 318.503 240C320.429 240 321.997 241.571 322 243.498C321.997 245.432 320.429 247 318.503 247C316.574 247 315.003 245.432 315 243.502Z" fill="#401FB4"/>
<path id="Fill 35" fill-rule="evenodd" clip-rule="evenodd" d="M326.022 245.971C325.361 245.309 325 244.433 325 243.5C325 241.572 326.57 240 328.498 240C330.43 240 332 241.569 332 243.5C331.997 245.431 330.427 247 328.502 247C327.567 247 326.685 246.635 326.022 245.971Z" fill="#401FB4"/>
<path id="Fill 37" fill-rule="evenodd" clip-rule="evenodd" d="M135.026 329.974C134.365 329.313 134 328.437 134 327.502C134 326.569 134.365 325.69 135.023 325.029C135.687 324.368 136.566 324 137.498 324C138.434 324 139.313 324.368 139.974 325.026C140.635 325.687 141 326.566 141 327.498C141 328.434 140.635 329.313 139.971 329.977C139.31 330.635 138.431 331 137.498 331C136.563 331 135.684 330.635 135.026 329.974Z" fill="#401FB4"/>
<path id="Fill 39" fill-rule="evenodd" clip-rule="evenodd" d="M140.023 323.977C138.659 322.611 138.659 320.389 140.026 319.02C140.685 318.362 141.562 318 142.498 318C143.435 318 144.315 318.365 144.977 319.023C146.341 320.389 146.341 322.611 144.977 323.974C144.315 324.635 143.435 325 142.498 325C141.565 325 140.685 324.635 140.023 323.977Z" fill="#401FB4"/>
<path id="Fill 41" fill-rule="evenodd" clip-rule="evenodd" d="M147.022 316.977C145.659 315.615 145.659 313.392 147.025 312.026C147.686 311.365 148.565 311 149.501 311C150.437 311 151.313 311.365 151.974 312.023C152.635 312.684 153 313.563 153 314.498C153 315.434 152.632 316.31 151.971 316.974C151.31 317.635 150.43 318 149.495 318C148.559 318 147.68 317.635 147.022 316.977Z" fill="#401FB4"/>
<path id="Fill 43" fill-rule="evenodd" clip-rule="evenodd" d="M332.026 132.974C331.365 132.312 331 131.436 331 130.5C331 129.564 331.365 128.684 332.026 128.023C332.685 127.365 333.568 127 334.501 127C335.437 127 336.316 127.365 336.978 128.023C338.341 129.386 338.341 131.611 336.975 132.974C336.316 133.635 335.437 134 334.501 134C333.565 134 332.685 133.635 332.026 132.974Z" fill="#401FB4"/>
<path id="Fill 45" fill-rule="evenodd" clip-rule="evenodd" d="M328.498 138C327.565 138 326.685 137.635 326.023 136.974C324.659 135.607 324.659 133.389 326.023 132.023C326.682 131.365 327.562 131 328.498 131C329.431 131 330.315 131.365 330.973 132.026C331.635 132.688 332 133.567 332 134.5C332 135.436 331.635 136.312 330.973 136.974C330.311 137.635 329.431 138 328.498 138Z" fill="#401FB4"/>
<path id="Fill 47" fill-rule="evenodd" clip-rule="evenodd" d="M318.5 147C317.567 147 316.687 146.635 316.025 145.974C314.658 144.611 314.658 142.389 316.025 141.023C316.684 140.365 317.564 140 318.5 140C319.436 140 320.316 140.365 320.975 141.023C322.342 142.389 322.342 144.611 320.975 145.974C320.313 146.635 319.433 147 318.5 147Z" fill="#401FB4"/>
<path id="Fill 49" fill-rule="evenodd" clip-rule="evenodd" d="M313.501 156C312.568 156 311.684 155.635 311.023 154.974C309.659 153.611 309.659 151.389 311.026 150.023C311.684 149.365 312.565 149 313.501 149C314.438 149 315.318 149.365 315.977 150.023C317.341 151.389 317.341 153.611 315.98 154.974C315.318 155.635 314.435 156 313.501 156Z" fill="#401FB4"/>
<path id="Fill 51" fill-rule="evenodd" clip-rule="evenodd" d="M304.503 164C303.566 164 302.685 163.635 302.023 162.974C300.659 161.607 300.659 159.389 302.023 158.023C302.682 157.365 303.566 157 304.503 157C305.44 157 306.317 157.365 306.979 158.023C308.34 159.386 308.34 161.607 306.979 162.977C306.317 163.635 305.44 164 304.503 164Z" fill="#401FB4"/>
<path id="Fill 53" fill-rule="evenodd" clip-rule="evenodd" d="M296.496 172C295.561 172 294.681 171.635 294.023 170.974C292.659 169.612 292.659 167.392 294.023 166.026C294.684 165.365 295.564 165 296.5 165C297.432 165 298.312 165.365 298.974 166.023C299.635 166.687 300 167.566 300 168.498C300 169.434 299.635 170.313 298.974 170.974C298.312 171.635 297.429 172 296.496 172Z" fill="#401FB4"/>
<path id="Fill 55" fill-rule="evenodd" clip-rule="evenodd" d="M289.498 181C288.563 181 287.684 180.635 287.026 179.977C286.365 179.316 286 178.436 286 177.5C286 176.564 286.365 175.684 287.026 175.023C287.687 174.365 288.566 174 289.502 174C290.437 174 291.316 174.365 291.974 175.023C292.635 175.684 293 176.564 293 177.497C293 178.433 292.635 179.312 291.974 179.974C291.313 180.635 290.434 181 289.498 181Z" fill="#401FB4"/>
<path id="Fill 57" fill-rule="evenodd" clip-rule="evenodd" d="M289.499 318C288.563 318 287.684 317.635 287.025 316.974C285.659 315.612 285.659 313.388 287.022 312.023C287.684 311.365 288.563 311 289.496 311C290.432 311 291.312 311.368 291.974 312.026C292.635 312.687 293 313.566 293 314.502C293 315.437 292.635 316.313 291.974 316.974C291.315 317.635 290.435 318 289.499 318Z" fill="#401FB4"/>
<path id="Fill 59" fill-rule="evenodd" clip-rule="evenodd" d="M296.499 325C295.566 325 294.685 324.635 294.024 323.974C293.362 323.312 292.997 322.433 293 321.5C293 320.564 293.365 319.684 294.027 319.023C294.685 318.365 295.566 318 296.502 318C297.435 318 298.315 318.365 298.977 319.023C300.341 320.389 300.341 322.611 298.977 323.974C298.315 324.635 297.432 325 296.499 325Z" fill="#401FB4"/>
<path id="Fill 61" fill-rule="evenodd" clip-rule="evenodd" d="M304.501 331C303.568 331 302.688 330.635 302.027 329.974C301.365 329.312 301 328.436 301 327.5C301 326.564 301.365 325.684 302.027 325.023C302.688 324.365 303.568 324 304.501 324C305.437 324 306.317 324.365 306.975 325.023C308.342 326.389 308.342 328.611 306.975 329.974C306.314 330.635 305.434 331 304.501 331Z" fill="#401FB4"/>
<path id="Fill 63" fill-rule="evenodd" clip-rule="evenodd" d="M313.501 339C312.565 339 311.685 338.635 311.023 337.974C310.365 337.313 310 336.434 310 335.498C310 334.566 310.365 333.687 311.023 333.026C311.685 332.365 312.568 332 313.501 332C314.434 332 315.314 332.365 315.975 333.023C317.342 334.388 317.342 336.612 315.975 337.974C315.317 338.635 314.437 339 313.501 339Z" fill="#401FB4"/>
<path id="Fill 65" fill-rule="evenodd" clip-rule="evenodd" d="M318.501 346C317.565 346 316.688 345.635 316.027 344.977C315.365 344.312 315 343.433 315 342.5C315 341.567 315.365 340.688 316.027 340.023C316.685 339.365 317.565 339 318.501 339C319.437 339 320.317 339.365 320.979 340.023C322.342 341.389 322.339 343.611 320.976 344.974C320.314 345.635 319.434 346 318.501 346Z" fill="#401FB4"/>
<path id="Fill 67" fill-rule="evenodd" clip-rule="evenodd" d="M324.501 351C323.565 351 322.685 350.635 322.023 349.974C320.659 348.611 320.659 346.389 322.023 345.023C322.681 344.365 323.562 344 324.498 344C325.434 344 326.317 344.365 326.976 345.023C328.343 346.389 328.34 348.611 326.976 349.977C326.317 350.635 325.437 351 324.501 351Z" fill="#401FB4"/>
<path id="Fill 69" fill-rule="evenodd" clip-rule="evenodd" d="M334.5 361C333.567 361 332.684 360.635 332.023 359.974C330.659 358.608 330.659 356.388 332.023 355.026C332.681 354.365 333.561 354 334.496 354C335.432 354 336.312 354.368 336.974 355.026C337.635 355.687 338 356.566 338 357.502C338 358.437 337.635 359.313 336.974 359.977C336.315 360.635 335.436 361 334.5 361Z" fill="#401FB4"/>
<path id="Fill 71" fill-rule="evenodd" clip-rule="evenodd" d="M341.502 369C340.566 369 339.683 368.635 339.024 367.974C337.661 366.608 337.658 364.388 339.021 363.023C339.683 362.365 340.563 362 341.496 362C342.432 362 343.312 362.368 343.973 363.026C344.635 363.69 345 364.569 345 365.502C345.003 366.437 344.638 367.313 343.976 367.977C343.315 368.635 342.438 369 341.502 369Z" fill="#401FB4"/>
<path id="Fill 73" fill-rule="evenodd" clip-rule="evenodd" d="M349.5 376C348.564 376 347.684 375.635 347.023 374.974C345.659 373.611 345.659 371.389 347.023 370.023C347.684 369.365 348.567 369 349.5 369C350.432 369 351.312 369.365 351.974 370.023C352.635 370.684 353 371.567 353 372.5C353 373.436 352.635 374.312 351.974 374.977C351.312 375.635 350.432 376 349.5 376Z" fill="#401FB4"/>
<path id="Fill 15" fill-rule="evenodd" clip-rule="evenodd" d="M373.5 426C358.311 426.001 346 413.466 346 398C345.999 389.477 349.739 381.843 355.639 376.708C360.444 372.525 366.682 369.999 373.5 370C388.688 369.999 401 382.536 401 398C401 413.466 388.688 426.001 373.5 426Z" fill="#E6E5E5"/>
</g>
</svg>
